<svg width="30" height="15" viewBox="0 0 30 15" fill="none" xmlns="http://www.w3.org/2000/svg">
<path d="M9.87708 10.3909C9.87708 10.8299 9.70842 11.0494 9.37109 11.0494C9.23615 11.0494 9.09447 11.0219 8.94605 10.9671C8.94605 11.6667 9.11471 12.4486 9.45205 13.3128C9.43855 13.4911 9.35085 13.6351 9.18893 13.7449C9.0405 13.8546 8.87183 13.9095 8.68293 13.9095C8.52101 13.9095 8.33885 13.8615 8.13645 13.7654C8.0285 13.546 7.97453 13.203 7.97453 12.7366C7.97453 12.6132 7.98128 12.3868 7.99477 12.0576C7.99477 11.7284 7.99477 11.5021 7.99477 11.3786C7.99477 11.1317 7.97453 10.9671 7.93405 10.8848C7.81261 10.8711 7.6372 10.8779 7.40781 10.9053C7.19192 10.9328 7.03675 10.9465 6.9423 10.9465C6.36208 10.9465 5.45129 11.0288 4.20991 11.1934C2.79311 11.3855 1.97677 11.5775 1.76087 11.7695C1.63943 11.8656 1.51125 12.3594 1.37632 13.251C1.26837 13.9781 1.20765 14.513 1.19416 14.856C1.12669 14.952 1.03224 15 0.910797 15C0.735384 15 0.539731 14.9108 0.323839 14.7325C0.107946 14.5542 0 14.3827 0 14.2181C0 14.1358 0.0539731 13.9506 0.161919 13.6626C0.269866 13.3745 0.330585 13.1962 0.344079 13.1276C0.573465 11.6049 1.012 9.92455 1.65967 8.08642C3.44079 2.94239 4.8171 0.370371 5.78862 0.370371C6.8276 0.370371 7.63045 1.71468 8.19717 4.40329C8.39957 5.34979 8.6357 7.16049 8.90557 9.83539C8.98653 9.90398 9.18893 9.97942 9.51277 10.0617C9.75564 10.1166 9.87708 10.2263 9.87708 10.3909ZM7.91381 9.79424C7.57648 7.37997 7.36059 5.91907 7.26613 5.41152C6.82086 3.107 6.34859 1.96159 5.84934 1.97531C5.29611 2.00274 4.60121 3.05898 3.76463 5.14403C3.29236 6.46091 2.82684 7.77778 2.36807 9.09465C2.28711 9.27298 2.19941 9.54047 2.10495 9.89712C2.05098 10.2263 2.14543 10.3909 2.38831 10.3909C2.46927 10.3909 2.88082 10.3224 3.62295 10.1852C4.20316 10.0754 5.63345 9.94513 7.91381 9.79424Z" fill="#F95959"/>
<path d="M19.9268 10.6173C19.9268 11.0425 19.8324 11.4198 19.6435 11.749C18.7394 13.3951 17.1877 14.2181 14.9883 14.2181C14.3001 14.2181 13.4298 14.0809 12.3773 13.8066C12.3773 13.834 12.3706 13.8615 12.3571 13.8889C12.3571 13.93 12.3841 14.0604 12.4381 14.2798C12.3841 14.4444 12.2829 14.5473 12.1345 14.5885L11.9725 14.5062C11.7162 14.5336 11.5678 14.3964 11.5273 14.0946C11.4868 13.6557 11.4463 13.4156 11.4058 13.3745C11.3788 13.3333 11.2439 13.2579 11.001 13.1481C10.8121 13.0658 10.7177 12.9424 10.7177 12.7778C10.7177 12.572 10.8121 12.4623 11.001 12.4486C11.2034 12.4211 11.3114 12.3731 11.3249 12.3045C11.3249 12.3182 11.3249 12.2085 11.3249 11.9753C11.3249 11.7421 11.3316 11.3717 11.3451 10.8642C11.3721 10.3567 11.3856 9.97256 11.3856 9.71193L11.3654 8.99177C11.082 8.89575 10.9403 8.76543 10.9403 8.60082C10.9403 8.39506 11.0685 8.22359 11.3249 8.08642V1.21399C11.3249 1.10425 11.3991 0.967079 11.5475 0.80247C11.7094 0.63786 11.8444 0.555555 11.9523 0.555555C12.1682 0.555555 12.2896 0.576132 12.3166 0.617284C12.3976 0.699589 12.4718 0.788752 12.5393 0.884774C12.3234 2.14678 12.2154 3.05213 12.2154 3.60082C12.2154 3.60082 12.2222 3.64197 12.2357 3.72428C13.1532 1.32373 14.5228 0.123458 16.3444 0.123458C17.3969 0.123458 18.1997 0.53498 18.7529 1.35803C19.2522 2.08505 19.5018 2.99726 19.5018 4.09465C19.5018 4.9177 19.3129 5.72702 18.9351 6.52263C18.5033 7.45542 17.9501 8.03155 17.2754 8.25103C19.043 8.47051 19.9268 9.25926 19.9268 10.6173ZM18.4696 4.01235C18.4696 1.95473 17.7342 0.925926 16.2634 0.925926C15.2649 0.925926 14.3541 1.59122 13.531 2.92181C12.7889 4.11523 12.4178 5.24691 12.4178 6.31687V8.12757C12.3639 8.12757 12.8631 8.12757 13.9156 8.12757C15.4673 8.12757 16.594 7.84636 17.2957 7.28395C18.0783 6.63923 18.4696 5.5487 18.4696 4.01235ZM18.8946 10.4938C18.8946 9.73937 18.1795 9.2524 16.7492 9.03292C16.169 8.9369 15.157 8.88889 13.7132 8.88889C13.1465 8.88889 12.6944 8.93004 12.3571 9.01235C12.3436 9.46502 12.3369 10.4047 12.3369 11.8313C12.3369 12.1879 12.3504 12.5103 12.3773 12.7984C13.025 13.1824 13.8818 13.3745 14.9478 13.3745C15.8114 13.3745 16.6547 13.1139 17.4778 12.5926C18.4223 12.0165 18.8946 11.3169 18.8946 10.4938Z" fill="#F95959"/>
<path d="M30 11.1111C30 11.3306 29.9393 11.6187 29.8178 11.9753C29.5345 12.8121 28.961 13.4842 28.0974 13.9918C27.3013 14.4582 26.4378 14.6914 25.5067 14.6914C23.928 14.6914 22.7406 14.0329 21.9445 12.716C21.2698 11.6324 20.9325 10.2401 20.9325 8.53909C20.9325 7.08505 21.1417 5.71331 21.5599 4.42387C22.0322 2.91495 22.7339 1.74897 23.6649 0.925926C24.3531 0.308642 25.048 0 25.7496 0C26.7886 0 27.5645 0.507545 28.0772 1.52263C28.482 2.31824 28.6844 3.29904 28.6844 4.46502C28.6844 5.04115 28.5967 5.70645 28.4213 6.46091C28.1919 7.44856 27.8951 7.94239 27.5307 7.94239C27.2474 7.94239 27.045 7.79149 26.9235 7.48971C27.0045 7.43484 27.1327 7.33882 27.3081 7.20165C27.6589 6.85871 27.8343 6.02195 27.8343 4.69136C27.8343 3.88203 27.6859 3.107 27.389 2.36626C27.0112 1.40604 26.4917 0.925926 25.8306 0.925926C25.3043 0.925926 24.7511 1.24829 24.1709 1.893C23.7391 2.37311 23.3681 2.92867 23.0577 3.55967C22.3695 5.01372 22.0255 6.80384 22.0255 8.93004C22.0255 10.3429 22.2683 11.4678 22.7541 12.3045C23.3613 13.347 24.3058 13.8683 25.5877 13.8683C26.2893 13.8683 26.9303 13.6831 27.5105 13.3128C28.0907 12.9287 28.536 12.4211 28.8463 11.7901C28.9003 11.5844 29.015 11.2963 29.1904 10.9259C29.2984 10.7476 29.4333 10.6584 29.5952 10.6584C29.8651 10.6584 30 10.8093 30 11.1111Z" fill="#F95959"/>
</svg>