<svg width="24" height="25" viewBox="0 0 24 25" fill="none" xmlns="http://www.w3.org/2000/svg">
<path d="M9 22.6787H15C20 22.6787 22 20.643 22 15.5537V9.44653C22 4.35725 20 2.32153 15 2.32153H9C4 2.32153 2 4.35725 2 9.44653V15.5537C2 20.643 4 22.6787 9 22.6787Z" stroke="#292D32" stroke-width="1.5" stroke-linecap="round" stroke-linejoin="round"/>
<path d="M15.5699 19.1161V15.1465" stroke="#292D32" stroke-width="1.5" stroke-miterlimit="10" stroke-linecap="round" stroke-linejoin="round"/>
<path d="M15.5699 7.86885V5.88403" stroke="#292D32" stroke-width="1.5" stroke-miterlimit="10" stroke-linecap="round" stroke-linejoin="round"/>
<path d="M15.57 13.1616C17.0059 13.1616 18.17 11.9768 18.17 10.5152C18.17 9.05362 17.0059 7.86877 15.57 7.86877C14.134 7.86877 12.97 9.05362 12.97 10.5152C12.97 11.9768 14.134 13.1616 15.57 13.1616Z" stroke="#292D32" stroke-width="1.5" stroke-miterlimit="10" stroke-linecap="round" stroke-linejoin="round"/>
<path d="M8.43005 19.1162V17.1313" stroke="#292D32" stroke-width="1.5" stroke-miterlimit="10" stroke-linecap="round" stroke-linejoin="round"/>
<path d="M8.43005 9.85368V5.88403" stroke="#292D32" stroke-width="1.5" stroke-miterlimit="10" stroke-linecap="round" stroke-linejoin="round"/>
<path d="M8.42996 17.1314C9.8659 17.1314 11.03 15.9465 11.03 14.4849C11.03 13.0233 9.8659 11.8385 8.42996 11.8385C6.99402 11.8385 5.82996 13.0233 5.82996 14.4849C5.82996 15.9465 6.99402 17.1314 8.42996 17.1314Z" stroke="#292D32" stroke-width="1.5" stroke-miterlimit="10" stroke-linecap="round" stroke-linejoin="round"/>
</svg>
