<svg width="24" height="25" viewBox="0 0 24 25" fill="none" xmlns="http://www.w3.org/2000/svg">
<path d="M21.08 9.01907V15.9812C21.08 17.1212 20.48 18.1798 19.51 18.76L13.57 22.2512C12.6 22.8212 11.4 22.8212 10.42 22.2512L4.48003 18.76C3.51003 18.19 2.91003 17.1314 2.91003 15.9812V9.01907C2.91003 7.87907 3.51003 6.82045 4.48003 6.24028L10.42 2.74903C11.39 2.17903 12.59 2.17903 13.57 2.74903L19.51 6.24028C20.48 6.82045 21.08 7.86889 21.08 9.01907Z" stroke="#F95959" stroke-width="1.5" stroke-linecap="round" stroke-linejoin="round"/>
<path d="M12 11.4822C13.2869 11.4822 14.33 10.4204 14.33 9.11058C14.33 7.80077 13.2869 6.73901 12 6.73901C10.7132 6.73901 9.67004 7.80077 9.67004 9.11058C9.67004 10.4204 10.7132 11.4822 12 11.4822Z" stroke="#F95959" stroke-width="1.5" stroke-linecap="round" stroke-linejoin="round"/>
<path d="M16 17.2432C16 15.4111 14.21 13.925 12 13.925C9.79 13.925 8 15.4111 8 17.2432" stroke="#F95959" stroke-width="1.5" stroke-linecap="round" stroke-linejoin="round"/>
</svg>
