<svg width="24" height="25" viewBox="0 0 24 25" fill="none" xmlns="http://www.w3.org/2000/svg">
<path d="M21 7.41082V17.5894C21 20.643 19.5 22.6787 16 22.6787H8C4.5 22.6787 3 20.643 3 17.5894V7.41082C3 4.35725 4.5 2.32153 8 2.32153H16C19.5 2.32153 21 4.35725 21 7.41082Z" stroke="#292D32" stroke-width="1.5" stroke-miterlimit="10" stroke-linecap="round" stroke-linejoin="round"/>
<path d="M15.5 2.32153V10.3219C15.5 10.7697 14.98 10.9937 14.66 10.6985L12.34 8.52031C12.15 8.3371 11.85 8.3371 11.66 8.52031L9.34003 10.6985C9.02003 10.9937 8.5 10.7697 8.5 10.3219V2.32153H15.5Z" stroke="#292D32" stroke-width="1.5" stroke-miterlimit="10" stroke-linecap="round" stroke-linejoin="round"/>
<path d="M13.25 14.5358H17.5" stroke="#292D32" stroke-width="1.5" stroke-miterlimit="10" stroke-linecap="round" stroke-linejoin="round"/>
<path d="M9 18.6072H17.5" stroke="#292D32" stroke-width="1.5" stroke-miterlimit="10" stroke-linecap="round" stroke-linejoin="round"/>
</svg>
