<svg width="24" height="25" viewBox="0 0 24 25" fill="none" xmlns="http://www.w3.org/2000/svg">
<path d="M18.04 14.0778C17.62 14.4951 17.38 15.0956 17.44 15.7369C17.53 16.8362 18.52 17.6403 19.6 17.6403H21.5V18.8515C21.5 20.9585 19.81 22.6787 17.74 22.6787H7.64C8.47 21.9356 9 20.8465 9 19.6251C9 17.3756 7.21 15.5537 5 15.5537C4.06 15.5537 3.19 15.8896 2.5 16.4494V12.0013C2.5 9.89438 4.18999 8.17419 6.25999 8.17419H17.74C19.81 8.17419 21.5 9.89438 21.5 12.0013V13.4671H19.48C18.92 13.4671 18.41 13.691 18.04 14.0778Z" stroke="#292D32" stroke-width="1.5" stroke-linecap="round" stroke-linejoin="round"/>
<path opacity="0.4" d="M2.5 12.0013V8.26581C2.5 7.05456 3.23 5.97559 4.34 5.54809L12.28 2.49452C13.52 2.0263 14.85 2.95258 14.85 4.30633V8.17418" stroke="#292D32" stroke-width="1.5" stroke-linecap="round" stroke-linejoin="round"/>
<path d="M22.56 14.5052V16.6021C22.56 17.1619 22.12 17.6199 21.56 17.6402H19.6C18.52 17.6402 17.53 16.8361 17.44 15.7368C17.38 15.0956 17.62 14.4951 18.04 14.0777C18.41 13.6909 18.92 13.467 19.48 13.467H21.56C22.12 13.4874 22.56 13.9454 22.56 14.5052Z" stroke="#292D32" stroke-width="1.5" stroke-linecap="round" stroke-linejoin="round"/>
<path opacity="0.4" d="M7 12.5H14" stroke="#292D32" stroke-width="1.5" stroke-linecap="round" stroke-linejoin="round"/>
<path d="M9 19.625C9 20.8464 8.47 21.9356 7.64 22.6786C6.93 23.3097 6.01 23.6964 5 23.6964C2.79 23.6964 1 21.8745 1 19.625C1 18.3425 1.58 17.1923 2.5 16.4493C3.19 15.8895 4.06 15.5536 5 15.5536C7.21 15.5536 9 17.3756 9 19.625Z" stroke="#292D32" stroke-width="1.5" stroke-miterlimit="10" stroke-linecap="round" stroke-linejoin="round"/>
<path d="M5.25 18.3527V19.8794L4 20.6428" stroke="#292D32" stroke-width="1.5" stroke-miterlimit="10" stroke-linecap="round" stroke-linejoin="round"/>
</svg>
