<svg width="22" height="22" viewBox="0 0 22 22" fill="none" xmlns="http://www.w3.org/2000/svg">
<path d="M2.90576 6.82001L10.9999 11.5042L19.0391 6.84748" stroke="#F95959" stroke-width="1.5" stroke-linecap="round" stroke-linejoin="round"/>
<path d="M11 19.8091V11.4949" stroke="#F95959" stroke-width="1.5" stroke-linecap="round" stroke-linejoin="round"/>
<path d="M9.10257 2.27331L4.20757 4.99584C3.0984 5.61001 2.19092 7.14999 2.19092 8.41499V13.5942C2.19092 14.8592 3.0984 16.3992 4.20757 17.0133L9.10257 19.7359C10.1476 20.3134 11.8617 20.3134 12.9067 19.7359L17.8018 17.0133C18.9109 16.3992 19.8184 14.8592 19.8184 13.5942V8.41499C19.8184 7.14999 18.9109 5.61001 17.8018 4.99584L12.9067 2.27331C11.8526 1.68665 10.1476 1.68665 9.10257 2.27331Z" stroke="#F95959" stroke-width="1.5" stroke-linecap="round" stroke-linejoin="round"/>
<path d="M15.5834 12.1366V8.78167L6.88428 3.7583" stroke="#F95959" stroke-width="1.5" stroke-linecap="round" stroke-linejoin="round"/>
</svg>
