<svg width="26" height="26" viewBox="0 0 26 26" fill="none" xmlns="http://www.w3.org/2000/svg">
<path d="M13 13C15.9916 13 18.4167 10.5749 18.4167 7.58335C18.4167 4.59181 15.9916 2.16669 13 2.16669C10.0085 2.16669 7.58337 4.59181 7.58337 7.58335C7.58337 10.5749 10.0085 13 13 13Z" stroke="#F95959" stroke-width="2" stroke-linecap="round" stroke-linejoin="round"/>
<path opacity="0.4" d="M3.69421 23.8333C3.69421 19.6408 7.86504 16.25 13 16.25C14.04 16.25 15.0476 16.3908 15.9901 16.6508" stroke="#F95959" stroke-width="2" stroke-linecap="round" stroke-linejoin="round"/>
<path d="M23.8333 19.5C23.8333 19.8467 23.79 20.1825 23.7033 20.5075C23.6058 20.9408 23.4325 21.3634 23.205 21.7317C22.4575 22.9884 21.0816 23.8334 19.5 23.8334C18.3841 23.8334 17.3766 23.4108 16.6183 22.7175C16.2933 22.4358 16.0116 22.1 15.7949 21.7317C15.3941 21.0817 15.1666 20.3125 15.1666 19.5C15.1666 18.33 15.6325 17.2575 16.3908 16.4775C17.1816 15.665 18.2866 15.1667 19.5 15.1667C20.7783 15.1667 21.9375 15.7192 22.7175 16.6075C23.4108 17.3767 23.8333 18.395 23.8333 19.5Z" stroke="#F95959" stroke-width="1.5" stroke-miterlimit="10" stroke-linecap="round" stroke-linejoin="round"/>
<path d="M21.1142 19.4783H17.8859" stroke="#F95959" stroke-width="1.5" stroke-miterlimit="10" stroke-linecap="round" stroke-linejoin="round"/>
<path d="M19.5002 17.8967V21.1358" stroke="#F95959" stroke-width="1.5" stroke-miterlimit="10" stroke-linecap="round" stroke-linejoin="round"/>
</svg>
