<svg width="26" height="26" viewBox="0 0 26 26" fill="none" xmlns="http://www.w3.org/2000/svg">
<path d="M10.8334 4.87502V19.5C10.8334 20.67 10.3567 21.7425 9.59834 22.5225L9.55503 22.5659C9.45753 22.6634 9.3492 22.7609 9.2517 22.8367C8.9267 23.1184 8.55834 23.335 8.17918 23.4867C8.06001 23.5409 7.94085 23.5842 7.82169 23.6275C7.39919 23.7684 6.94419 23.8334 6.50002 23.8334C6.20752 23.8334 5.91503 23.8009 5.63336 23.7467C5.49253 23.7142 5.35169 23.6817 5.21085 23.6384C5.03752 23.5842 4.87503 23.53 4.71253 23.4542C4.71253 23.4434 4.71252 23.4434 4.70169 23.4542C4.39835 23.3025 4.10586 23.1292 3.83503 22.9234L3.82419 22.9125C3.68335 22.8042 3.55336 22.6959 3.4342 22.5659C3.31503 22.4359 3.19585 22.3059 3.07669 22.165C2.87085 21.8942 2.69753 21.6017 2.54586 21.2984C2.5567 21.2875 2.5567 21.2875 2.54586 21.2875C2.54586 21.2875 2.54585 21.2767 2.53502 21.2659C2.47002 21.1142 2.41584 20.9517 2.36168 20.7892C2.31834 20.6484 2.28584 20.5075 2.25334 20.3667C2.19918 20.085 2.16669 19.7925 2.16669 19.5V4.87502C2.16669 3.25002 3.25002 2.16669 4.87502 2.16669H8.12502C9.75002 2.16669 10.8334 3.25002 10.8334 4.87502Z" stroke="#F95959" stroke-width="1.8" stroke-linecap="round" stroke-linejoin="round"/>
<path opacity="0.4" d="M23.8333 17.875V21.125C23.8333 22.75 22.75 23.8334 21.125 23.8334H6.5C6.94417 23.8334 7.39917 23.7684 7.82167 23.6275C7.94083 23.5842 8.05999 23.5409 8.17916 23.4867C8.55832 23.335 8.92668 23.1184 9.25168 22.8367C9.34918 22.7609 9.45751 22.6634 9.55501 22.5659L9.59832 22.5225L16.965 15.1667H21.125C22.75 15.1667 23.8333 16.25 23.8333 17.875Z" stroke="#F95959" stroke-width="1.8" stroke-linecap="round" stroke-linejoin="round"/>
<path d="M5.2105 23.6382C4.56049 23.4432 3.94302 23.0857 3.43385 22.5657C2.91385 22.0566 2.55633 21.4391 2.36133 20.7891C2.78383 22.1432 3.85633 23.2157 5.2105 23.6382Z" stroke="#F95959" stroke-width="1.8" stroke-linecap="round" stroke-linejoin="round"/>
<path d="M19.9002 12.2307L16.9643 15.1666L9.59766 22.5224C10.356 21.7424 10.8327 20.67 10.8327 19.5V9.03493L13.7685 6.0991C14.9168 4.95077 16.4552 4.95077 17.6035 6.0991L19.9002 8.39577C21.0485 9.5441 21.0485 11.0824 19.9002 12.2307Z" stroke="#F95959" stroke-width="1.8" stroke-linecap="round" stroke-linejoin="round"/>
<path opacity="0.4" d="M6.50002 20.5834C7.09832 20.5834 7.58335 20.0983 7.58335 19.5C7.58335 18.9017 7.09832 18.4167 6.50002 18.4167C5.90172 18.4167 5.41669 18.9017 5.41669 19.5C5.41669 20.0983 5.90172 20.5834 6.50002 20.5834Z" stroke="#F95959" stroke-width="1.2" stroke-linecap="round" stroke-linejoin="round"/>
</svg>
