<svg width="22" height="21" viewBox="0 0 22 21" fill="none" xmlns="http://www.w3.org/2000/svg">
<path d="M12.5398 14.0359C12.6945 14.1924 12.897 14.2711 13.1004 14.2711C13.3038 14.2711 13.5081 14.1914 13.6628 14.033C15.5688 12.0858 15.5688 8.91713 13.6628 6.97085C13.3534 6.65505 12.8511 6.65408 12.5398 6.9689C12.2295 7.28373 12.2285 7.79483 12.5379 8.1116C13.829 9.43018 13.829 11.5756 12.5379 12.8942C12.2285 13.21 12.2295 13.7211 12.5398 14.0359ZM8.46525 13.9738C8.3096 12.938 8.21698 11.7739 8.21602 10.501C8.21507 9.28928 8.30006 8.11646 8.46144 7.02915C8.54547 7.06704 8.63714 7.09133 8.73358 7.09619C8.9895 7.26624 9.55385 8.42545 9.55385 10.5019C9.55385 12.5979 8.97709 13.7512 8.71926 13.9077C8.62855 13.9145 8.54451 13.9398 8.46525 13.9738ZM4.80223 13.3635C4.65326 13.212 4.45082 13.1265 4.24074 13.1265H2.16669C1.95279 12.9049 1.58992 11.9672 1.58992 10.5019C1.58992 9.03664 1.95279 8.09995 2.16669 7.87743H4.24074C4.45178 7.87743 4.65517 7.79192 4.80318 7.63937L7.19523 5.19073C6.82568 6.77748 6.62706 8.6023 6.62897 10.5029C6.62992 12.423 6.83428 14.241 7.19905 15.8064L4.80223 13.3635ZM13.9617 16.2679C13.5473 16.1202 13.0946 16.3427 12.9505 16.7635C12.409 18.3376 11.6489 19.3666 11.012 19.386C10.8535 19.389 10.6806 19.317 10.4973 19.1693L10.1545 18.8195C9.64361 18.187 9.13178 17.0559 8.76223 15.5197C8.76605 15.5197 8.77083 15.5207 8.77465 15.5207C8.78229 15.5207 8.79088 15.5207 8.79852 15.5207C10.4066 15.4721 11.139 12.8845 11.139 10.5019C11.139 8.08439 10.3989 5.48223 8.77465 5.48223C8.76796 5.48223 8.76223 5.48418 8.75555 5.48418C8.88828 4.93032 9.04298 4.40949 9.21963 3.93434C9.85751 2.22515 10.5756 1.61687 11.034 1.61687C11.5296 1.61687 12.3441 2.34661 13.0106 4.40172C13.1481 4.82537 13.5969 5.05566 14.0133 4.91574C14.4296 4.77582 14.6559 4.31913 14.5184 3.89547C13.7048 1.38367 12.4682 0 11.0349 0C10.547 0 10.08 0.164214 9.64361 0.479039C9.54812 0.518878 9.45836 0.578147 9.38006 0.657825L3.90844 6.26055H2.08074C2.07883 6.26055 2.07597 6.25958 2.07406 6.25958C2.06928 6.25958 2.06451 6.26055 2.05974 6.26055H2.04923C2.04636 6.26055 2.0435 6.26152 2.04064 6.26152C0.632149 6.29456 0 8.40602 0 10.5C0 12.594 0.631194 14.7054 2.04064 14.7385C2.0435 14.7385 2.04636 14.7395 2.04923 14.7395H2.05974C2.06451 14.7395 2.06928 14.7404 2.07406 14.7404C2.07597 14.7404 2.07788 14.7395 2.08074 14.7395H3.90939L8.98855 19.9166C9.07353 20.0167 9.15947 20.1119 9.24732 20.1984C9.30748 20.2576 9.36669 20.3111 9.42589 20.3616L9.47555 20.4121C9.53666 20.4743 9.60637 20.521 9.6799 20.5589C10.1841 20.9096 10.653 21 10.9986 21C11.0196 21 11.0397 21 11.0588 20.999C12.4377 20.9572 13.6418 19.6416 14.4478 17.295C14.5939 16.8762 14.3761 16.4156 13.9617 16.2679ZM18.8718 2.77512C18.5625 2.45933 18.0592 2.45835 17.7489 2.77318C17.4385 3.088 17.4376 3.59911 17.747 3.91491C21.3021 7.54706 21.3021 13.4578 17.747 17.09C17.4376 17.4057 17.4385 17.9178 17.7489 18.2326C17.9036 18.3891 18.106 18.4678 18.3084 18.4678C18.5118 18.4678 18.7162 18.3881 18.8709 18.2297C23.0429 13.9689 23.0429 7.03595 18.8718 2.77512ZM16.2764 4.86424C15.967 4.54747 15.4647 4.54747 15.1534 4.8623C14.8431 5.17712 14.8421 5.68823 15.1515 6.005C17.5798 8.4857 17.5798 12.5211 15.1515 15.0018C14.8421 15.3176 14.8431 15.8297 15.1534 16.1445C15.3081 16.3019 15.5106 16.3797 15.714 16.3797C15.9174 16.3797 16.1217 16.3 16.2764 16.1416C19.3197 13.0312 19.3197 7.97265 16.2764 4.86424Z" fill="#0E2332"/>
</svg>