<svg width="30" height="33" viewBox="0 0 30 33" fill="none" xmlns="http://www.w3.org/2000/svg">
<path fill-rule="evenodd" clip-rule="evenodd" d="M27.7075 18.6929V15.3895C27.7075 14.207 27.5516 13.0271 27.2416 11.8884C26.9325 10.7542 26.4728 9.66649 25.8756 8.65939C25.6611 8.29683 25.7758 7.81968 26.1304 7.60036C26.4851 7.38103 26.9518 7.4983 27.1663 7.86086C27.8345 8.98882 28.3502 10.2054 28.697 11.4766C29.0437 12.7496 29.2206 14.0682 29.2206 15.3904V18.6938C29.2206 19.1208 28.8817 19.4672 28.4641 19.4672C28.0464 19.4663 27.7075 19.1199 27.7075 18.6929ZM4.12431 8.65939C3.52711 9.66649 3.06739 10.7542 2.75828 11.8884C2.44742 13.0271 2.29243 14.207 2.29243 15.3895V18.6929C2.29243 19.1199 1.95355 19.4663 1.53586 19.4663C1.11818 19.4663 0.779297 19.1199 0.779297 18.6929V15.3895C0.779297 14.0682 0.956179 12.7496 1.30382 11.4757C1.6497 10.2054 2.16546 8.98793 2.83446 7.85997C3.049 7.49741 3.51572 7.38014 3.87037 7.59946C4.22413 7.81968 4.33884 8.29683 4.12431 8.65939ZM29.2863 22.2656C28.5376 25.0515 26.9518 27.5151 24.746 29.3208C22.5411 31.1255 19.8432 32.1693 17.021 32.3063L16.7688 32.3188L16.6979 30.7764L16.95 30.7638C19.4536 30.6421 21.8485 29.7182 23.8047 28.1158C25.7609 26.5143 27.1672 24.3291 27.831 21.8583L27.8975 21.6103L29.3537 22.0159L29.2863 22.2656Z" fill="white"/>
<path d="M25.6683 8.93774C25.2681 8.8715 24.8933 8.64859 24.6368 8.28514C24.5588 8.17503 24.4651 8.0488 24.3548 7.90557C24.2506 7.7695 24.1481 7.64238 24.0501 7.52421C23.9555 7.41141 23.8531 7.29414 23.7427 7.1715C23.6473 7.06586 23.5317 6.94412 23.396 6.80536C22.2567 5.6407 20.9467 4.7625 19.5518 4.17166C18.1009 3.55666 16.5518 3.2496 15.0002 3.2496C13.4485 3.2496 11.8995 3.55666 10.4485 4.17166C9.0527 4.7625 7.74359 5.6407 6.60436 6.80536C6.46864 6.94412 6.35305 7.06586 6.2576 7.1715C6.14727 7.29325 6.04482 7.41052 5.95025 7.52421C5.8513 7.64238 5.74972 7.7695 5.64552 7.90557C5.53519 8.0488 5.44149 8.17503 5.36356 8.28514C5.10787 8.64859 4.73221 8.8715 4.33291 8.93774C3.93274 9.00399 3.50804 8.91447 3.15253 8.65307C2.79701 8.39167 2.57897 8.00762 2.51417 7.59941C2.44937 7.1903 2.53694 6.75612 2.79263 6.39267C2.91347 6.22169 3.03606 6.05518 3.16128 5.89225C3.29175 5.72216 3.41785 5.56371 3.54132 5.416C3.68142 5.2477 3.81802 5.09014 3.95025 4.94244C4.09648 4.7804 4.23221 4.63448 4.35655 4.50736C5.79613 3.03565 7.459 1.9229 9.23571 1.17093C11.0798 0.39031 13.0413 0 15.0019 0C16.9616 0 18.924 0.39031 20.7672 1.17093C22.5439 1.9238 24.2068 3.03565 25.6464 4.50736C25.7707 4.63448 25.9065 4.7804 26.0527 4.94244C26.1849 5.09014 26.3215 5.2477 26.4616 5.416C26.5842 5.56371 26.7112 5.72216 26.8417 5.89225C26.966 6.05518 27.0895 6.22169 27.2103 6.39267C27.466 6.75612 27.5536 7.1903 27.4888 7.59941C27.424 8.00852 27.2059 8.39167 26.8504 8.65307C26.4932 8.91447 26.0685 9.00399 25.6683 8.93774Z" fill="white"/>
<path d="M25.4525 7.68438C25.5453 7.81688 25.6828 7.89834 25.8291 7.92251C25.9753 7.94668 26.1312 7.91445 26.2607 7.81956C26.3903 7.72467 26.47 7.58412 26.4937 7.43462C26.5173 7.28512 26.4858 7.12578 26.393 6.99329C26.28 6.83394 26.1653 6.67728 26.048 6.52509C25.9376 6.38186 25.8203 6.23505 25.696 6.08555C25.5707 5.93515 25.442 5.78655 25.3107 5.64063C25.1942 5.51082 25.0681 5.37654 24.9315 5.23779C23.5839 3.86006 22.0348 2.82162 20.3833 2.12247C18.6662 1.39556 16.8343 1.0321 14.9998 1.0321C13.1653 1.0321 11.3334 1.39556 9.61627 2.12247C7.96478 2.82162 6.41574 3.86006 5.0681 5.23779C4.9315 5.37744 4.80541 5.51172 4.68895 5.64063C4.5576 5.78744 4.42888 5.93515 4.30366 6.08555C4.17844 6.23505 4.0611 6.38186 3.95164 6.52509C3.8343 6.67728 3.71959 6.83394 3.60663 6.99329C3.51381 7.12578 3.48142 7.28423 3.50593 7.43462C3.52958 7.58412 3.60926 7.72467 3.73886 7.81956C3.86846 7.91445 4.02345 7.94757 4.17056 7.92251C4.31679 7.89834 4.45427 7.81688 4.54709 7.68438C4.65655 7.53041 4.75812 7.39165 4.85269 7.26901C4.95164 7.1401 5.06285 7.00224 5.18544 6.85542C5.29227 6.72741 5.40348 6.59939 5.51994 6.47049C5.64954 6.32725 5.77388 6.19566 5.89035 6.07659C7.12152 4.81704 8.54446 3.86543 10.0655 3.22178C11.6434 2.55396 13.3229 2.21915 14.9998 2.21915C16.6767 2.21915 18.3553 2.55306 19.9341 3.22178C21.4551 3.86543 22.8781 4.81793 24.1093 6.07659C24.2257 6.19566 24.3501 6.32725 24.4797 6.47049C24.5961 6.59939 24.7082 6.72741 24.815 6.85542C24.9376 7.00224 25.0488 7.1401 25.1478 7.26901C25.2415 7.39165 25.3431 7.53041 25.4525 7.68438Z" fill="white"/>
<path d="M28.4641 18.1771C28.887 18.1771 29.2706 18.3534 29.549 18.6381C29.8266 18.9219 30 19.3149 30 19.7473V20.9012C30 21.3336 29.8275 21.7257 29.549 22.0103C29.2714 22.2941 28.887 22.4714 28.4641 22.4714C28.042 22.4714 27.6585 22.295 27.38 22.0112C27.1024 21.7275 26.9299 21.3354 26.9299 20.903V19.7455C26.9299 19.314 27.1024 18.9219 27.38 18.6372C27.6585 18.3534 28.042 18.1771 28.4641 18.1771Z" fill="white"/>
<path d="M28.4648 19.2083C28.3212 19.2083 28.1899 19.2692 28.0944 19.3668C27.999 19.4643 27.9395 19.5986 27.9395 19.7454V20.902C27.9395 21.0489 27.999 21.1831 28.0944 21.2807C28.1899 21.3783 28.3212 21.4392 28.4648 21.4392C28.6093 21.4392 28.7407 21.3783 28.8361 21.2807C28.9316 21.1831 28.9911 21.0489 28.9911 20.9011V19.7472C28.9911 19.5995 28.9316 19.4652 28.8361 19.3677C28.7398 19.2692 28.6085 19.2083 28.4648 19.2083Z" fill="white"/>
<path d="M26.6559 16.9543C26.486 16.7806 26.2531 16.6732 25.9965 16.6732C25.74 16.6732 25.5053 16.7815 25.3354 16.9552C25.1655 17.1289 25.0596 17.3679 25.0596 17.6311V23.0175C25.0596 23.2798 25.1655 23.5198 25.3354 23.6934C25.5053 23.8671 25.7391 23.9754 25.9965 23.9754C26.2531 23.9754 26.4869 23.868 26.6559 23.6943C26.8258 23.5207 26.9308 23.2825 26.9308 23.0202V17.6302C26.9308 17.3661 26.8258 17.128 26.6559 16.9543Z" fill="white"/>
<path d="M25.9956 15.642C26.5306 15.642 27.0166 15.8649 27.3686 16.2247C27.7207 16.5846 27.9387 17.0815 27.9387 17.6284V23.0185C27.9387 23.5654 27.7198 24.0623 27.3686 24.4222C27.0166 24.782 26.5306 25.0049 25.9956 25.0049C25.4606 25.0049 24.9737 24.7811 24.6217 24.4213C24.2697 24.0614 24.0508 23.5637 24.0508 23.0167V17.6302C24.0508 17.0824 24.2697 16.5855 24.6217 16.2256C24.9737 15.8658 25.4606 15.642 25.9956 15.642Z" fill="white"/>
<path d="M1.53604 19.2083C1.39155 19.2083 1.2602 19.2692 1.16476 19.3668C1.06931 19.4643 1.00977 19.5986 1.00977 19.7463V20.9003C1.00977 21.048 1.06931 21.1822 1.16476 21.2798C1.2602 21.3774 1.39155 21.4383 1.53604 21.4383C1.67964 21.4383 1.81099 21.3774 1.90644 21.2798C2.00189 21.1822 2.06143 21.048 2.06143 20.9011V19.7454C2.06143 19.5986 2.00189 19.4643 1.90644 19.3668C1.81099 19.2692 1.67964 19.2083 1.53604 19.2083Z" fill="white"/>
<path d="M1.5359 18.1771C1.95797 18.1771 2.34151 18.3534 2.61996 18.6372C2.89755 18.921 3.07005 19.3131 3.07005 19.7455V20.9021C3.07005 21.3336 2.89755 21.7257 2.61996 22.0103C2.34238 22.2941 1.95884 22.4705 1.5359 22.4705C1.11296 22.4705 0.729422 22.2941 0.450963 22.0094C0.17338 21.7257 0 21.3327 0 20.9003V19.7464C0 19.314 0.172505 18.9219 0.450963 18.6372C0.728547 18.3534 1.11296 18.1771 1.5359 18.1771Z" fill="white"/>
<path d="M2.63133 16.2247C2.98335 15.8649 3.46934 15.642 4.00436 15.642C4.54027 15.642 5.02626 15.8658 5.37827 16.2256C5.73028 16.5855 5.9492 17.0832 5.9492 17.6302V23.0167C5.9492 23.5645 5.73028 24.0614 5.37827 24.4213C5.02626 24.7811 4.53939 25.0049 4.00436 25.0049C3.46934 25.0049 2.98335 24.7811 2.63133 24.4222C2.27932 24.0623 2.06128 23.5654 2.06128 23.0185V17.6284C2.06041 17.0815 2.27932 16.5846 2.63133 16.2247Z" fill="white"/>
<path d="M4.00415 16.6732C3.74758 16.6732 3.51378 16.7806 3.34478 16.9543C3.1749 17.128 3.06982 17.3661 3.06982 17.6284V23.0184C3.06982 23.2807 3.1749 23.5198 3.34478 23.6925C3.51466 23.8662 3.74846 23.9736 4.00415 23.9736C4.26072 23.9736 4.49539 23.8662 4.66527 23.6916C4.83515 23.518 4.9411 23.2789 4.9411 23.0158V17.6293C4.9411 17.3661 4.83515 17.1271 4.66527 16.9534C4.49452 16.7806 4.26072 16.6732 4.00415 16.6732Z" fill="white"/>
<path d="M14.5605 31.9687H16.4729C16.4765 31.9687 16.4782 31.9687 16.4791 31.9678L16.4808 31.966C16.4817 31.9652 16.4817 31.9634 16.4817 31.9598V31.1111C16.4817 31.1093 16.4808 31.1067 16.4791 31.1049C16.4773 31.1031 16.4756 31.1022 16.4729 31.1022H14.5605C14.5588 31.1022 14.557 31.1031 14.5544 31.1049C14.5526 31.1067 14.5518 31.1084 14.5518 31.1111V31.9598C14.5518 31.9634 14.5518 31.9652 14.5526 31.966L14.5544 31.9678C14.5553 31.9687 14.557 31.9687 14.5605 31.9687Z" fill="white"/>
<path d="M16.4729 33H14.5605C14.282 33 14.029 32.8837 13.8433 32.6948L13.8424 32.6939L13.8416 32.693C13.6577 32.5041 13.543 32.2445 13.543 31.9598V31.1112C13.543 30.8247 13.6577 30.5642 13.8416 30.3762C14.0255 30.1882 14.2803 30.0709 14.5605 30.0709H16.4729C16.7531 30.0709 17.0079 30.1882 17.1918 30.3762C17.3757 30.5642 17.4904 30.8247 17.4904 31.1112V31.9598C17.4904 32.2445 17.3766 32.5032 17.1918 32.693L17.191 32.6939L17.1901 32.6948C17.0044 32.8828 16.7505 33 16.4729 33Z" fill="white"/>
</svg>
