<svg width="26" height="26" viewBox="0 0 26 26" fill="none" xmlns="http://www.w3.org/2000/svg">
<path d="M23.7576 7.32336L20.1067 21.9809C19.8467 23.0751 18.8717 23.8334 17.7451 23.8334H3.51006C1.87423 23.8334 0.704243 22.23 1.19174 20.6591L5.75257 6.01257C6.06673 4.99424 7.00925 4.28998 8.07092 4.28998H21.3959C22.4251 4.28998 23.2809 4.91832 23.6384 5.78498C23.8442 6.25082 23.8876 6.7817 23.7576 7.32336Z" stroke="#F95959" stroke-width="2" stroke-miterlimit="10"/>
<path opacity="0.4" d="M17.3334 23.8333H22.5117C23.9092 23.8333 25.0034 22.6525 24.9059 21.255L23.8334 6.5" stroke="#F95959" stroke-width="2" stroke-miterlimit="10" stroke-linecap="round" stroke-linejoin="round"/>
<path d="M10.4866 6.91169L11.6133 2.23175" stroke="#F95959" stroke-width="2" stroke-miterlimit="10" stroke-linecap="round" stroke-linejoin="round"/>
<path d="M17.745 6.92252L18.7633 2.22089" stroke="#F95959" stroke-width="2" stroke-miterlimit="10" stroke-linecap="round" stroke-linejoin="round"/>
<path opacity="0.4" d="M8.34174 13H17.0084" stroke="#F95959" stroke-width="2" stroke-miterlimit="10" stroke-linecap="round" stroke-linejoin="round"/>
<path opacity="0.4" d="M7.25836 17.3333H15.925" stroke="#F95959" stroke-width="2" stroke-miterlimit="10" stroke-linecap="round" stroke-linejoin="round"/>
</svg>
