<svg width="294" height="199" viewBox="0 0 294 199" fill="none" xmlns="http://www.w3.org/2000/svg">
<path d="M19.7385 149.469C18.3458 149.469 16.9501 149.526 15.5872 149.642L15.3889 149.659C6.34865 150.458 -0.263862 155.094 0.00809183 160.444L0.0606668 161.411C0.0953374 162.023 0.132278 162.68 0.162683 163.409C0.179152 163.769 0.669945 164.045 1.28064 164.045H223.648C239.327 163.95 254.948 163.83 270.076 163.689C272.913 163.695 275.748 163.548 278.57 163.249C282.774 162.751 285.692 161.765 287.491 160.233H287.492C289.729 158.334 289.8 155.943 289.664 153.241C289.389 147.786 289.115 142.055 288.843 136.341C288.602 131.305 288.362 126.283 288.122 121.475C287.974 118.621 287.644 116.103 285.103 114.178C282.349 112.096 277.326 111.041 270.173 111.041C270.086 111.041 270.001 111.041 269.913 111.041C247.497 111.121 225.286 118.828 214.645 130.22C213.42 131.532 212.278 132.937 211.174 134.295C209.542 136.302 207.855 138.376 205.842 140.232C204.752 141.25 203.573 142.169 202.32 142.977C202.233 143.037 202.135 143.101 202.03 143.162C201.791 143.318 201.541 143.468 201.297 143.602C199.869 144.426 198.365 145.11 196.805 145.644L196.648 145.697C196.529 145.739 196.401 145.781 196.272 145.82C195.371 146.109 194.436 146.359 193.498 146.562C189.442 147.456 184.829 147.67 179.789 147.198C175.161 146.753 170.592 145.822 166.159 144.42C161.492 142.945 157.124 141.106 152.899 139.328C151.043 138.547 149.124 137.739 147.207 136.974C146.847 136.83 146.492 136.689 146.133 136.548C143.792 135.636 141.669 134.882 139.644 134.244C134.627 132.658 129.434 131.696 124.181 131.38C118.606 131.075 113.694 131.651 109.583 133.087C108.449 133.482 107.346 133.957 106.281 134.51C101.411 137.039 98.4097 140.77 95.5071 144.379C91.8964 148.868 88.1626 153.51 80.7899 155.917C72.2825 158.696 59.8645 157.542 51.0789 155.534C48.3167 154.902 45.5579 154.176 42.8898 153.473C41.8122 153.189 40.7339 152.907 39.6547 152.627C37.5342 152.08 35.7987 151.66 34.1931 151.306L33.6853 151.193C33.4028 151.132 33.1201 151.071 32.8322 151.012C30.9251 150.612 29.1493 150.297 27.4005 150.049L26.9867 149.988C26.1572 149.879 25.3817 149.788 24.6207 149.712L24.3169 149.682C22.8264 149.54 21.2838 149.469 19.7385 149.469Z" fill="#F2F2F2"/>
<path d="M249.68 155.439C255.937 149.801 265.244 146.966 273.05 150.127C265.042 154.573 258.865 161.709 255.611 170.271C254.369 173.577 253.331 177.384 250.274 179.155C248.372 180.256 246.005 180.31 243.873 179.778C241.74 179.246 239.785 178.18 237.857 177.125L237.309 177.113C239.771 169.058 243.423 161.078 249.68 155.439Z" fill="#E6E6E6"/>
<path d="M273.007 150.299C266.092 151.192 259.636 154.241 254.553 159.013C253.441 160.021 252.494 161.198 251.749 162.501C251.063 163.793 250.736 165.246 250.802 166.707C250.835 168.071 251.028 169.462 250.73 170.811C250.567 171.499 250.26 172.145 249.83 172.706C249.4 173.267 248.856 173.731 248.234 174.067C246.707 174.945 244.954 175.222 243.231 175.433C241.318 175.668 239.328 175.881 237.672 176.954C237.471 177.084 237.281 176.765 237.481 176.635C240.362 174.768 244.008 175.448 247.106 174.202C248.552 173.62 249.831 172.6 250.283 171.057C250.679 169.708 250.482 168.273 250.436 166.892C250.351 165.467 250.616 164.043 251.208 162.745C251.886 161.408 252.785 160.197 253.869 159.162C256.271 156.794 259.031 154.819 262.047 153.308C265.479 151.564 269.185 150.421 273.003 149.927C273.239 149.897 273.241 150.268 273.007 150.299H273.007Z" fill="white"/>
<path d="M256.1 157.381C255.415 156.419 255.094 155.246 255.194 154.07C255.295 152.893 255.81 151.791 256.648 150.96C256.818 150.792 257.087 151.049 256.916 151.217C256.135 151.99 255.655 153.016 255.563 154.112C255.472 155.207 255.775 156.299 256.418 157.19C256.558 157.384 256.238 157.573 256.1 157.381V157.381Z" fill="white"/>
<path d="M250.693 166.018C253.069 166.439 255.517 165.949 257.547 164.645C257.749 164.516 257.939 164.835 257.738 164.964C255.622 166.317 253.074 166.821 250.603 166.378C250.367 166.335 250.459 165.976 250.693 166.018Z" fill="white"/>
<path d="M265.51 152.056C265.697 152.483 265.988 152.857 266.356 153.144C266.723 153.431 267.157 153.623 267.617 153.701C267.853 153.74 267.76 154.1 267.526 154.061C267.018 153.972 266.54 153.76 266.133 153.444C265.726 153.127 265.402 152.716 265.191 152.246C265.167 152.204 265.161 152.154 265.173 152.106C265.185 152.059 265.214 152.018 265.255 151.992C265.298 151.967 265.348 151.959 265.396 151.971C265.443 151.984 265.484 152.014 265.51 152.056Z" fill="white"/>
<path d="M281.647 177.318C281.499 177.298 281.351 177.278 281.2 177.259C279.209 176.995 277.199 176.893 275.191 176.954C275.035 176.956 274.878 176.961 274.723 176.968C269.886 177.167 265.128 178.262 260.691 180.198C258.926 180.969 257.223 181.874 255.595 182.905C253.347 184.328 251.024 186.05 248.511 186.63C248.25 186.694 247.985 186.741 247.717 186.772L237.336 177.783C237.323 177.751 237.307 177.721 237.294 177.688L236.863 177.348C236.943 177.289 237.028 177.23 237.108 177.171C237.154 177.136 237.203 177.104 237.249 177.07C237.281 177.047 237.313 177.025 237.34 177.003C237.35 176.996 237.361 176.988 237.37 176.983C237.397 176.961 237.425 176.944 237.45 176.924C237.921 176.59 238.396 176.259 238.873 175.931C238.875 175.929 238.875 175.929 238.88 175.928C242.495 173.392 246.399 171.294 250.509 169.677C250.632 169.631 250.757 169.582 250.885 169.539C252.736 168.851 254.64 168.315 256.578 167.937C257.64 167.734 258.712 167.584 259.789 167.489C262.572 167.248 265.376 167.447 268.098 168.078C273.523 169.336 278.486 172.315 281.426 176.961C281.501 177.08 281.574 177.197 281.647 177.318Z" fill="#E6E6E6"/>
<path d="M281.509 177.43C275.451 173.981 268.459 172.528 261.528 173.278C260.033 173.413 258.569 173.783 257.189 174.374C255.864 174.993 254.728 175.956 253.901 177.162C253.106 178.272 252.423 179.499 251.373 180.396C250.828 180.847 250.195 181.178 249.513 181.367C248.832 181.556 248.119 181.599 247.42 181.493C245.671 181.274 244.105 180.441 242.603 179.572C240.934 178.607 239.216 177.579 237.248 177.439C237.009 177.422 237.05 177.053 237.288 177.07C240.712 177.314 243.214 180.051 246.438 180.921C247.942 181.327 249.578 181.283 250.868 180.323C251.996 179.484 252.703 178.22 253.497 177.09C254.287 175.901 255.356 174.924 256.611 174.244C257.956 173.584 259.404 173.159 260.892 172.985C264.236 172.54 267.629 172.625 270.947 173.234C274.737 173.909 278.384 175.227 281.73 177.131C281.937 177.249 281.715 177.547 281.509 177.43V177.43Z" fill="white"/>
<path d="M263.746 172.905C263.778 171.725 264.228 170.595 265.017 169.717C265.805 168.838 266.88 168.268 268.05 168.109C268.286 168.078 268.346 168.444 268.109 168.476C267.02 168.622 266.018 169.153 265.286 169.972C264.554 170.792 264.138 171.846 264.115 172.945C264.11 173.184 263.741 173.143 263.746 172.905V172.905Z" fill="white"/>
<path d="M254.229 176.547C255.873 178.314 258.122 179.396 260.528 179.578C260.767 179.596 260.726 179.965 260.488 179.947C257.985 179.753 255.647 178.622 253.94 176.78C253.778 176.604 254.068 176.372 254.229 176.547H254.229Z" fill="white"/>
<path d="M274.465 174.319C274.358 174.773 274.365 175.247 274.486 175.697C274.606 176.148 274.837 176.562 275.157 176.901C275.322 177.074 275.032 177.306 274.868 177.134C274.516 176.757 274.262 176.3 274.127 175.802C273.993 175.305 273.982 174.782 274.096 174.279C274.103 174.231 274.128 174.187 274.166 174.156C274.204 174.126 274.252 174.111 274.301 174.115C274.35 174.12 274.394 174.145 274.425 174.183C274.456 174.221 274.47 174.27 274.465 174.319Z" fill="white"/>
<path d="M85.8845 161.047C91.008 153.276 100.173 147.654 109.402 148.864C102.074 155.847 97.4525 165.197 96.3546 175.259C95.9453 179.142 95.8942 183.502 93.1173 186.246C91.3895 187.953 88.8736 188.669 86.4448 188.694C84.0158 188.718 81.6285 188.122 79.2728 187.53L78.6826 187.669C79.0759 178.369 80.761 168.818 85.8845 161.047Z" fill="#E6E6E6"/>
<path d="M109.403 149.059C102.257 151.938 96.1992 156.996 92.0911 163.514C91.1818 164.901 90.4968 166.423 90.0615 168.024C89.6878 169.597 89.7422 171.241 90.219 172.786C90.6345 174.236 91.2275 175.67 91.2835 177.195C91.3006 177.976 91.1524 178.752 90.8486 179.472C90.5448 180.192 90.0922 180.839 89.5206 181.372C88.1309 182.736 86.3338 183.52 84.5499 184.225C82.5691 185.008 80.4993 185.79 79.0267 187.398C78.8483 187.593 78.5563 187.305 78.7345 187.11C81.2965 184.312 85.3846 184.025 88.3513 181.83C89.7356 180.806 90.8197 179.359 90.8747 177.583C90.9227 176.03 90.3125 174.55 89.8791 173.086C89.3919 171.586 89.2795 169.989 89.5516 168.435C89.904 166.818 90.5292 165.272 91.4003 163.864C93.3109 160.663 95.7128 157.782 98.5183 155.327C101.705 152.507 105.35 150.254 109.296 148.663C109.54 148.565 109.646 148.962 109.403 149.059L109.403 149.059Z" fill="white"/>
<path d="M93.2904 161.337C92.2904 160.5 91.6208 159.334 91.4011 158.048C91.1814 156.762 91.4259 155.44 92.091 154.318C92.2263 154.091 92.5848 154.291 92.4493 154.518C91.828 155.562 91.6004 156.793 91.8074 157.99C92.0145 159.187 92.6426 160.271 93.5783 161.045C93.7815 161.214 93.4924 161.505 93.2904 161.337Z" fill="white"/>
<path d="M89.9116 172.079C92.5699 171.868 95.0511 170.664 96.8604 168.705C97.0395 168.51 97.3315 168.799 97.1526 168.993C95.266 171.028 92.6814 172.276 89.9146 172.489C89.6509 172.51 89.6493 172.099 89.9116 172.079H89.9116Z" fill="white"/>
<path d="M101.874 153.024C102.193 153.429 102.608 153.748 103.081 153.953C103.554 154.158 104.071 154.242 104.585 154.198C104.848 154.174 104.849 154.585 104.588 154.608C104.02 154.654 103.449 154.561 102.926 154.335C102.403 154.11 101.943 153.761 101.586 153.317C101.549 153.278 101.528 153.226 101.527 153.172C101.527 153.118 101.547 153.066 101.584 153.027C101.622 152.988 101.674 152.966 101.728 152.966C101.783 152.965 101.835 152.986 101.874 153.024H101.874Z" fill="white"/>
<path d="M126.161 175.554C125.997 175.573 125.833 175.593 125.667 175.615C123.463 175.886 121.285 176.336 119.154 176.96C118.989 177.006 118.822 177.055 118.658 177.105C113.54 178.663 108.756 181.158 104.549 184.463C102.876 185.78 101.306 187.222 99.8519 188.776C97.8439 190.924 95.8375 193.412 93.3117 194.732C93.0497 194.872 92.7793 194.996 92.502 195.104L78.8982 188.378C78.875 188.347 78.8501 188.319 78.8267 188.289L78.2712 188.045C78.3406 187.959 78.4144 187.872 78.4838 187.787C78.5239 187.737 78.5669 187.689 78.607 187.639C78.6347 187.606 78.6625 187.574 78.6856 187.543C78.6947 187.532 78.7041 187.521 78.7117 187.513C78.7348 187.482 78.7595 187.456 78.7811 187.428C79.1923 186.94 79.6077 186.454 80.0272 185.97C80.0287 185.967 80.0287 185.967 80.0333 185.965C83.2391 182.286 86.7804 178.841 90.7317 176.044C90.8507 175.96 90.971 175.873 91.0961 175.792C92.8842 174.541 94.7715 173.438 96.7393 172.495C97.8184 171.982 98.9228 171.523 100.048 171.122C102.958 170.09 106.013 169.523 109.099 169.44C115.252 169.276 121.388 171.082 125.825 175.233C125.938 175.34 126.049 175.445 126.161 175.554Z" fill="#E6E6E6"/>
<path d="M126.045 175.712C118.606 173.708 110.724 174.099 103.52 176.83C101.958 177.39 100.495 178.193 99.1837 179.209C97.9383 180.24 96.9917 181.586 96.4422 183.106C95.9014 184.514 95.5112 186.016 94.6377 187.267C94.1811 187.901 93.5956 188.432 92.9196 188.823C92.2436 189.215 91.4925 189.46 90.7154 189.541C88.7844 189.794 86.8778 189.337 85.0288 188.826C82.9759 188.259 80.8525 187.637 78.7084 188.034C78.4486 188.083 78.3891 187.677 78.6485 187.629C82.3788 186.937 85.8161 189.169 89.506 189.203C91.2278 189.219 92.9648 188.716 94.078 187.331C95.0515 186.119 95.4552 184.571 95.9905 183.141C96.5048 181.65 97.3763 180.307 98.5291 179.23C99.7845 178.151 101.214 177.293 102.758 176.693C106.21 175.287 109.863 174.434 113.581 174.162C117.822 173.83 122.09 174.225 126.198 175.331C126.452 175.399 126.297 175.78 126.045 175.712Z" fill="white"/>
<path d="M105.788 175.814C105.493 174.543 105.661 173.209 106.26 172.05C106.858 170.891 107.85 169.983 109.056 169.487C109.301 169.388 109.467 169.763 109.222 169.862C108.097 170.322 107.174 171.168 106.619 172.249C106.063 173.329 105.913 174.572 106.193 175.754C106.254 176.011 105.848 176.069 105.788 175.814H105.788Z" fill="white"/>
<path d="M96.6226 182.356C98.872 183.789 101.579 184.32 104.203 183.846C104.463 183.798 104.522 184.204 104.263 184.251C101.531 184.74 98.7155 184.181 96.378 182.686C96.1553 182.543 96.4011 182.214 96.6226 182.356V182.356Z" fill="white"/>
<path d="M117.646 174.344C117.657 174.86 117.796 175.364 118.051 175.813C118.305 176.261 118.667 176.639 119.104 176.913C119.328 177.053 119.082 177.381 118.859 177.242C118.378 176.938 117.979 176.519 117.697 176.025C117.414 175.53 117.258 174.974 117.24 174.404C117.234 174.351 117.248 174.297 117.28 174.253C117.312 174.21 117.36 174.181 117.413 174.171C117.467 174.164 117.521 174.177 117.565 174.21C117.608 174.242 117.638 174.291 117.646 174.344V174.344Z" fill="white"/>
<path d="M122.348 102.785C122.688 102.447 122.95 102.038 123.115 101.588C123.28 101.137 123.344 100.656 123.303 100.179C123.262 99.7007 123.117 99.2377 122.877 98.8222C122.638 98.4066 122.31 98.0486 121.918 97.7733L127.272 71.8589L121.495 73.6814L117.187 98.7515C116.768 99.4419 116.618 100.262 116.763 101.056C116.908 101.85 117.34 102.563 117.976 103.061C118.612 103.558 119.409 103.804 120.215 103.753C121.02 103.703 121.78 103.358 122.348 102.785Z" fill="#FFB6B6"/>
<path d="M134.725 33.5142L131.146 30.813C131.146 30.813 127.989 30.5894 127.43 36.2823C126.871 41.9753 123.371 63.8246 123.371 63.8246L117.895 89.1866L125.475 90.8504L131.34 63.4803L137.211 44.5977L134.725 33.5142Z" fill="#E6E6E6"/>
<path d="M131.999 80.4432L114.833 67.0961C114.566 66.8877 114.392 66.5817 114.35 66.2454C114.308 65.909 114.401 65.5697 114.608 65.3019L126.288 50.2812C126.496 50.0139 126.802 49.8401 127.138 49.798C127.475 49.7559 127.814 49.849 128.082 50.0567L145.248 63.4039C145.515 63.6123 145.689 63.9182 145.731 64.2545C145.773 64.5909 145.68 64.9302 145.472 65.198L133.793 80.2187C133.584 80.486 133.278 80.6598 132.942 80.7019C132.606 80.744 132.266 80.651 131.999 80.4432Z" fill="#3F3D56"/>
<path d="M131.904 79.0619L116.195 66.847C115.958 66.662 115.803 66.3904 115.766 66.0917C115.729 65.7931 115.811 65.4918 115.996 65.254L126.583 51.6371C126.768 51.3997 127.04 51.2454 127.339 51.208C127.637 51.1706 127.939 51.2533 128.176 51.4377L143.886 63.6526C144.123 63.8377 144.278 64.1093 144.315 64.4079C144.352 64.7066 144.27 65.0079 144.085 65.2457L133.497 78.8626C133.312 79.0999 133.041 79.2542 132.742 79.2916C132.444 79.329 132.142 79.2464 131.904 79.0619Z" fill="white"/>
<path d="M118.254 66.5007C118.195 66.4544 118.157 66.3865 118.147 66.3119C118.138 66.2372 118.159 66.1619 118.205 66.1024L123.546 59.2331C123.592 59.1737 123.66 59.1351 123.735 59.1257C123.772 59.1211 123.809 59.1238 123.845 59.1337C123.881 59.1436 123.915 59.1604 123.944 59.1833C123.974 59.2062 123.998 59.2346 124.017 59.267C124.035 59.2994 124.047 59.3351 124.052 59.3721C124.056 59.4091 124.053 59.4466 124.044 59.4825C124.034 59.5185 124.017 59.5521 123.994 59.5815L118.653 66.4508C118.606 66.5102 118.539 66.5488 118.464 66.5581C118.389 66.5674 118.314 66.5468 118.254 66.5007Z" fill="#E4E4E4"/>
<path d="M119.14 67.1889C119.08 67.1427 119.042 67.0748 119.032 67.0001C119.023 66.9255 119.044 66.8501 119.09 66.7907L124.431 59.9214C124.477 59.8619 124.545 59.8233 124.62 59.814C124.695 59.8046 124.77 59.8253 124.829 59.8715C124.889 59.9177 124.927 59.9856 124.937 60.0603C124.946 60.135 124.925 60.2103 124.879 60.2698L119.538 67.1391C119.492 67.1985 119.424 67.237 119.349 67.2464C119.275 67.2557 119.199 67.2351 119.14 67.1889Z" fill="#E4E4E4"/>
<path d="M123.051 63.9857C122.992 63.9394 122.953 63.8715 122.944 63.7968C122.934 63.7222 122.955 63.6469 123.001 63.5874L125.316 60.6097C125.339 60.5802 125.368 60.5555 125.4 60.537C125.432 60.5186 125.468 60.5066 125.505 60.502C125.542 60.4973 125.58 60.5 125.616 60.5099C125.652 60.5197 125.685 60.5366 125.715 60.5595C125.744 60.5824 125.769 60.6109 125.787 60.6433C125.806 60.6758 125.818 60.7115 125.822 60.7485C125.827 60.7856 125.824 60.8231 125.814 60.8591C125.804 60.8951 125.787 60.9287 125.764 60.9581L123.449 63.9358C123.403 63.9952 123.335 64.0337 123.26 64.0431C123.186 64.0524 123.11 64.0318 123.051 63.9857Z" fill="#E4E4E4"/>
<path d="M124.244 69.8289C124.185 69.7826 124.147 69.7147 124.137 69.6401C124.128 69.5654 124.149 69.4901 124.195 69.4307L132.627 58.5861C132.65 58.5567 132.678 58.5321 132.711 58.5137C132.743 58.4952 132.779 58.4834 132.816 58.4788C132.853 58.4741 132.89 58.4768 132.926 58.4867C132.962 58.4966 132.996 58.5134 133.025 58.5363C133.054 58.5592 133.079 58.5876 133.098 58.62C133.116 58.6524 133.128 58.6881 133.132 58.7251C133.137 58.7621 133.134 58.7996 133.124 58.8355C133.115 58.8715 133.098 58.9051 133.075 58.9345L124.643 69.7791C124.596 69.8384 124.529 69.877 124.454 69.8863C124.379 69.8957 124.304 69.875 124.244 69.8289Z" fill="#E4E4E4"/>
<path d="M125.13 70.5174C125.07 70.4712 125.032 70.4033 125.022 70.3286C125.013 70.2539 125.034 70.1786 125.08 70.1192L133.512 59.2746C133.535 59.2452 133.563 59.2206 133.596 59.2022C133.628 59.1837 133.664 59.1719 133.701 59.1672C133.738 59.1626 133.775 59.1653 133.811 59.1752C133.847 59.1851 133.881 59.2019 133.91 59.2248C133.94 59.2477 133.964 59.2761 133.983 59.3085C134.001 59.3409 134.013 59.3766 134.018 59.4136C134.022 59.4506 134.02 59.4881 134.01 59.5241C134 59.56 133.983 59.5936 133.96 59.623L125.528 70.4676C125.482 70.5269 125.414 70.5655 125.339 70.5748C125.265 70.5842 125.189 70.5635 125.13 70.5174Z" fill="#E4E4E4"/>
<path d="M127.139 72.0799C127.08 72.0336 127.041 71.9657 127.032 71.8911C127.023 71.8164 127.043 71.7411 127.089 71.6816L135.522 60.8371C135.544 60.8077 135.573 60.7831 135.605 60.7646C135.638 60.7462 135.673 60.7344 135.71 60.7297C135.747 60.7251 135.785 60.7278 135.821 60.7377C135.857 60.7476 135.89 60.7644 135.92 60.7873C135.949 60.8102 135.974 60.8386 135.992 60.871C136.011 60.9034 136.023 60.9391 136.027 60.9761C136.032 61.0131 136.029 61.0506 136.019 61.0865C136.009 61.1225 135.993 61.1561 135.97 61.1855L127.537 72.03C127.491 72.0894 127.423 72.128 127.349 72.1373C127.274 72.1466 127.199 72.126 127.139 72.0799Z" fill="#E4E4E4"/>
<path d="M128.025 72.7681C127.965 72.7219 127.927 72.654 127.917 72.5793C127.908 72.5047 127.929 72.4293 127.975 72.3699L136.407 61.5254C136.43 61.4959 136.458 61.4713 136.491 61.4529C136.523 61.4345 136.559 61.4226 136.596 61.418C136.633 61.4133 136.67 61.416 136.706 61.4259C136.742 61.4358 136.776 61.4527 136.805 61.4755C136.835 61.4984 136.859 61.5269 136.878 61.5593C136.896 61.5916 136.908 61.6273 136.913 61.6643C136.917 61.7013 136.914 61.7388 136.905 61.7748C136.895 61.8107 136.878 61.8444 136.855 61.8738L128.423 72.7183C128.377 72.7776 128.309 72.8162 128.234 72.8256C128.159 72.8349 128.084 72.8143 128.025 72.7681Z" fill="#E4E4E4"/>
<path d="M130.034 74.3306C129.975 74.2844 129.936 74.2165 129.927 74.1418C129.917 74.0671 129.938 73.9918 129.984 73.9324L138.416 63.0879C138.439 63.0584 138.468 63.0338 138.5 63.0154C138.532 62.997 138.568 62.9851 138.605 62.9805C138.642 62.9758 138.68 62.9785 138.716 62.9884C138.752 62.9983 138.785 63.0152 138.815 63.038C138.844 63.0609 138.869 63.0893 138.887 63.1217C138.905 63.1541 138.917 63.1898 138.922 63.2268C138.927 63.2638 138.924 63.3013 138.914 63.3373C138.904 63.3732 138.887 63.4068 138.864 63.4363L130.432 74.2808C130.386 74.3401 130.318 74.3787 130.243 74.388C130.169 74.3974 130.093 74.3767 130.034 74.3306Z" fill="#E4E4E4"/>
<path d="M130.919 75.0191C130.86 74.9729 130.821 74.9049 130.812 74.8303C130.803 74.7556 130.823 74.6803 130.869 74.6208L139.302 63.7764C139.348 63.7172 139.416 63.6788 139.49 63.6696C139.565 63.6604 139.64 63.6811 139.699 63.7272C139.759 63.7733 139.797 63.8411 139.807 63.9156C139.816 63.9901 139.796 64.0653 139.75 64.1248L131.318 74.9693C131.271 75.0286 131.203 75.0672 131.129 75.0765C131.054 75.0859 130.979 75.0652 130.919 75.0191Z" fill="#E4E4E4"/>
<path d="M116.826 87.6132C116.891 87.6132 116.943 87.561 116.943 87.4966C116.943 87.4323 116.891 87.3801 116.826 87.3801C116.762 87.3801 116.71 87.4323 116.71 87.4966C116.71 87.561 116.762 87.6132 116.826 87.6132Z" fill="white"/>
<path d="M133.805 7.32544C133.395 9.52739 132.723 11.6723 131.803 13.7145C126.536 24.858 141.537 21.2258 146.898 21.2258C152.759 21.2258 158.367 24.3079 157.511 10.6129C157.145 4.76298 152.759 0 146.898 0C141.891 0 134.852 2.22531 133.805 7.32544Z" fill="#2F2E41"/>
<path d="M152.361 170.76H147.367L144.991 151.498H152.361V170.76Z" fill="#FFB6B6"/>
<path d="M154.997 179.413H151.416L150.776 176.032L149.139 179.413H139.641C139.185 179.413 138.742 179.267 138.375 178.998C138.009 178.728 137.738 178.348 137.602 177.913C137.467 177.478 137.474 177.012 137.622 176.581C137.771 176.151 138.053 175.779 138.427 175.521L146.013 170.282V166.864L153.991 167.34L154.997 179.413Z" fill="#2F2E41"/>
<path d="M182.03 164.458L178.022 167.438L164.622 153.399L170.536 149.001L182.03 164.458Z" fill="#FFB6B6"/>
<path d="M189.308 169.828L186.434 171.965L183.904 169.634L184.608 173.324L176.986 178.992C176.62 179.263 176.178 179.411 175.722 179.413C175.267 179.416 174.823 179.272 174.455 179.005C174.087 178.737 173.814 178.358 173.676 177.924C173.538 177.49 173.543 177.023 173.689 176.592L176.65 167.862L174.61 165.119L181.297 160.741L189.308 169.828Z" fill="#2F2E41"/>
<path d="M136.006 82.1102L159.711 78.418L154.997 64.2358H136.006V82.1102Z" fill="#FFB6B6"/>
<path d="M158.175 71.3787C158.175 71.3787 167.65 79.5647 163.279 102.901L157.942 125.767L172.483 151.012L165.089 155.045L147.169 130.14L138.97 110.906L134.632 77.1956L158.175 71.3787Z" fill="#2F2E41"/>
<path d="M143.489 116.387L142.919 125.213L144.588 151.349L152.87 154.2L154.439 127.422L143.489 116.387Z" fill="#2F2E41"/>
<path d="M140.943 24.1631L150.106 24.5206L153.758 30.5827L162.09 32.2093L157.116 57.3731L158.031 71.696L149.734 71.6454C143.755 71.6089 137.973 73.7812 133.497 77.7455L133.745 59.1533L130.176 45.2744L130.978 30.7215L137.681 29.8836L140.943 24.1631Z" fill="#E6E6E6"/>
<path d="M146.019 21.2232C150.782 21.2232 154.644 17.362 154.644 12.599C154.644 7.83603 150.782 3.97485 146.019 3.97485C141.256 3.97485 137.395 7.83603 137.395 12.599C137.395 17.362 141.256 21.2232 146.019 21.2232Z" fill="#FFB6B6"/>
<path d="M140.163 3.80787C141.674 2.88657 143.405 2.3882 145.175 2.36487C146.945 2.34154 148.688 2.79411 150.223 3.67524C151.758 4.55638 153.028 5.83372 153.9 7.37371C154.773 8.91371 155.215 10.6598 155.182 12.4294C150.788 13.5327 146.171 14.377 141.485 12.6933L140.378 9.98467L139.725 12.6953C138.298 13.2786 136.867 13.7722 135.436 12.6897C135.378 10.925 135.784 9.17602 136.613 7.6174C137.443 6.05878 138.667 4.74516 140.163 3.80787Z" fill="#2F2E41"/>
<path d="M160.495 89.0834L161.658 99.634C161.739 99.8973 161.902 100.128 162.124 100.291C162.345 100.455 162.613 100.543 162.889 100.543H168.248C168.523 100.543 168.791 100.455 169.013 100.291C169.235 100.128 169.398 99.8973 169.479 99.634L170.442 91.5475C170.72 91.6838 171.026 91.7521 171.335 91.747C171.645 91.7418 171.949 91.6632 172.222 91.5177C172.495 91.3722 172.73 91.1639 172.907 90.91C173.084 90.656 173.198 90.3637 173.24 90.057C173.282 89.7504 173.251 89.4381 173.149 89.1459C173.047 88.8537 172.877 88.5899 172.653 88.3762C172.429 88.1626 172.157 88.0051 171.86 87.9169C171.564 87.8286 171.25 87.812 170.946 87.8684C170.826 87.7265 170.676 87.6126 170.507 87.5345C170.339 87.4565 170.155 87.4163 169.969 87.4168H161.726C161.525 87.4168 161.326 87.4641 161.146 87.5549C160.966 87.6457 160.81 87.7774 160.69 87.9395C160.571 88.1017 160.491 88.2896 160.457 88.4883C160.423 88.687 160.436 88.8908 160.495 89.0834ZM170.61 91.0007L171.2 89.0834C171.268 88.8622 171.275 88.6265 171.219 88.4018C171.245 88.4004 171.268 88.3942 171.294 88.3942C171.664 88.3942 172.019 88.5414 172.281 88.8032C172.543 89.0651 172.69 89.4203 172.69 89.7907C172.69 90.161 172.543 90.5162 172.281 90.7781C172.019 91.04 171.664 91.1871 171.294 91.1871C171.053 91.1856 170.818 91.1213 170.61 91.0007Z" fill="#F95959"/>
<path d="M168.576 100.551C168.238 100.211 167.978 99.8007 167.816 99.3495C167.653 98.8984 167.591 98.4171 167.635 97.9395C167.678 97.4619 167.826 96.9997 168.067 96.5854C168.309 96.171 168.638 95.8147 169.032 95.5414L163.81 69.6001L169.577 71.4519L173.758 96.5437C174.173 97.2361 174.32 98.0568 174.17 98.8502C174.021 99.6436 173.585 100.355 172.947 100.849C172.308 101.342 171.51 101.585 170.705 101.53C169.899 101.475 169.142 101.127 168.576 100.551Z" fill="#FFB6B6"/>
<path d="M158.512 34.9107L162.091 32.2094C162.091 32.2094 165.247 31.9859 165.806 37.6788C166.366 43.3718 169.866 65.2211 169.866 65.2211L175.342 90.5831L167.762 92.2469L161.897 64.8768L156.026 45.9942L158.512 34.9107Z" fill="#E6E6E6"/>
<path d="M127.627 58.525C128.746 58.525 129.653 57.6181 129.653 56.4993C129.653 55.3806 128.746 54.4736 127.627 54.4736C126.508 54.4736 125.601 55.3806 125.601 56.4993C125.601 57.6181 126.508 58.525 127.627 58.525Z" fill="#F95959"/>
<path d="M63.0312 194.26L67.2528 194.259L69.2612 177.976L63.0305 177.977L63.0312 194.26Z" fill="#FFB6B6"/>
<path d="M61.9543 192.881L63.1426 192.881L67.7817 190.995L70.2681 192.881H70.2684C71.6736 192.881 73.0211 193.439 74.0147 194.433C75.0083 195.426 75.5665 196.774 75.5666 198.179V198.351L61.9546 198.352L61.9543 192.881Z" fill="#2F2E41"/>
<path d="M79.3906 191.599L83.5087 192.529L89.0544 177.088L82.9767 175.716L79.3906 191.599Z" fill="#FFB6B6"/>
<path d="M78.6437 190.018L79.8028 190.279L84.7435 189.461L86.7533 191.849L86.7537 191.849C88.1243 192.158 89.3158 193 90.0661 194.188C90.8164 195.376 91.0641 196.813 90.7547 198.184L90.7167 198.352L77.439 195.354L78.6437 190.018Z" fill="#2F2E41"/>
<path d="M55.303 110.502L59.1204 153.272C59.1204 153.272 57.6901 178.949 62.3056 187.985H68.9993L72.3135 150.927L72.7297 126.053L87.0803 147.038L77.9399 187.379L86.1783 188.115L101.011 144.336L84.7155 103.238L55.303 110.502Z" fill="#2F2E41"/>
<path d="M59.301 42.3911C64.7382 42.3911 69.146 37.9834 69.146 32.5461C69.146 27.1089 64.7382 22.7012 59.301 22.7012C53.8638 22.7012 49.4561 27.1089 49.4561 32.5461C49.4561 37.9834 53.8638 42.3911 59.301 42.3911Z" fill="#FFB8B8"/>
<path d="M76.6077 51.7728L68.531 48.3073L64.5992 44.137L54.7771 45.7211L52.171 50.1894L43.7349 58.0338L53.6188 102.724L53.3196 112.485C53.3196 112.485 59.6456 115.333 87.0803 108.776C87.4092 108.697 86.7206 108.353 86.7206 108.353L76.6077 51.7728Z" fill="#3F3D56"/>
<path d="M49.0636 38.1323C48.995 38.0387 48.927 37.9443 48.8598 37.8491C48.8327 37.9063 48.8112 37.9653 48.7803 38.0212L49.0636 38.1323Z" fill="#2F2E41"/>
<path d="M69.0941 25.3448C68.436 23.9112 67.2627 22.7776 65.8072 22.1694C64.3646 21.5876 62.7524 21.589 61.3108 22.1734C60.0093 21.3511 58.5632 20.6991 57.0402 20.6184C55.5172 20.5377 53.907 21.1027 52.9685 22.3464C52.7589 22.6747 52.5208 22.984 52.2571 23.2706C51.5027 23.9692 50.3562 23.8684 49.3534 23.7256C49.8032 24.1111 50.253 24.4965 50.703 24.882C50.1586 25.0242 49.6141 25.1665 49.0696 25.3087C49.705 25.694 50.3403 26.0794 50.9756 26.4647C49.1311 27.5718 48.2928 29.9881 48.5143 32.1826C48.7238 34.2604 49.7269 36.1603 50.926 37.849C51.4043 36.8395 51.3013 35.6317 51.2934 34.4948C51.2851 33.2935 51.4976 31.9294 52.4602 31.2581C53.1095 30.8052 53.9445 30.785 54.7275 30.7893C58.6771 30.8109 62.6223 31.0572 66.544 31.527C67.0762 31.55 67.595 31.7005 68.0569 31.9658C68.9241 32.5574 69.0931 33.7784 69.1802 34.8496C69.6384 33.0809 69.8626 31.2598 69.8472 29.4328C69.8858 28.0324 69.6292 26.6395 69.0941 25.3448Z" fill="#2F2E41"/>
<path d="M72.1591 140.484C80.7169 140.484 87.6544 133.547 87.6544 124.989C87.6544 116.431 80.7169 109.493 72.1591 109.493C63.6013 109.493 56.6638 116.431 56.6638 124.989C56.6638 133.547 63.6013 140.484 72.1591 140.484Z" fill="white"/>
<path d="M72.1592 109.149C71.3627 109.149 70.5673 109.209 69.7798 109.328C69.3769 109.387 68.9845 109.462 68.5953 109.555C65.7367 110.214 63.1173 111.654 61.0296 113.715C58.9418 115.776 57.4676 118.376 56.7716 121.226C56.0756 124.076 56.1851 127.063 57.0879 129.854C57.9906 132.646 59.6511 135.131 61.8842 137.034C62.1493 137.257 62.4178 137.474 62.6968 137.681C64.707 139.18 67.0445 140.18 69.5168 140.599C71.9891 141.018 74.5255 140.844 76.9173 140.091C79.3092 139.338 81.488 138.028 83.2746 136.268C85.0612 134.509 86.4045 132.35 87.1938 129.97C87.9831 127.59 88.196 125.057 87.8149 122.578C87.4337 120.1 86.4695 117.747 85.0016 115.714C83.5336 113.681 81.6039 112.026 79.3712 110.885C77.1386 109.743 74.6668 109.148 72.1592 109.149V109.149ZM72.1592 140.14C68.9376 140.143 65.7998 139.114 63.2064 137.202C62.9241 136.996 62.652 136.782 62.3869 136.555C60.2113 134.72 58.597 132.308 57.7292 129.598C56.8614 126.887 56.7752 123.986 57.4805 121.229C58.1858 118.471 59.654 115.968 61.7168 114.007C63.7795 112.046 66.3533 110.706 69.1429 110.141C69.5284 110.061 69.9141 109.999 70.3067 109.951C70.9213 109.875 71.54 109.837 72.1592 109.838C76.1775 109.838 80.0312 111.434 82.8726 114.275C85.7139 117.117 87.3102 120.97 87.3102 124.989C87.3102 129.007 85.7139 132.861 82.8726 135.702C80.0312 138.543 76.1775 140.14 72.1592 140.14Z" fill="#3F3D56"/>
<path d="M64.5588 121.89H79.7593C80.3162 121.89 80.7676 121.438 80.7676 120.881V120.832C80.7676 120.275 80.3162 119.824 79.7593 119.824H64.5588C64.002 119.824 63.5506 120.275 63.5506 120.832V120.881C63.5506 121.438 64.002 121.89 64.5588 121.89Z" fill="#F95959"/>
<path d="M64.5588 126.022H79.7593C80.3162 126.022 80.7676 125.57 80.7676 125.013V124.964C80.7676 124.407 80.3162 123.956 79.7593 123.956H64.5588C64.002 123.956 63.5506 124.407 63.5506 124.964V125.013C63.5506 125.57 64.002 126.022 64.5588 126.022Z" fill="#F95959"/>
<path d="M64.5588 130.154H79.7593C80.3162 130.154 80.7676 129.702 80.7676 129.146V129.096C80.7676 128.539 80.3162 128.088 79.7593 128.088H64.5588C64.002 128.088 63.5506 128.539 63.5506 129.096V129.146C63.5506 129.702 64.002 130.154 64.5588 130.154Z" fill="#F95959"/>
<path d="M245.517 193.734L241.091 193.734L238.985 176.66L245.518 176.66L245.517 193.734Z" fill="#9E616A"/>
<path d="M224.576 193.734L220.149 193.734L218.043 176.66L224.577 176.66L224.576 193.734Z" fill="#9E616A"/>
<path d="M224.732 198.352L211.12 198.351V198.179C211.12 196.774 211.678 195.426 212.672 194.433C213.665 193.439 215.013 192.881 216.418 192.881H216.418L218.905 190.995L223.544 192.881L224.732 192.881L224.732 198.352Z" fill="#2F2E41"/>
<path d="M246.241 198.352L232.629 198.351V198.179C232.629 196.774 233.187 195.426 234.181 194.433C235.175 193.439 236.522 192.881 237.927 192.881H237.928L240.414 190.995L245.053 192.881L246.241 192.881L246.241 198.352Z" fill="#2F2E41"/>
<path d="M220.234 92.6852L213.506 133.649L215.337 139.753L212.935 144.076L216.463 182.044L215.031 185.197L219.032 187.665H227.174L227.606 153.292L229.617 148.246V145.464L233.712 124.505L234.465 153.857L235.656 158.912L234.656 162.511L235.963 165.032L239.435 188.414H248.565L247.859 182.974C248.654 182.571 249.293 181.916 249.675 181.11C250.057 180.305 250.161 179.396 249.97 178.525L249.446 176.141L250.638 169.091L252.807 129.761L252.196 98.0264L241.515 89.8594L220.234 92.6852Z" fill="#2F2E41"/>
<path d="M235.656 40.0832C240.341 40.0832 244.139 36.2855 244.139 31.6008C244.139 26.9161 240.341 23.1184 235.656 23.1184C230.972 23.1184 227.174 26.9161 227.174 31.6008C227.174 36.2855 230.972 40.0832 235.656 40.0832Z" fill="#9E616A"/>
<path d="M217.123 108.941C217.492 108.559 217.773 108.102 217.946 107.6C218.12 107.098 218.181 106.565 218.125 106.037C218.07 105.509 217.899 104.999 217.626 104.545C217.352 104.09 216.982 103.7 216.542 103.404L219.84 90.9302L213.485 93.0677L211.327 104.585C210.878 105.358 210.728 106.269 210.906 107.144C211.084 108.02 211.576 108.801 212.291 109.337C213.005 109.874 213.892 110.13 214.782 110.057C215.673 109.984 216.506 109.587 217.123 108.941H217.123Z" fill="#9E616A"/>
<path d="M220.595 49.0521L219.231 48.769L218.067 49.4132C218.067 49.4132 214.818 53.7459 214.818 57.7176C214.818 61.6893 210.846 99.9619 210.846 99.9619L218.067 103.211L223.844 73.2433L220.595 49.0521Z" fill="#E6E6E6"/>
<path d="M243.085 25.3817C243.085 25.3817 245.303 21.1405 240.422 20.7549C240.422 20.7549 236.261 16.9804 232.02 20.0649C232.02 20.0649 229.707 20.0649 228.442 22.6827C228.442 22.6827 226.622 21.9927 226.222 23.8394C226.222 23.8394 224.891 27.6951 226.222 31.1651C227.554 34.6352 227.996 35.0208 227.996 35.0208C227.996 35.0208 225.808 27.7456 231.133 27.36C236.458 26.9744 242.417 23.6466 242.861 27.8878C243.305 32.129 243.973 33.174 243.973 33.174C243.973 33.174 248.187 27.1167 243.085 25.3817Z" fill="#2F2E41"/>
<path d="M274.071 144.076C273.43 144.077 272.812 143.842 272.335 143.414L246.665 120.564C246.148 120.102 245.834 119.454 245.794 118.762C245.754 118.07 245.99 117.39 246.45 116.872L262.895 98.3979C263.357 97.8805 264.004 97.5674 264.697 97.5271C265.389 97.4869 266.069 97.7229 266.587 98.1833L292.258 121.034C292.776 121.496 293.089 122.143 293.129 122.836C293.17 123.528 292.933 124.208 292.472 124.726L276.027 143.2C275.8 143.457 275.523 143.667 275.214 143.816C274.905 143.966 274.569 144.053 274.226 144.072C274.174 144.075 274.122 144.076 274.071 144.076Z" fill="white"/>
<path d="M274.07 144.245C273.389 144.246 272.731 143.995 272.223 143.54L246.553 120.689C246.002 120.198 245.669 119.508 245.626 118.772C245.583 118.035 245.835 117.312 246.325 116.76L262.769 98.2861C263.261 97.7357 263.95 97.4025 264.687 97.3597C265.423 97.3169 266.147 97.5679 266.698 98.0576L292.369 120.909C292.92 121.4 293.254 122.089 293.297 122.826C293.34 123.563 293.088 124.287 292.597 124.838L276.152 143.312C275.91 143.586 275.616 143.809 275.287 143.968C274.958 144.127 274.6 144.22 274.235 144.24C274.18 144.243 274.125 144.245 274.07 144.245ZM264.849 98.0266C264.551 98.026 264.256 98.0887 263.984 98.2105C263.712 98.3322 263.469 98.5104 263.271 98.7331L246.827 117.207C246.455 117.625 246.265 118.174 246.297 118.733C246.329 119.292 246.582 119.815 247 120.187L272.67 143.038C272.877 143.222 273.119 143.364 273.381 143.455C273.642 143.546 273.919 143.585 274.196 143.569C274.473 143.553 274.744 143.482 274.993 143.361C275.243 143.241 275.466 143.072 275.65 142.865L292.095 124.391C292.467 123.973 292.658 123.424 292.626 122.865C292.593 122.306 292.34 121.783 291.922 121.411L266.251 98.5598C265.865 98.2157 265.366 98.0258 264.849 98.0266H264.849Z" fill="#3F3D56"/>
<path d="M283.379 126.581C283.102 126.581 282.834 126.479 282.627 126.295L262.477 108.357C262.365 108.259 262.274 108.139 262.209 108.005C262.144 107.871 262.106 107.726 262.097 107.577C262.088 107.429 262.109 107.28 262.157 107.139C262.206 106.998 262.282 106.869 262.381 106.758C262.48 106.646 262.6 106.556 262.734 106.491C262.868 106.426 263.014 106.389 263.163 106.38C263.311 106.372 263.46 106.393 263.601 106.442C263.741 106.491 263.871 106.568 263.982 106.667L284.132 124.604C284.303 124.757 284.424 124.958 284.479 125.181C284.533 125.404 284.519 125.638 284.437 125.852C284.355 126.067 284.211 126.251 284.022 126.381C283.833 126.511 283.608 126.581 283.379 126.581Z" fill="#F95959"/>
<path d="M279.536 130.898C279.258 130.899 278.991 130.797 278.784 130.612L258.633 112.675C258.522 112.576 258.432 112.457 258.367 112.323C258.303 112.189 258.265 112.044 258.256 111.896C258.248 111.747 258.268 111.599 258.317 111.458C258.366 111.318 258.442 111.189 258.541 111.078C258.64 110.967 258.759 110.876 258.893 110.812C259.027 110.747 259.172 110.709 259.32 110.701C259.469 110.692 259.617 110.713 259.757 110.762C259.898 110.81 260.027 110.886 260.138 110.985L280.289 128.922C280.46 129.075 280.581 129.276 280.636 129.499C280.69 129.722 280.675 129.956 280.594 130.17C280.512 130.384 280.367 130.569 280.178 130.699C279.989 130.829 279.765 130.899 279.536 130.898H279.536Z" fill="#F95959"/>
<path d="M275.692 135.216C275.415 135.217 275.147 135.115 274.94 134.93L254.789 116.993C254.678 116.894 254.588 116.775 254.523 116.641C254.458 116.507 254.42 116.362 254.411 116.213C254.403 116.065 254.423 115.916 254.472 115.776C254.521 115.635 254.597 115.506 254.696 115.395C254.795 115.284 254.915 115.193 255.048 115.128C255.182 115.064 255.328 115.026 255.476 115.017C255.624 115.009 255.773 115.03 255.914 115.079C256.054 115.128 256.183 115.204 256.294 115.303L276.445 133.24C276.616 133.393 276.737 133.594 276.792 133.816C276.846 134.039 276.832 134.273 276.75 134.488C276.668 134.702 276.523 134.887 276.334 135.017C276.145 135.147 275.921 135.216 275.692 135.216H275.692Z" fill="#F95959"/>
<path d="M252.648 109.677C252.39 109.214 252.236 108.699 252.198 108.17C252.159 107.64 252.238 107.109 252.427 106.613C252.617 106.117 252.912 105.669 253.294 105.3C253.675 104.93 254.133 104.649 254.635 104.476L254.656 91.5737L260.247 95.2743L259.37 106.959C259.605 107.822 259.515 108.74 259.118 109.541C258.721 110.341 258.045 110.969 257.216 111.304C256.388 111.639 255.465 111.658 254.623 111.358C253.781 111.059 253.079 110.46 252.648 109.677H252.648Z" fill="#9E616A"/>
<path d="M253.165 52.5878L255.663 50.1802L257.498 51.5045C257.498 51.5045 259.303 53.6709 260.747 60.17C262.192 66.6692 260.747 102.414 260.747 102.414L252.804 101.331L253.887 82.5559L250.638 66.6692L253.165 52.5878Z" fill="#E6E6E6"/>
<path d="M256.854 50.7675L248.438 46.7477L242.725 41.4483L232.306 41.3704L228.945 45.7395L220.073 48.7534L221.551 79.3481L220.543 81.7007C220.543 81.7007 221.245 82.3352 221.566 82.6901C221.887 83.045 221.123 86.0162 221.123 86.0162L220.692 89.2487L221.887 90.1028L220.333 91.9385L219.948 94.8321C219.948 94.8321 247.075 88.0897 252.2 99.2592C252.471 99.8493 251.804 94.0818 251.804 94.0818L251.137 89.8596L251.799 86.0698L252.807 85.0616L251.116 83.3705L252.2 75.3468L256.854 50.7675Z" fill="#3F3D56"/>
<path d="M66.0106 118.593C66.2194 118.063 66.3094 117.493 66.2743 116.925C66.2392 116.356 66.0798 115.801 65.8073 115.301C65.5349 114.8 65.1559 114.366 64.6973 114.027C64.2386 113.689 63.7113 113.455 63.1526 113.343L61.2832 99.616L55.863 104.354L58.4692 116.663C58.3425 117.614 58.5691 118.579 59.106 119.374C59.6429 120.169 60.4529 120.74 61.3825 120.978C62.3121 121.216 63.2966 121.104 64.1496 120.665C65.0026 120.225 65.6647 119.488 66.0106 118.593V118.593Z" fill="#FFB8B8"/>
<path d="M44.7748 57.7827L43.3057 58.0641L42.4176 59.1822C42.4176 59.1822 40.981 64.8171 42.6175 68.7551C44.2541 72.693 56.0866 112.277 56.0866 112.277L64.5855 112.524L57.9649 80.4295L44.7748 57.7827Z" fill="#3F3D56"/>
<path d="M78.28 116.58C77.8884 116.166 77.5925 115.671 77.413 115.13C77.2335 114.589 77.1748 114.015 77.2409 113.449C77.3071 112.883 77.4966 112.338 77.7961 111.853C78.0956 111.368 78.4977 110.955 78.9742 110.642L75.5906 97.2083L82.3865 99.5836L84.5578 111.977C85.03 112.812 85.1794 113.792 84.9777 114.73C84.776 115.668 84.2372 116.499 83.4633 117.067C82.6895 117.634 81.7345 117.898 80.7791 117.808C79.8238 117.718 78.9346 117.281 78.28 116.58Z" fill="#FFB8B8"/>
<path d="M75.3108 52.2364L76.779 51.9497L78.0198 52.656C78.0198 52.656 81.4539 57.349 81.4036 61.6131C81.3534 65.8773 85.1333 107.019 85.1333 107.019L77.3392 110.416L71.5159 78.168L75.3108 52.2364Z" fill="#3F3D56"/>
</svg>
