<svg width="69" height="15" viewBox="0 0 69 15" fill="none" xmlns="http://www.w3.org/2000/svg">
<path d="M8.97772 8.54377C8.97772 9.11377 8.82772 9.60377 8.52772 10.0138C8.23772 10.4238 7.84272 10.7388 7.34272 10.9588C6.84272 11.1788 6.29272 11.2888 5.69272 11.2888H0.607715V0.638772H6.09771C6.59772 0.638772 7.02772 0.773772 7.38771 1.04377C7.75771 1.30377 8.03771 1.64377 8.22771 2.06377C8.42772 2.47377 8.52772 2.90377 8.52772 3.35377C8.52772 3.87377 8.39272 4.36377 8.12272 4.82377C7.86272 5.27377 7.48772 5.60877 6.99772 5.82877C7.60772 6.00877 8.08772 6.33877 8.43772 6.81877C8.79772 7.28877 8.97772 7.86377 8.97772 8.54377ZM7.25271 8.22877C7.25271 7.92877 7.18772 7.65877 7.05772 7.41877C6.93772 7.16877 6.76772 6.96877 6.54772 6.81877C6.33772 6.65877 6.08772 6.57877 5.79772 6.57877H2.28771V9.83377H5.69272C5.99272 9.83377 6.25772 9.76377 6.48772 9.62377C6.72772 9.47377 6.91272 9.27877 7.04271 9.03877C7.18271 8.78877 7.25271 8.51877 7.25271 8.22877ZM2.28771 2.09377V5.22877H5.37772C5.65772 5.22877 5.90772 5.16377 6.12772 5.03377C6.34772 4.89377 6.52272 4.70877 6.65271 4.47877C6.78272 4.23877 6.84772 3.96877 6.84772 3.66877C6.84772 3.35877 6.78772 3.08877 6.66772 2.85877C6.54772 2.61877 6.38272 2.43377 6.17272 2.30377C5.97272 2.16377 5.73772 2.09377 5.46772 2.09377H2.28771ZM10.5198 11.2888V3.44377H12.1698V11.2888H10.5198ZM10.5198 2.15377V0.338772H12.1698V2.15377H10.5198ZM17.2576 11.3638C16.7276 11.3638 16.2426 11.2588 15.8026 11.0488C15.3626 10.8288 14.9826 10.5338 14.6626 10.1638C14.3526 9.79377 14.1076 9.36877 13.9276 8.88877C13.7576 8.40877 13.6726 7.90377 13.6726 7.37377C13.6726 6.81377 13.7626 6.28877 13.9426 5.79877C14.1226 5.30877 14.3726 4.87877 14.6926 4.50877C15.0226 4.12877 15.4076 3.83377 15.8476 3.62377C16.2876 3.41377 16.7776 3.30877 17.3176 3.30877C17.9476 3.30877 18.4976 3.45877 18.9676 3.75877C19.4476 4.05877 19.8426 4.44877 20.1526 4.92877V3.44377H21.6076V11.0638C21.6076 11.8238 21.4226 12.4688 21.0526 12.9988C20.6926 13.5288 20.1976 13.9338 19.5676 14.2138C18.9376 14.4938 18.2276 14.6338 17.4376 14.6338C16.5676 14.6338 15.8476 14.4838 15.2776 14.1838C14.7076 13.8838 14.2226 13.4738 13.8226 12.9538L14.7526 12.0838C15.0526 12.5038 15.4376 12.8238 15.9076 13.0438C16.3876 13.2638 16.8976 13.3738 17.4376 13.3738C17.8876 13.3738 18.3026 13.2888 18.6826 13.1188C19.0726 12.9588 19.3826 12.7038 19.6126 12.3538C19.8426 12.0138 19.9576 11.5838 19.9576 11.0638V9.86377C19.6776 10.3338 19.2926 10.7038 18.8026 10.9738C18.3126 11.2338 17.7976 11.3638 17.2576 11.3638ZM17.7976 10.0288C18.0476 10.0288 18.2876 9.98877 18.5176 9.90877C18.7476 9.81877 18.9576 9.70377 19.1476 9.56377C19.3476 9.41377 19.5176 9.24877 19.6576 9.06877C19.7976 8.87877 19.8976 8.67877 19.9576 8.46877V6.41377C19.8276 6.07377 19.6426 5.77877 19.4026 5.52877C19.1626 5.26877 18.8926 5.06877 18.5926 4.92877C18.2926 4.78877 17.9876 4.71877 17.6776 4.71877C17.3176 4.71877 16.9926 4.79877 16.7026 4.95877C16.4226 5.10877 16.1826 5.31377 15.9826 5.57377C15.7826 5.82377 15.6276 6.10877 15.5176 6.42877C15.4076 6.74877 15.3526 7.07877 15.3526 7.41877C15.3526 7.77877 15.4126 8.11377 15.5326 8.42377C15.6626 8.73377 15.8376 9.01377 16.0576 9.26377C16.2776 9.50377 16.5376 9.69377 16.8376 9.83377C17.1376 9.96377 17.4576 10.0288 17.7976 10.0288ZM32.1662 8.54377C32.1662 9.11377 32.0162 9.60377 31.7162 10.0138C31.4262 10.4238 31.0312 10.7388 30.5312 10.9588C30.0312 11.1788 29.4812 11.2888 28.8812 11.2888H23.7962V0.638772H29.2862C29.7862 0.638772 30.2162 0.773772 30.5762 1.04377C30.9462 1.30377 31.2262 1.64377 31.4162 2.06377C31.6162 2.47377 31.7162 2.90377 31.7162 3.35377C31.7162 3.87377 31.5812 4.36377 31.3112 4.82377C31.0512 5.27377 30.6762 5.60877 30.1862 5.82877C30.7962 6.00877 31.2762 6.33877 31.6262 6.81877C31.9862 7.28877 32.1662 7.86377 32.1662 8.54377ZM30.4412 8.22877C30.4412 7.92877 30.3762 7.65877 30.2462 7.41877C30.1262 7.16877 29.9562 6.96877 29.7362 6.81877C29.5262 6.65877 29.2762 6.57877 28.9862 6.57877H25.4762V9.83377H28.8812C29.1812 9.83377 29.4462 9.76377 29.6762 9.62377C29.9162 9.47377 30.1012 9.27877 30.2312 9.03877C30.3712 8.78877 30.4412 8.51877 30.4412 8.22877ZM25.4762 2.09377V5.22877H28.5662C28.8462 5.22877 29.0962 5.16377 29.3162 5.03377C29.5362 4.89377 29.7112 4.70877 29.8412 4.47877C29.9712 4.23877 30.0362 3.96877 30.0362 3.66877C30.0362 3.35877 29.9762 3.08877 29.8562 2.85877C29.7362 2.61877 29.5712 2.43377 29.3612 2.30377C29.1612 2.16377 28.9262 2.09377 28.6562 2.09377H25.4762ZM33.1383 8.99377C33.1383 8.49377 33.2783 8.05877 33.5583 7.68877C33.8483 7.30877 34.2433 7.01877 34.7433 6.81877C35.2433 6.60877 35.8233 6.50377 36.4833 6.50377C36.8333 6.50377 37.1883 6.52877 37.5483 6.57877C37.9183 6.62877 38.2433 6.70877 38.5233 6.81877V6.32377C38.5233 5.77377 38.3583 5.34377 38.0283 5.03377C37.6983 4.72377 37.2233 4.56877 36.6033 4.56877C36.1633 4.56877 35.7483 4.64877 35.3583 4.80877C34.9683 4.95877 34.5533 5.17377 34.1133 5.45377L33.5583 4.34377C34.0783 3.99377 34.5983 3.73377 35.1183 3.56377C35.6483 3.39377 36.2033 3.30877 36.7833 3.30877C37.8333 3.30877 38.6583 3.58877 39.2583 4.14877C39.8683 4.69877 40.1733 5.48377 40.1733 6.50377V9.42877C40.1733 9.61877 40.2033 9.75377 40.2633 9.83377C40.3333 9.91377 40.4483 9.95877 40.6083 9.96877V11.2888C40.4583 11.3188 40.3233 11.3388 40.2033 11.3488C40.0833 11.3588 39.9833 11.3638 39.9033 11.3638C39.5533 11.3638 39.2883 11.2788 39.1083 11.1088C38.9283 10.9388 38.8233 10.7388 38.7933 10.5088L38.7483 10.0588C38.4083 10.4988 37.9733 10.8388 37.4433 11.0788C36.9133 11.3188 36.3783 11.4388 35.8383 11.4388C35.3183 11.4388 34.8533 11.3338 34.4433 11.1238C34.0333 10.9038 33.7133 10.6088 33.4833 10.2388C33.2533 9.86877 33.1383 9.45377 33.1383 8.99377ZM38.1333 9.47377C38.2533 9.34377 38.3483 9.21377 38.4183 9.08377C38.4883 8.95377 38.5233 8.83877 38.5233 8.73877V7.83877C38.2433 7.72877 37.9483 7.64877 37.6383 7.59877C37.3283 7.53877 37.0233 7.50877 36.7233 7.50877C36.1233 7.50877 35.6333 7.62877 35.2533 7.86877C34.8833 8.10877 34.6983 8.43877 34.6983 8.85877C34.6983 9.08877 34.7583 9.30877 34.8783 9.51877C35.0083 9.72877 35.1883 9.89877 35.4183 10.0288C35.6583 10.1588 35.9533 10.2238 36.3033 10.2238C36.6633 10.2238 37.0083 10.1538 37.3383 10.0138C37.6683 9.87377 37.9333 9.69377 38.1333 9.47377ZM49.2101 11.2888H47.5601V6.89377C47.5601 6.16377 47.4401 5.62877 47.2001 5.28877C46.9701 4.94877 46.6251 4.77877 46.1651 4.77877C45.8451 4.77877 45.5251 4.85877 45.2051 5.01877C44.8951 5.17877 44.6151 5.39877 44.3651 5.67877C44.1151 5.94877 43.9351 6.26377 43.8251 6.62377V11.2888H42.1751V3.44377H43.6751V5.01877C43.8751 4.66877 44.1351 4.36877 44.4551 4.11877C44.7851 3.85877 45.1551 3.65877 45.5651 3.51877C45.9751 3.37877 46.4101 3.30877 46.8701 3.30877C47.3401 3.30877 47.7251 3.39377 48.0251 3.56377C48.3351 3.73377 48.5751 3.96877 48.7451 4.26877C48.9251 4.55877 49.0451 4.89877 49.1051 5.28877C49.1751 5.66877 49.2101 6.07377 49.2101 6.50377V11.2888ZM54.2303 11.3638C53.7003 11.3638 53.2153 11.2588 52.7753 11.0488C52.3353 10.8288 51.9553 10.5338 51.6353 10.1638C51.3253 9.79377 51.0803 9.36877 50.9003 8.88877C50.7303 8.40877 50.6453 7.90377 50.6453 7.37377C50.6453 6.81377 50.7353 6.28877 50.9153 5.79877C51.0953 5.30877 51.3453 4.87877 51.6653 4.50877C51.9953 4.12877 52.3803 3.83377 52.8203 3.62377C53.2603 3.41377 53.7503 3.30877 54.2903 3.30877C54.9203 3.30877 55.4703 3.45877 55.9403 3.75877C56.4203 4.05877 56.8153 4.44877 57.1253 4.92877V3.44377H58.5803V11.0638C58.5803 11.8238 58.3953 12.4688 58.0253 12.9988C57.6653 13.5288 57.1703 13.9338 56.5403 14.2138C55.9103 14.4938 55.2003 14.6338 54.4103 14.6338C53.5403 14.6338 52.8203 14.4838 52.2503 14.1838C51.6803 13.8838 51.1953 13.4738 50.7953 12.9538L51.7253 12.0838C52.0253 12.5038 52.4103 12.8238 52.8803 13.0438C53.3603 13.2638 53.8703 13.3738 54.4103 13.3738C54.8603 13.3738 55.2753 13.2888 55.6553 13.1188C56.0453 12.9588 56.3553 12.7038 56.5853 12.3538C56.8153 12.0138 56.9303 11.5838 56.9303 11.0638V9.86377C56.6503 10.3338 56.2653 10.7038 55.7753 10.9738C55.2853 11.2338 54.7703 11.3638 54.2303 11.3638ZM54.7703 10.0288C55.0203 10.0288 55.2603 9.98877 55.4903 9.90877C55.7203 9.81877 55.9303 9.70377 56.1203 9.56377C56.3203 9.41377 56.4903 9.24877 56.6303 9.06877C56.7703 8.87877 56.8703 8.67877 56.9303 8.46877V6.41377C56.8003 6.07377 56.6153 5.77877 56.3753 5.52877C56.1353 5.26877 55.8653 5.06877 55.5653 4.92877C55.2653 4.78877 54.9603 4.71877 54.6503 4.71877C54.2903 4.71877 53.9653 4.79877 53.6753 4.95877C53.3953 5.10877 53.1553 5.31377 52.9553 5.57377C52.7553 5.82377 52.6003 6.10877 52.4903 6.42877C52.3803 6.74877 52.3253 7.07877 52.3253 7.41877C52.3253 7.77877 52.3853 8.11377 52.5053 8.42377C52.6353 8.73377 52.8103 9.01377 53.0303 9.26377C53.2503 9.50377 53.5103 9.69377 53.8103 9.83377C54.1103 9.96377 54.4303 10.0288 54.7703 10.0288ZM64.0838 11.4388C63.4638 11.4388 62.9088 11.3338 62.4188 11.1238C61.9288 10.9038 61.5038 10.6038 61.1438 10.2238C60.7938 9.84377 60.5238 9.41377 60.3338 8.93377C60.1438 8.44377 60.0488 7.92377 60.0488 7.37377C60.0488 6.82377 60.1438 6.30377 60.3338 5.81377C60.5238 5.32377 60.7938 4.89377 61.1438 4.52377C61.5038 4.14377 61.9288 3.84877 62.4188 3.63877C62.9188 3.41877 63.4738 3.30877 64.0838 3.30877C64.6938 3.30877 65.2438 3.41877 65.7338 3.63877C66.2338 3.84877 66.6588 4.14377 67.0088 4.52377C67.3688 4.89377 67.6438 5.32377 67.8338 5.81377C68.0238 6.30377 68.1188 6.82377 68.1188 7.37377C68.1188 7.92377 68.0238 8.44377 67.8338 8.93377C67.6438 9.41377 67.3688 9.84377 67.0088 10.2238C66.6588 10.6038 66.2338 10.9038 65.7338 11.1238C65.2438 11.3338 64.6938 11.4388 64.0838 11.4388ZM61.7438 7.38877C61.7438 7.88877 61.8488 8.33877 62.0588 8.73877C62.2688 9.13877 62.5488 9.45377 62.8988 9.68377C63.2488 9.91377 63.6438 10.0288 64.0838 10.0288C64.5138 10.0288 64.9038 9.91377 65.2538 9.68377C65.6138 9.44377 65.8988 9.12377 66.1088 8.72377C66.3188 8.31377 66.4238 7.86377 66.4238 7.37377C66.4238 6.87377 66.3188 6.42377 66.1088 6.02377C65.8988 5.62377 65.6138 5.30877 65.2538 5.07877C64.9038 4.83877 64.5138 4.71877 64.0838 4.71877C63.6438 4.71877 63.2488 4.83877 62.8988 5.07877C62.5488 5.31877 62.2688 5.63877 62.0588 6.03877C61.8488 6.42877 61.7438 6.87877 61.7438 7.38877Z" fill="black"/>
</svg>
