<svg width="209" height="78" viewBox="0 0 209 78" fill="none" xmlns="http://www.w3.org/2000/svg">
<path d="M29.6742 58.582C29.6742 60.33 29.2142 61.8327 28.2942 63.09C27.4048 64.3473 26.1935 65.3133 24.6602 65.988C23.1268 66.6627 21.4402 67 19.6002 67H4.00617V34.34H20.8422C22.3755 34.34 23.6942 34.754 24.7982 35.582C25.9328 36.3793 26.7915 37.422 27.3742 38.71C27.9875 39.9673 28.2942 41.286 28.2942 42.666C28.2942 44.2607 27.8802 45.7633 27.0522 47.174C26.2548 48.554 25.1048 49.5813 23.6022 50.256C25.4728 50.808 26.9448 51.82 28.0182 53.292C29.1222 54.7333 29.6742 56.4967 29.6742 58.582ZM24.3842 57.616C24.3842 56.696 24.1848 55.868 23.7862 55.132C23.4182 54.3653 22.8968 53.752 22.2222 53.292C21.5782 52.8013 20.8115 52.556 19.9222 52.556H9.15817V62.538H19.6002C20.5202 62.538 21.3328 62.3233 22.0382 61.894C22.7742 61.434 23.3415 60.836 23.7402 60.1C24.1695 59.3333 24.3842 58.5053 24.3842 57.616ZM9.15817 38.802V48.416H18.6342C19.4928 48.416 20.2595 48.2167 20.9342 47.818C21.6088 47.3887 22.1455 46.8213 22.5442 46.116C22.9428 45.38 23.1422 44.552 23.1422 43.632C23.1422 42.6813 22.9582 41.8533 22.5902 41.148C22.2222 40.412 21.7162 39.8447 21.0722 39.446C20.4588 39.0167 19.7382 38.802 18.9102 38.802H9.15817ZM34.8172 67V43.034H37.9452V67H34.8172ZM34.8172 38.02V33.42H37.9452V38.02H34.8172ZM54.4488 67.322C52.8234 67.322 51.3208 66.9847 49.9408 66.31C48.5608 65.6353 47.3648 64.7307 46.3528 63.596C45.3714 62.4307 44.6048 61.112 44.0528 59.64C43.5008 58.168 43.2248 56.65 43.2248 55.086C43.2248 53.3993 43.4854 51.82 44.0068 50.348C44.5588 48.8453 45.3254 47.5113 46.3068 46.346C47.3188 45.1807 48.4994 44.276 49.8488 43.632C51.1981 42.9573 52.7008 42.62 54.3568 42.62C56.4114 42.62 58.1901 43.1413 59.6928 44.184C61.2261 45.2267 62.5141 46.5147 63.5568 48.048V43.034H66.3628V67.092C66.3628 69.3 65.8261 71.1553 64.7528 72.658C63.7101 74.1913 62.2841 75.3413 60.4748 76.108C58.6961 76.8747 56.7488 77.258 54.6328 77.258C51.9034 77.258 49.6954 76.7673 48.0088 75.786C46.3221 74.8047 44.9421 73.486 43.8688 71.83L45.8008 70.312C46.7514 71.8147 48.0088 72.934 49.5728 73.67C51.1674 74.406 52.8541 74.774 54.6328 74.774C56.1968 74.774 57.6228 74.4827 58.9108 73.9C60.2294 73.348 61.2721 72.5047 62.0388 71.37C62.8361 70.2353 63.2348 68.8093 63.2348 67.092V62.354C62.3148 63.8567 61.0574 65.068 59.4628 65.988C57.8681 66.8773 56.1968 67.322 54.4488 67.322ZM55.3228 64.7C56.2734 64.7 57.1781 64.5313 58.0368 64.194C58.9261 63.8567 59.7388 63.412 60.4748 62.86C61.2108 62.2773 61.8241 61.6333 62.3148 60.928C62.8054 60.2227 63.1121 59.502 63.2348 58.766V51.36C62.7748 50.1947 62.1154 49.1673 61.2568 48.278C60.3981 47.358 59.4168 46.6527 58.3128 46.162C57.2394 45.6407 56.1201 45.38 54.9548 45.38C53.6054 45.38 52.3941 45.6713 51.3208 46.254C50.2781 46.806 49.3888 47.5573 48.6528 48.508C47.9474 49.428 47.3954 50.4707 46.9968 51.636C46.5981 52.8013 46.3988 53.9667 46.3988 55.132C46.3988 56.42 46.6288 57.6467 47.0888 58.812C47.5488 59.9467 48.1774 60.974 48.9748 61.894C49.8028 62.7833 50.7534 63.4733 51.8268 63.964C52.9308 64.4547 54.0961 64.7 55.3228 64.7ZM98.4783 58.582C98.4783 60.2073 98.0643 61.664 97.2363 62.952C96.4083 64.2093 95.289 65.206 93.8783 65.942C92.4983 66.6473 90.9803 67 89.3243 67H73.9143V34.34H89.6463C91.1796 34.34 92.4983 34.754 93.6023 35.582C94.737 36.3793 95.5956 37.422 96.1783 38.71C96.7916 39.9673 97.0983 41.286 97.0983 42.666C97.0983 44.2913 96.6843 45.794 95.8563 47.174C95.0283 48.554 93.8783 49.5813 92.4063 50.256C94.277 50.808 95.749 51.8353 96.8223 53.338C97.9263 54.8407 98.4783 56.5887 98.4783 58.582ZM95.2583 58.03C95.2583 56.926 95.013 55.914 94.5223 54.994C94.0316 54.0433 93.357 53.2767 92.4983 52.694C91.6703 52.1113 90.7196 51.82 89.6463 51.82H77.1343V64.194H89.3243C90.4283 64.194 91.425 63.9027 92.3143 63.32C93.2036 62.7373 93.909 61.986 94.4303 61.066C94.9823 60.1153 95.2583 59.1033 95.2583 58.03ZM77.1343 37.146V49.198H88.3583C89.4316 49.198 90.3823 48.922 91.2103 48.37C92.0383 47.7873 92.6976 47.036 93.1883 46.116C93.679 45.196 93.9243 44.2147 93.9243 43.172C93.9243 42.068 93.6943 41.0713 93.2343 40.182C92.7743 39.262 92.1456 38.526 91.3483 37.974C90.551 37.422 89.6463 37.146 88.6343 37.146H77.1343ZM101.975 60.1C101.975 58.5973 102.404 57.3093 103.263 56.236C104.122 55.132 105.302 54.2887 106.805 53.706C108.338 53.0927 110.102 52.786 112.095 52.786C113.26 52.786 114.472 52.878 115.729 53.062C116.986 53.246 118.106 53.522 119.087 53.89V51.866C119.087 49.842 118.489 48.232 117.293 47.036C116.097 45.84 114.441 45.242 112.325 45.242C111.037 45.242 109.764 45.4873 108.507 45.978C107.28 46.438 105.992 47.128 104.643 48.048L103.447 45.84C105.011 44.7667 106.544 43.9693 108.047 43.448C109.55 42.896 111.083 42.62 112.647 42.62C115.591 42.62 117.922 43.4633 119.639 45.15C121.356 46.8367 122.215 49.1673 122.215 52.142V63.228C122.215 63.6573 122.307 63.9793 122.491 64.194C122.675 64.378 122.966 64.4853 123.365 64.516V67C123.028 67.0307 122.736 67.0613 122.491 67.092C122.246 67.1227 122.062 67.1227 121.939 67.092C121.172 67.0613 120.59 66.816 120.191 66.356C119.792 65.896 119.578 65.4053 119.547 64.884L119.501 63.136C118.428 64.516 117.032 65.5893 115.315 66.356C113.598 67.092 111.85 67.46 110.071 67.46C108.538 67.46 107.142 67.138 105.885 66.494C104.658 65.8193 103.692 64.93 102.987 63.826C102.312 62.6913 101.975 61.4493 101.975 60.1ZM118.029 61.94C118.366 61.5107 118.627 61.0967 118.811 60.698C118.995 60.2993 119.087 59.9467 119.087 59.64V56.144C118.044 55.7453 116.956 55.4387 115.821 55.224C114.717 55.0093 113.598 54.902 112.463 54.902C110.224 54.902 108.415 55.3467 107.035 56.236C105.655 57.1253 104.965 58.3367 104.965 59.87C104.965 60.7593 105.195 61.6027 105.655 62.4C106.115 63.1667 106.79 63.8107 107.679 64.332C108.568 64.8227 109.611 65.068 110.807 65.068C112.31 65.068 113.705 64.7767 114.993 64.194C116.312 63.6113 117.324 62.86 118.029 61.94ZM149.121 67H145.993V53.614C145.993 50.7927 145.579 48.738 144.751 47.45C143.923 46.1313 142.62 45.472 140.841 45.472C139.615 45.472 138.403 45.7787 137.207 46.392C136.011 46.9747 134.953 47.7873 134.033 48.83C133.144 49.842 132.5 51.0073 132.101 52.326V67H128.973V43.034H131.825V48.462C132.469 47.2967 133.313 46.2847 134.355 45.426C135.398 44.5367 136.579 43.8467 137.897 43.356C139.216 42.8653 140.581 42.62 141.991 42.62C143.31 42.62 144.429 42.8653 145.349 43.356C146.269 43.8467 147.005 44.552 147.557 45.472C148.109 46.3613 148.508 47.45 148.753 48.738C148.999 49.9953 149.121 51.406 149.121 52.97V67ZM165.406 67.322C163.78 67.322 162.278 66.9847 160.898 66.31C159.518 65.6353 158.322 64.7307 157.31 63.596C156.328 62.4307 155.562 61.112 155.01 59.64C154.458 58.168 154.182 56.65 154.182 55.086C154.182 53.3993 154.442 51.82 154.964 50.348C155.516 48.8453 156.282 47.5113 157.264 46.346C158.276 45.1807 159.456 44.276 160.806 43.632C162.155 42.9573 163.658 42.62 165.314 42.62C167.368 42.62 169.147 43.1413 170.65 44.184C172.183 45.2267 173.471 46.5147 174.514 48.048V43.034H177.32V67.092C177.32 69.3 176.783 71.1553 175.71 72.658C174.667 74.1913 173.241 75.3413 171.432 76.108C169.653 76.8747 167.706 77.258 165.59 77.258C162.86 77.258 160.652 76.7673 158.966 75.786C157.279 74.8047 155.899 73.486 154.826 71.83L156.758 70.312C157.708 71.8147 158.966 72.934 160.53 73.67C162.124 74.406 163.811 74.774 165.59 74.774C167.154 74.774 168.58 74.4827 169.868 73.9C171.186 73.348 172.229 72.5047 172.996 71.37C173.793 70.2353 174.192 68.8093 174.192 67.092V62.354C173.272 63.8567 172.014 65.068 170.42 65.988C168.825 66.8773 167.154 67.322 165.406 67.322ZM166.28 64.7C167.23 64.7 168.135 64.5313 168.994 64.194C169.883 63.8567 170.696 63.412 171.432 62.86C172.168 62.2773 172.781 61.6333 173.272 60.928C173.762 60.2227 174.069 59.502 174.192 58.766V51.36C173.732 50.1947 173.072 49.1673 172.214 48.278C171.355 47.358 170.374 46.6527 169.27 46.162C168.196 45.6407 167.077 45.38 165.912 45.38C164.562 45.38 163.351 45.6713 162.278 46.254C161.235 46.806 160.346 47.5573 159.61 48.508C158.904 49.428 158.352 50.4707 157.954 51.636C157.555 52.8013 157.356 53.9667 157.356 55.132C157.356 56.42 157.586 57.6467 158.046 58.812C158.506 59.9467 159.134 60.974 159.932 61.894C160.76 62.7833 161.71 63.4733 162.784 63.964C163.888 64.4547 165.053 64.7 166.28 64.7ZM194.715 67.46C192.753 67.46 190.989 67.138 189.425 66.494C187.861 65.8193 186.527 64.8993 185.423 63.734C184.35 62.5687 183.522 61.2347 182.939 59.732C182.357 58.2293 182.065 56.65 182.065 54.994C182.065 53.3073 182.357 51.7127 182.939 50.21C183.522 48.7073 184.35 47.3733 185.423 46.208C186.527 45.0427 187.861 44.138 189.425 43.494C190.989 42.8193 192.753 42.482 194.715 42.482C196.678 42.482 198.426 42.8193 199.959 43.494C201.523 44.138 202.857 45.0427 203.961 46.208C205.065 47.3733 205.893 48.7073 206.445 50.21C207.028 51.7127 207.319 53.3073 207.319 54.994C207.319 56.65 207.028 58.2293 206.445 59.732C205.893 61.2347 205.065 62.5687 203.961 63.734C202.888 64.8993 201.569 65.8193 200.005 66.494C198.441 67.138 196.678 67.46 194.715 67.46ZM188.413 54.994C188.413 56.4047 188.689 57.662 189.241 58.766C189.793 59.8393 190.545 60.6827 191.495 61.296C192.446 61.9093 193.519 62.216 194.715 62.216C195.881 62.216 196.939 61.9093 197.889 61.296C198.84 60.652 199.591 59.7933 200.143 58.72C200.726 57.616 201.017 56.3587 201.017 54.948C201.017 53.568 200.726 52.326 200.143 51.222C199.591 50.118 198.84 49.2593 197.889 48.646C196.939 48.0327 195.881 47.726 194.715 47.726C193.519 47.726 192.446 48.048 191.495 48.692C190.545 49.3053 189.793 50.164 189.241 51.268C188.689 52.3413 188.413 53.5833 188.413 54.994Z" fill="black"/>
<path d="M31.544 9.92432L33.3849 2.75781H34.3497L34.2418 4.60498L32.274 12H31.2711L31.544 9.92432ZM30.1666 2.75781L31.6583 9.86719L31.7916 12H30.7252L28.586 2.75781H30.1666ZM36.4381 9.84814L37.9107 2.75781H39.4977L37.3585 12H36.2921L36.4381 9.84814ZM34.7242 2.75781L36.546 9.94336L36.8126 12H35.8097L33.8736 4.60498L33.7721 2.75781H34.7242ZM54.5276 10.7368V12H49.6209V10.7368H54.5276ZM50.0716 2.75781V12H48.4783V2.75781H50.0716ZM53.8865 6.61719V7.86133H49.6209V6.61719H53.8865ZM54.4959 2.75781V4.02734H49.6209V2.75781H54.4959ZM69.418 10.7368V12H64.7778V10.7368H69.418ZM65.2222 2.75781V12H63.6289V2.75781H65.2222ZM83.4895 8.99121H85.0764C85.0256 9.59635 84.8563 10.1359 84.5686 10.6099C84.2808 11.0796 83.8767 11.4499 83.3562 11.7207C82.8356 11.9915 82.203 12.127 81.4582 12.127C80.8869 12.127 80.3728 12.0254 79.9157 11.8223C79.4587 11.6149 79.0673 11.3229 78.7414 10.9463C78.4156 10.5654 78.1659 10.1063 77.9924 9.56885C77.8231 9.03141 77.7385 8.4305 77.7385 7.76611V6.99805C77.7385 6.33366 77.8252 5.73275 77.9987 5.19531C78.1765 4.65788 78.4304 4.19873 78.7605 3.81787C79.0905 3.43278 79.4862 3.13867 79.9475 2.93555C80.413 2.73242 80.9356 2.63086 81.5153 2.63086C82.2517 2.63086 82.8737 2.76628 83.3815 3.03711C83.8894 3.30794 84.2829 3.68245 84.5622 4.16064C84.8457 4.63883 85.0192 5.18685 85.0827 5.80469H83.4958C83.4535 5.4069 83.3604 5.06624 83.2165 4.78271C83.0769 4.49919 82.8695 4.28337 82.5944 4.13525C82.3194 3.98291 81.9597 3.90674 81.5153 3.90674C81.1514 3.90674 80.834 3.97445 80.5632 4.10986C80.2924 4.24528 80.066 4.44417 79.884 4.70654C79.702 4.96891 79.5645 5.29264 79.4714 5.67773C79.3825 6.05859 79.3381 6.49447 79.3381 6.98535V7.76611C79.3381 8.23161 79.3783 8.65479 79.4587 9.03564C79.5433 9.41227 79.6703 9.736 79.8396 10.0068C80.0131 10.2777 80.2331 10.4871 80.4997 10.6353C80.7663 10.7834 81.0858 10.8574 81.4582 10.8574C81.911 10.8574 82.2771 10.7855 82.5564 10.6416C82.8399 10.4977 83.0536 10.2882 83.1975 10.0132C83.3456 9.73389 83.4429 9.39323 83.4895 8.99121ZM101.693 7.125V7.63281C101.693 8.33105 101.602 8.95736 101.42 9.51172C101.238 10.0661 100.978 10.5379 100.64 10.9272C100.305 11.3166 99.9032 11.6149 99.4335 11.8223C98.9638 12.0254 98.4433 12.127 97.872 12.127C97.3049 12.127 96.7865 12.0254 96.3168 11.8223C95.8513 11.6149 95.4472 11.3166 95.1044 10.9272C94.7616 10.5379 94.495 10.0661 94.3046 9.51172C94.1184 8.95736 94.0253 8.33105 94.0253 7.63281V7.125C94.0253 6.42676 94.1184 5.80257 94.3046 5.25244C94.4908 4.69808 94.7532 4.22624 95.0917 3.83691C95.4345 3.44336 95.8386 3.14502 96.3041 2.94189C96.7738 2.73454 97.2922 2.63086 97.8593 2.63086C98.4306 2.63086 98.9511 2.73454 99.4208 2.94189C99.8905 3.14502 100.295 3.44336 100.633 3.83691C100.972 4.22624 101.232 4.69808 101.414 5.25244C101.6 5.80257 101.693 6.42676 101.693 7.125ZM100.1 7.63281V7.1123C100.1 6.59603 100.049 6.14111 99.9477 5.74756C99.8503 5.34977 99.7043 5.01758 99.5097 4.75098C99.3192 4.48014 99.0844 4.27702 98.8051 4.1416C98.5258 4.00195 98.2105 3.93213 97.8593 3.93213C97.508 3.93213 97.1949 4.00195 96.9198 4.1416C96.6448 4.27702 96.4099 4.48014 96.2152 4.75098C96.0248 5.01758 95.8788 5.34977 95.7772 5.74756C95.6757 6.14111 95.6249 6.59603 95.6249 7.1123V7.63281C95.6249 8.14909 95.6757 8.60612 95.7772 9.00391C95.8788 9.40169 96.0269 9.73812 96.2216 10.0132C96.4205 10.284 96.6575 10.4893 96.9325 10.6289C97.2076 10.7643 97.5207 10.832 97.872 10.832C98.2274 10.832 98.5427 10.7643 98.8178 10.6289C99.0928 10.4893 99.3256 10.284 99.516 10.0132C99.7064 9.73812 99.8503 9.40169 99.9477 9.00391C100.049 8.60612 100.1 8.14909 100.1 7.63281ZM111.734 2.75781H113.156L115.828 9.88623L118.494 2.75781H119.916L116.387 12H115.257L111.734 2.75781ZM111.087 2.75781H112.439L112.673 8.92773V12H111.087V2.75781ZM119.212 2.75781H120.57V12H118.977V8.92773L119.212 2.75781ZM136.311 10.7368V12H131.404V10.7368H136.311ZM131.855 2.75781V12H130.262V2.75781H131.855ZM135.67 6.61719V7.86133H131.404V6.61719H135.67ZM136.279 2.75781V4.02734H131.404V2.75781H136.279ZM159.947 2.75781V12H158.366V2.75781H159.947ZM162.848 2.75781V4.02734H155.491V2.75781H162.848ZM179.059 7.125V7.63281C179.059 8.33105 178.968 8.95736 178.786 9.51172C178.604 10.0661 178.343 10.5379 178.005 10.9272C177.67 11.3166 177.268 11.6149 176.799 11.8223C176.329 12.0254 175.809 12.127 175.237 12.127C174.67 12.127 174.152 12.0254 173.682 11.8223C173.217 11.6149 172.812 11.3166 172.47 10.9272C172.127 10.5379 171.86 10.0661 171.67 9.51172C171.484 8.95736 171.391 8.33105 171.391 7.63281V7.125C171.391 6.42676 171.484 5.80257 171.67 5.25244C171.856 4.69808 172.118 4.22624 172.457 3.83691C172.8 3.44336 173.204 3.14502 173.669 2.94189C174.139 2.73454 174.657 2.63086 175.225 2.63086C175.796 2.63086 176.316 2.73454 176.786 2.94189C177.256 3.14502 177.66 3.44336 177.998 3.83691C178.337 4.22624 178.597 4.69808 178.779 5.25244C178.965 5.80257 179.059 6.42676 179.059 7.125ZM177.465 7.63281V7.1123C177.465 6.59603 177.414 6.14111 177.313 5.74756C177.216 5.34977 177.07 5.01758 176.875 4.75098C176.684 4.48014 176.45 4.27702 176.17 4.1416C175.891 4.00195 175.576 3.93213 175.225 3.93213C174.873 3.93213 174.56 4.00195 174.285 4.1416C174.01 4.27702 173.775 4.48014 173.58 4.75098C173.39 5.01758 173.244 5.34977 173.142 5.74756C173.041 6.14111 172.99 6.59603 172.99 7.1123V7.63281C172.99 8.14909 173.041 8.60612 173.142 9.00391C173.244 9.40169 173.392 9.73812 173.587 10.0132C173.786 10.284 174.023 10.4893 174.298 10.6289C174.573 10.7643 174.886 10.832 175.237 10.832C175.593 10.832 175.908 10.7643 176.183 10.6289C176.458 10.4893 176.691 10.284 176.881 10.0132C177.072 9.73812 177.216 9.40169 177.313 9.00391C177.414 8.60612 177.465 8.14909 177.465 7.63281Z" fill="black"/>
</svg>
