<svg width="77" height="19" viewBox="0 0 77 19" fill="none" xmlns="http://www.w3.org/2000/svg">
<rect width="77" height="19" fill="#F95959"/>
<path d="M9.6377 14V4.04688H12.8916C13.9717 4.04688 14.7829 4.27018 15.3252 4.7168C15.8721 5.16341 16.1455 5.82422 16.1455 6.69922C16.1455 7.16406 16.0133 7.5765 15.749 7.93652C15.4847 8.29199 15.1247 8.56771 14.6689 8.76367C15.2067 8.91406 15.6305 9.20117 15.9404 9.625C16.2549 10.0443 16.4121 10.5456 16.4121 11.1289C16.4121 12.0221 16.1227 12.724 15.5439 13.2344C14.9652 13.7448 14.1471 14 13.0898 14H9.6377ZM10.9502 9.34473V12.9268H13.1172C13.7279 12.9268 14.2087 12.7695 14.5596 12.4551C14.915 12.1361 15.0928 11.6986 15.0928 11.1426C15.0928 9.94401 14.4411 9.34473 13.1377 9.34473H10.9502ZM10.9502 8.29199H12.9326C13.5068 8.29199 13.9648 8.14844 14.3066 7.86133C14.653 7.57422 14.8262 7.18457 14.8262 6.69238C14.8262 6.14551 14.6667 5.74902 14.3477 5.50293C14.0286 5.25228 13.5433 5.12695 12.8916 5.12695H10.9502V8.29199ZM19.5361 14H18.2715V6.60352H19.5361V14ZM18.1689 4.6416C18.1689 4.43652 18.2305 4.26335 18.3535 4.12207C18.4811 3.98079 18.668 3.91016 18.9141 3.91016C19.1602 3.91016 19.347 3.98079 19.4746 4.12207C19.6022 4.26335 19.666 4.43652 19.666 4.6416C19.666 4.84668 19.6022 5.01758 19.4746 5.1543C19.347 5.29102 19.1602 5.35938 18.9141 5.35938C18.668 5.35938 18.4811 5.29102 18.3535 5.1543C18.2305 5.01758 18.1689 4.84668 18.1689 4.6416ZM21.2656 10.2402C21.2656 9.08724 21.5322 8.17122 22.0654 7.49219C22.5986 6.80859 23.305 6.4668 24.1846 6.4668C25.0869 6.4668 25.791 6.78581 26.2969 7.42383L26.3584 6.60352H27.5137V13.8223C27.5137 14.7793 27.2288 15.5335 26.6592 16.085C26.0941 16.6364 25.333 16.9121 24.376 16.9121C23.8428 16.9121 23.321 16.7982 22.8105 16.5703C22.3001 16.3424 21.9105 16.0303 21.6416 15.6338L22.2979 14.875C22.8402 15.5449 23.5033 15.8799 24.2871 15.8799C24.9023 15.8799 25.3809 15.7067 25.7227 15.3604C26.069 15.014 26.2422 14.5264 26.2422 13.8975V13.2617C25.7363 13.8451 25.0459 14.1367 24.1709 14.1367C23.305 14.1367 22.6032 13.7881 22.0654 13.0908C21.5322 12.3936 21.2656 11.4434 21.2656 10.2402ZM22.5371 10.3838C22.5371 11.2178 22.708 11.874 23.0498 12.3525C23.3916 12.8265 23.8701 13.0635 24.4854 13.0635C25.2829 13.0635 25.8685 12.7012 26.2422 11.9766V8.59961C25.8548 7.89323 25.2738 7.54004 24.499 7.54004C23.8838 7.54004 23.403 7.7793 23.0566 8.25781C22.7103 8.73633 22.5371 9.44499 22.5371 10.3838ZM35.6895 10.3838C35.6895 11.514 35.4297 12.4232 34.9102 13.1113C34.3906 13.7949 33.6934 14.1367 32.8184 14.1367C31.8841 14.1367 31.1618 13.8063 30.6514 13.1455L30.5898 14H29.4277V3.5H30.6924V7.41699C31.2028 6.78353 31.9069 6.4668 32.8047 6.4668C33.7025 6.4668 34.4066 6.80632 34.917 7.48535C35.432 8.16439 35.6895 9.09408 35.6895 10.2744V10.3838ZM34.4248 10.2402C34.4248 9.37891 34.2585 8.71354 33.9258 8.24414C33.5931 7.77474 33.1146 7.54004 32.4902 7.54004C31.6562 7.54004 31.057 7.92741 30.6924 8.70215V11.9014C31.0798 12.6761 31.6836 13.0635 32.5039 13.0635C33.11 13.0635 33.5817 12.8288 33.9189 12.3594C34.2562 11.89 34.4248 11.1836 34.4248 10.2402ZM41.8555 14C41.7826 13.8542 41.7233 13.5944 41.6777 13.2207C41.0898 13.8314 40.388 14.1367 39.5723 14.1367C38.8431 14.1367 38.2438 13.9316 37.7744 13.5215C37.3096 13.1068 37.0771 12.5827 37.0771 11.9492C37.0771 11.179 37.3688 10.582 37.9521 10.1582C38.54 9.72982 39.3649 9.51562 40.4268 9.51562H41.6572V8.93457C41.6572 8.49251 41.5251 8.1416 41.2607 7.88184C40.9964 7.61751 40.6068 7.48535 40.0918 7.48535C39.6406 7.48535 39.2624 7.59928 38.957 7.82715C38.6517 8.05501 38.499 8.33073 38.499 8.6543H37.2275C37.2275 8.28516 37.3574 7.92969 37.6172 7.58789C37.8815 7.24154 38.237 6.9681 38.6836 6.76758C39.1348 6.56706 39.6292 6.4668 40.167 6.4668C41.0192 6.4668 41.6868 6.68099 42.1699 7.10938C42.653 7.5332 42.9036 8.11882 42.9219 8.86621V12.2705C42.9219 12.9495 43.0085 13.4896 43.1816 13.8906V14H41.8555ZM39.7568 13.0361C40.1533 13.0361 40.5293 12.9336 40.8848 12.7285C41.2402 12.5234 41.4977 12.2568 41.6572 11.9287V10.4111H40.666C39.1165 10.4111 38.3418 10.8646 38.3418 11.7715C38.3418 12.168 38.474 12.4779 38.7383 12.7012C39.0026 12.9245 39.3421 13.0361 39.7568 13.0361ZM46.1006 6.60352L46.1416 7.5332C46.7067 6.82227 47.445 6.4668 48.3564 6.4668C49.9196 6.4668 50.708 7.34863 50.7217 9.1123V14H49.457V9.10547C49.4525 8.57227 49.3294 8.17806 49.0879 7.92285C48.8509 7.66764 48.4795 7.54004 47.9736 7.54004C47.5635 7.54004 47.2035 7.64941 46.8936 7.86816C46.5837 8.08691 46.3421 8.37402 46.1689 8.72949V14H44.9043V6.60352H46.1006ZM52.3281 10.2402C52.3281 9.08724 52.5947 8.17122 53.1279 7.49219C53.6611 6.80859 54.3675 6.4668 55.2471 6.4668C56.1494 6.4668 56.8535 6.78581 57.3594 7.42383L57.4209 6.60352H58.5762V13.8223C58.5762 14.7793 58.2913 15.5335 57.7217 16.085C57.1566 16.6364 56.3955 16.9121 55.4385 16.9121C54.9053 16.9121 54.3835 16.7982 53.873 16.5703C53.3626 16.3424 52.973 16.0303 52.7041 15.6338L53.3604 14.875C53.9027 15.5449 54.5658 15.8799 55.3496 15.8799C55.9648 15.8799 56.4434 15.7067 56.7852 15.3604C57.1315 15.014 57.3047 14.5264 57.3047 13.8975V13.2617C56.7988 13.8451 56.1084 14.1367 55.2334 14.1367C54.3675 14.1367 53.6657 13.7881 53.1279 13.0908C52.5947 12.3936 52.3281 11.4434 52.3281 10.2402ZM53.5996 10.3838C53.5996 11.2178 53.7705 11.874 54.1123 12.3525C54.4541 12.8265 54.9326 13.0635 55.5479 13.0635C56.3454 13.0635 56.931 12.7012 57.3047 11.9766V8.59961C56.9173 7.89323 56.3363 7.54004 55.5615 7.54004C54.9463 7.54004 54.4655 7.7793 54.1191 8.25781C53.7728 8.73633 53.5996 9.44499 53.5996 10.3838ZM60.1553 10.2334C60.1553 9.50879 60.2965 8.8571 60.5791 8.27832C60.8662 7.69954 61.2627 7.25293 61.7686 6.93848C62.279 6.62402 62.86 6.4668 63.5117 6.4668C64.5189 6.4668 65.3324 6.81543 65.9521 7.5127C66.5765 8.20996 66.8887 9.13737 66.8887 10.2949V10.3838C66.8887 11.1038 66.7497 11.751 66.4717 12.3252C66.1982 12.8949 65.804 13.3392 65.2891 13.6582C64.7786 13.9772 64.1908 14.1367 63.5254 14.1367C62.5228 14.1367 61.7093 13.7881 61.085 13.0908C60.4652 12.3936 60.1553 11.4707 60.1553 10.3223V10.2334ZM61.4268 10.3838C61.4268 11.2041 61.6159 11.8626 61.9941 12.3594C62.377 12.8561 62.8874 13.1045 63.5254 13.1045C64.168 13.1045 64.6784 12.8538 65.0566 12.3525C65.4349 11.8467 65.624 11.1403 65.624 10.2334C65.624 9.4222 65.4303 8.76595 65.043 8.26465C64.6602 7.75879 64.1497 7.50586 63.5117 7.50586C62.8874 7.50586 62.3838 7.75423 62.001 8.25098C61.6182 8.74772 61.4268 9.45866 61.4268 10.3838Z" fill="white"/>
</svg>
