<svg width="236" height="50" viewBox="0 0 236 50" fill="none" xmlns="http://www.w3.org/2000/svg">
<path d="M29.7947 28.6988C29.7947 30.6925 29.2607 32.4064 28.1928 33.8405C27.1605 35.2746 25.7544 36.3764 23.9746 37.1459C22.1947 37.9154 20.2369 38.3001 18.1011 38.3001H0V1.04932H19.5427C21.3226 1.04932 22.8533 1.52151 24.1347 2.4659C25.4518 3.37531 26.4485 4.56453 27.1249 6.03358C27.8368 7.46765 28.1928 8.97167 28.1928 10.5456C28.1928 12.3645 27.7122 14.0783 26.7511 15.6873C25.8256 17.2613 24.4907 18.433 22.7465 19.2025C24.9179 19.8321 26.6265 20.9864 27.8724 22.6653C29.1539 24.3092 29.7947 26.3204 29.7947 28.6988ZM23.6542 27.5971C23.6542 26.5477 23.4228 25.6034 22.9601 24.7639C22.5329 23.8895 21.9277 23.1899 21.1446 22.6653C20.3971 22.1056 19.5071 21.8258 18.4748 21.8258H5.98029V33.2109H18.1011C19.169 33.2109 20.1123 32.9661 20.931 32.4764C21.7853 31.9517 22.4439 31.2697 22.9067 30.4302C23.405 29.5558 23.6542 28.6114 23.6542 27.5971ZM5.98029 6.13851V17.1039H16.9798C17.9765 17.1039 18.8664 16.8765 19.6495 16.4218C20.4327 15.9321 21.0556 15.2851 21.5184 14.4806C21.9811 13.6411 22.2125 12.6967 22.2125 11.6474C22.2125 10.5631 21.9989 9.61875 21.5718 8.81427C21.1446 7.97481 20.5573 7.32774 19.8097 6.87303C19.0978 6.38335 18.2612 6.13851 17.3001 6.13851H5.98029Z" fill="black"/>
<path d="M35.7645 38.3001V10.9654H39.3954V38.3001H35.7645ZM35.7645 5.24659V0H39.3954V5.24659H35.7645Z" fill="black"/>
<path d="M58.5523 38.6674C56.6656 38.6674 54.9214 38.2826 53.3195 37.5131C51.7177 36.7436 50.3294 35.7118 49.1547 34.4176C48.0156 33.0885 47.1257 31.5845 46.4849 29.9056C45.8442 28.2267 45.5238 26.4953 45.5238 24.7114C45.5238 22.7877 45.8264 20.9864 46.4315 19.3074C47.0723 17.5936 47.9622 16.0721 49.1013 14.7429C50.276 13.4138 51.6465 12.382 53.2127 11.6474C54.779 10.8779 56.5233 10.4932 58.4455 10.4932C60.8305 10.4932 62.8951 11.0878 64.6394 12.277C66.4192 13.4662 67.9143 14.9353 69.1246 16.6842V10.9654H72.3817V38.405C72.3817 40.9234 71.7588 43.0395 70.5129 44.7534C69.3026 46.5023 67.6473 47.8139 65.5471 48.6884C63.4825 49.5628 61.2221 50 58.7659 50C55.5977 50 53.0348 49.4404 51.0769 48.3211C49.1191 47.2018 47.5172 45.6978 46.2713 43.809L48.5139 42.0776C49.6175 43.7915 51.0769 45.0682 52.8924 45.9077C54.7434 46.7471 56.7012 47.1668 58.7659 47.1668C60.5813 47.1668 62.2366 46.8346 63.7317 46.17C65.2623 45.5404 66.4726 44.5785 67.3625 43.2844C68.2881 41.9902 68.7508 40.3638 68.7508 38.405V33.001C67.6829 34.7149 66.2234 36.0965 64.3724 37.1459C62.5214 38.1602 60.5813 38.6674 58.5523 38.6674ZM59.5668 35.6768C60.6703 35.6768 61.7204 35.4844 62.7171 35.0997C63.7494 34.7149 64.6928 34.2078 65.5471 33.5782C66.4014 32.9136 67.1134 32.1791 67.6829 31.3746C68.2525 30.5701 68.6084 29.7482 68.7508 28.9087V20.4617C68.2169 19.1326 67.4515 17.9608 66.4548 16.9465C65.4581 15.8972 64.319 15.0927 63.0375 14.5331C61.7916 13.9384 60.4923 13.6411 59.1396 13.6411C57.5734 13.6411 56.1673 13.9734 54.9214 14.638C53.7111 15.2676 52.6788 16.1245 51.8245 17.2088C51.0057 18.2581 50.365 19.4474 49.9022 20.7765C49.4395 22.1056 49.2081 23.4348 49.2081 24.7639C49.2081 26.2329 49.4751 27.632 50.009 28.9612C50.543 30.2553 51.2727 31.4271 52.1982 32.4764C53.1594 33.4907 54.2629 34.2777 55.5088 34.8374C56.7902 35.397 58.1429 35.6768 59.5668 35.6768Z" fill="black"/>
<path d="M109.661 28.6988C109.661 30.5526 109.18 32.2141 108.219 33.6831C107.258 35.1172 105.958 36.2539 104.321 37.0934C102.719 37.8979 100.957 38.3001 99.0348 38.3001H81.1473V1.04932H99.4086C101.188 1.04932 102.719 1.52151 104.001 2.4659C105.318 3.37531 106.314 4.56453 106.991 6.03358C107.703 7.46765 108.059 8.97167 108.059 10.5456C108.059 12.3994 107.578 14.1133 106.617 15.6873C105.656 17.2613 104.321 18.433 102.612 19.2025C104.784 19.8321 106.492 21.0038 107.738 22.7177C109.02 24.4316 109.661 26.4253 109.661 28.6988ZM105.923 28.0693C105.923 26.8101 105.638 25.6558 105.068 24.6065C104.499 23.5222 103.716 22.6478 102.719 21.9832C101.758 21.3186 100.654 20.9864 99.4086 20.9864H84.885V35.0997H99.0348C100.316 35.0997 101.473 34.7674 102.506 34.1028C103.538 33.4383 104.357 32.5813 104.962 31.532C105.602 30.4477 105.923 29.2935 105.923 28.0693ZM84.885 4.24974V17.9958H97.9135C99.1594 17.9958 100.263 17.681 101.224 17.0514C102.185 16.3868 102.95 15.5299 103.52 14.4806C104.09 13.4313 104.374 12.312 104.374 11.1228C104.374 9.86359 104.107 8.72683 103.573 7.71249C103.039 6.66317 102.31 5.82371 101.384 5.19412C100.459 4.56453 99.4086 4.24974 98.2339 4.24974H84.885Z" fill="black"/>
<path d="M113.719 30.4302C113.719 28.7163 114.218 27.2473 115.214 26.0231C116.211 24.7639 117.582 23.802 119.326 23.1375C121.106 22.4379 123.153 22.0881 125.466 22.0881C126.819 22.0881 128.225 22.1931 129.685 22.4029C131.144 22.6128 132.443 22.9276 133.583 23.3473V21.0388C133.583 18.7303 132.888 16.894 131.5 15.5299C130.112 14.1658 128.19 13.4837 125.733 13.4837C124.238 13.4837 122.761 13.7636 121.302 14.3232C119.878 14.8478 118.383 15.6348 116.816 16.6842L115.428 14.1658C117.243 12.9416 119.023 12.0322 120.768 11.4376C122.512 10.808 124.292 10.4932 126.107 10.4932C129.524 10.4932 132.23 11.4551 134.223 13.3788C136.217 15.3026 137.213 17.9608 137.213 21.3536V33.9979C137.213 34.4876 137.32 34.8548 137.534 35.0997C137.747 35.3095 138.086 35.432 138.548 35.4669V38.3001C138.157 38.3351 137.819 38.3701 137.534 38.405C137.249 38.44 137.035 38.44 136.893 38.405C136.003 38.3701 135.327 38.0902 134.864 37.5656C134.401 37.0409 134.152 36.4813 134.116 35.8867L134.063 33.893C132.817 35.4669 131.198 36.6911 129.204 37.5656C127.211 38.405 125.182 38.8248 123.117 38.8248C121.337 38.8248 119.717 38.4575 118.258 37.723C116.834 36.9535 115.713 35.9391 114.894 34.68C114.111 33.3858 113.719 31.9692 113.719 30.4302ZM132.354 32.5289C132.746 32.0392 133.049 31.567 133.262 31.1123C133.476 30.6576 133.583 30.2553 133.583 29.9056V25.9181C132.372 25.4634 131.109 25.1137 129.791 24.8688C128.51 24.624 127.211 24.5016 125.894 24.5016C123.295 24.5016 121.195 25.0087 119.593 26.0231C117.991 27.0374 117.19 28.419 117.19 30.1679C117.19 31.1822 117.457 32.1441 117.991 33.0535C118.525 33.9279 119.308 34.6625 120.34 35.2571C121.373 35.8167 122.583 36.0965 123.971 36.0965C125.716 36.0965 127.335 35.7643 128.83 35.0997C130.361 34.4351 131.536 33.5782 132.354 32.5289Z" fill="black"/>
<path d="M168.446 38.3001H164.815V23.0325C164.815 19.8146 164.334 17.4711 163.373 16.0021C162.412 14.4981 160.899 13.7461 158.834 13.7461C157.411 13.7461 156.004 14.0958 154.616 14.7954C153.228 15.46 152 16.3868 150.932 17.5761C149.9 18.7303 149.152 20.0595 148.689 21.5635V38.3001H145.058V10.9654H148.369V17.1563C149.116 15.8272 150.095 14.673 151.306 13.6936C152.516 12.6793 153.886 11.8923 155.417 11.3326C156.948 10.773 158.532 10.4932 160.169 10.4932C161.7 10.4932 162.999 10.773 164.067 11.3326C165.135 11.8923 165.989 12.6967 166.63 13.7461C167.271 14.7604 167.734 16.0021 168.018 17.4711C168.303 18.9052 168.446 20.5142 168.446 22.298V38.3001Z" fill="black"/>
<path d="M187.348 38.6674C185.461 38.6674 183.717 38.2826 182.115 37.5131C180.513 36.7436 179.125 35.7118 177.95 34.4176C176.811 33.0885 175.921 31.5845 175.281 29.9056C174.64 28.2267 174.319 26.4953 174.319 24.7114C174.319 22.7877 174.622 20.9864 175.227 19.3074C175.868 17.5936 176.758 16.0721 177.897 14.7429C179.072 13.4138 180.442 12.382 182.008 11.6474C183.575 10.8779 185.319 10.4932 187.241 10.4932C189.626 10.4932 191.691 11.0878 193.435 12.277C195.215 13.4662 196.71 14.9353 197.92 16.6842V10.9654H201.177V38.405C201.177 40.9234 200.554 43.0395 199.309 44.7534C198.098 46.5023 196.443 47.8139 194.343 48.6884C192.278 49.5628 190.018 50 187.562 50C184.393 50 181.83 49.4404 179.873 48.3211C177.915 47.2018 176.313 45.6978 175.067 43.809L177.31 42.0776C178.413 43.7915 179.873 45.0682 181.688 45.9077C183.539 46.7471 185.497 47.1668 187.562 47.1668C189.377 47.1668 191.032 46.8346 192.527 46.17C194.058 45.5404 195.268 44.5785 196.158 43.2844C197.084 41.9902 197.547 40.3638 197.547 38.405V33.001C196.479 34.7149 195.019 36.0965 193.168 37.1459C191.317 38.1602 189.377 38.6674 187.348 38.6674ZM188.362 35.6768C189.466 35.6768 190.516 35.4844 191.513 35.0997C192.545 34.7149 193.488 34.2078 194.343 33.5782C195.197 32.9136 195.909 32.1791 196.479 31.3746C197.048 30.5701 197.404 29.7482 197.547 28.9087V20.4617C197.013 19.1326 196.247 17.9608 195.251 16.9465C194.254 15.8972 193.115 15.0927 191.833 14.5331C190.587 13.9384 189.288 13.6411 187.935 13.6411C186.369 13.6411 184.963 13.9734 183.717 14.638C182.507 15.2676 181.474 16.1245 180.62 17.2088C179.801 18.2581 179.161 19.4474 178.698 20.7765C178.235 22.1056 178.004 23.4348 178.004 24.7639C178.004 26.2329 178.271 27.632 178.805 28.9612C179.339 30.2553 180.068 31.4271 180.994 32.4764C181.955 33.4907 183.059 34.2777 184.304 34.8374C185.586 35.397 186.939 35.6768 188.362 35.6768Z" fill="black"/>
<path d="M221.37 38.8248C219.091 38.8248 217.045 38.4575 215.229 37.723C213.414 36.9535 211.865 35.9042 210.584 34.575C209.338 33.2459 208.377 31.7244 207.7 30.0105C207.024 28.2966 206.686 26.4953 206.686 24.6065C206.686 22.6828 207.024 20.8639 207.7 19.1501C208.377 17.4362 209.338 15.9147 210.584 14.5855C211.865 13.2564 213.414 12.2246 215.229 11.49C217.045 10.7205 219.091 10.3358 221.37 10.3358C223.648 10.3358 225.677 10.7205 227.457 11.49C229.272 12.2246 230.821 13.2564 232.102 14.5855C233.384 15.9147 234.345 17.4362 234.985 19.1501C235.662 20.8639 236 22.6828 236 24.6065C236 26.4953 235.662 28.2966 234.985 30.0105C234.345 31.7244 233.384 33.2459 232.102 34.575C230.856 35.9042 229.326 36.9535 227.51 37.723C225.695 38.4575 223.648 38.8248 221.37 38.8248ZM214.054 24.6065C214.054 26.2155 214.375 27.6495 215.016 28.9087C215.656 30.1329 216.528 31.0948 217.632 31.7943C218.735 32.4939 219.981 32.8437 221.37 32.8437C222.722 32.8437 223.95 32.4939 225.054 31.7943C226.157 31.0598 227.03 30.0804 227.67 28.8562C228.347 27.5971 228.685 26.163 228.685 24.554C228.685 22.9801 228.347 21.5635 227.67 20.3043C227.03 19.0451 226.157 18.0658 225.054 17.3662C223.95 16.6667 222.722 16.3169 221.37 16.3169C219.981 16.3169 218.735 16.6842 217.632 17.4187C216.528 18.1182 215.656 19.0976 215.016 20.3568C214.375 21.581 214.054 22.9975 214.054 24.6065Z" fill="black"/>
</svg>
