<svg width="383" height="111" viewBox="0 0 383 111" fill="none" xmlns="http://www.w3.org/2000/svg">
<path d="M113.618 80.8323C113.618 82.5803 113.158 84.083 112.238 85.3403C111.348 86.5976 110.137 87.5636 108.604 88.2383C107.07 88.913 105.384 89.2503 103.544 89.2503H87.9495V56.5903H104.786C106.319 56.5903 107.638 57.0043 108.742 57.8323C109.876 58.6296 110.735 59.6723 111.318 60.9603C111.931 62.2176 112.238 63.5363 112.238 64.9163C112.238 66.511 111.824 68.0136 110.996 69.4243C110.198 70.8043 109.048 71.8316 107.546 72.5063C109.416 73.0583 110.888 74.0703 111.962 75.5423C113.066 76.9836 113.618 78.747 113.618 80.8323ZM108.328 79.8663C108.328 78.9463 108.128 78.1183 107.73 77.3823C107.362 76.6156 106.84 76.0023 106.166 75.5423C105.522 75.0516 104.755 74.8063 103.866 74.8063H93.1015V84.7883H103.544C104.464 84.7883 105.276 84.5736 105.982 84.1443C106.718 83.6843 107.285 83.0863 107.684 82.3503C108.113 81.5836 108.328 80.7556 108.328 79.8663ZM93.1015 61.0523V70.6663H102.578C103.436 70.6663 104.203 70.467 104.878 70.0683C105.552 69.639 106.089 69.0716 106.488 68.3663C106.886 67.6303 107.086 66.8023 107.086 65.8823C107.086 64.9316 106.902 64.1036 106.534 63.3983C106.166 62.6623 105.66 62.095 105.016 61.6963C104.402 61.267 103.682 61.0523 102.854 61.0523H93.1015ZM118.899 89.2503V65.3303H121.199V89.2503H118.899ZM118.899 59.9023V55.6703H121.199V59.9023H118.899ZM138.082 89.6183C136.457 89.6183 134.939 89.281 133.528 88.6063C132.148 87.9316 130.952 87.0116 129.94 85.8463C128.959 84.6503 128.177 83.3316 127.594 81.8903C127.042 80.4183 126.766 78.9003 126.766 77.3363C126.766 75.711 127.027 74.147 127.548 72.6443C128.1 71.1416 128.867 69.823 129.848 68.6883C130.86 67.523 132.041 66.603 133.39 65.9283C134.739 65.2536 136.242 64.9163 137.898 64.9163C139.983 64.9163 141.793 65.4683 143.326 66.5723C144.89 67.6456 146.209 68.9643 147.282 70.5283V65.3303H149.398V89.7103C149.398 91.857 148.877 93.6663 147.834 95.1383C146.791 96.6103 145.411 97.699 143.694 98.4043C141.977 99.1403 140.121 99.5083 138.128 99.5083C135.337 99.5083 133.114 99.0023 131.458 97.9903C129.833 96.9783 128.514 95.6443 127.502 93.9883L129.066 92.9303C130.017 94.525 131.305 95.7056 132.93 96.4723C134.555 97.239 136.288 97.6223 138.128 97.6223C139.753 97.6223 141.241 97.3156 142.59 96.7023C143.97 96.1196 145.059 95.2303 145.856 94.0343C146.684 92.869 147.098 91.4276 147.098 89.7103V84.4663C146.147 86.0303 144.844 87.2876 143.188 88.2383C141.563 89.1583 139.861 89.6183 138.082 89.6183ZM138.634 87.6403C139.646 87.6403 140.627 87.4563 141.578 87.0883C142.529 86.7203 143.403 86.2296 144.2 85.6163C144.997 84.9723 145.657 84.267 146.178 83.5003C146.699 82.7336 147.006 81.967 147.098 81.2003V73.3343C146.638 72.1076 145.933 71.019 144.982 70.0683C144.062 69.087 143.019 68.3356 141.854 67.8143C140.689 67.2623 139.493 66.9863 138.266 66.9863C136.825 66.9863 135.537 67.293 134.402 67.9063C133.267 68.5196 132.301 69.3323 131.504 70.3443C130.737 71.3256 130.139 72.445 129.71 73.7023C129.311 74.929 129.112 76.1556 129.112 77.3823C129.112 78.7623 129.357 80.0656 129.848 81.2923C130.339 82.519 131.013 83.623 131.872 84.6043C132.761 85.555 133.773 86.3063 134.908 86.8583C136.073 87.3796 137.315 87.6403 138.634 87.6403ZM181.336 80.7863C181.336 82.381 180.937 83.8223 180.14 85.1103C179.373 86.3676 178.315 87.3796 176.966 88.1463C175.647 88.8823 174.175 89.2503 172.55 89.2503H157.278V56.5903H172.504C174.037 56.5903 175.356 57.0043 176.46 57.8323C177.595 58.6296 178.453 59.6723 179.036 60.9603C179.649 62.2176 179.956 63.5363 179.956 64.9163C179.956 66.5416 179.542 68.0596 178.714 69.4703C177.886 70.8503 176.736 71.8623 175.264 72.5063C177.135 73.0583 178.607 74.101 179.68 75.6343C180.784 77.137 181.336 78.8543 181.336 80.7863ZM178.99 80.4643C178.99 79.299 178.714 78.2103 178.162 77.1983C177.641 76.1863 176.92 75.3583 176 74.7143C175.08 74.0703 174.037 73.7483 172.872 73.7483H159.624V87.1343H172.55C173.746 87.1343 174.835 86.8276 175.816 86.2143C176.797 85.5703 177.564 84.7423 178.116 83.7303C178.699 82.6876 178.99 81.599 178.99 80.4643ZM159.624 58.7063V71.7703H171.584C172.78 71.7703 173.823 71.4636 174.712 70.8503C175.632 70.2063 176.353 69.3936 176.874 68.4123C177.395 67.4003 177.656 66.3423 177.656 65.2383C177.656 64.0423 177.411 62.9536 176.92 61.9723C176.429 60.991 175.739 60.209 174.85 59.6263C173.991 59.013 172.995 58.7063 171.86 58.7063H159.624ZM185.067 82.3503C185.067 80.909 185.496 79.667 186.355 78.6243C187.214 77.551 188.394 76.723 189.897 76.1403C191.4 75.527 193.132 75.2203 195.095 75.2203C196.322 75.2203 197.594 75.3276 198.913 75.5423C200.232 75.757 201.412 76.0483 202.455 76.4163V74.1623C202.455 71.9543 201.811 70.191 200.523 68.8723C199.266 67.5536 197.518 66.8943 195.279 66.8943C194.083 66.8943 192.841 67.1396 191.553 67.6303C190.265 68.121 188.946 68.8263 187.597 69.7463L186.631 68.0903C188.195 67.0476 189.698 66.2656 191.139 65.7443C192.611 65.1923 194.068 64.9163 195.509 64.9163C198.361 64.9163 200.615 65.7596 202.271 67.4463C203.927 69.133 204.755 71.433 204.755 74.3463V86.2143C204.755 86.5823 204.832 86.8583 204.985 87.0423C205.169 87.2263 205.43 87.3336 205.767 87.3643V89.2503C205.491 89.281 205.261 89.2963 205.077 89.2963C204.893 89.2963 204.74 89.2963 204.617 89.2963C204.034 89.2043 203.574 88.959 203.237 88.5603C202.93 88.1616 202.762 87.717 202.731 87.2263V85.3403C201.627 86.7203 200.201 87.7936 198.453 88.5603C196.736 89.327 194.926 89.7103 193.025 89.7103C191.522 89.7103 190.158 89.3883 188.931 88.7443C187.735 88.1003 186.784 87.2263 186.079 86.1223C185.404 84.9876 185.067 83.7303 185.067 82.3503ZM201.535 84.3283C201.842 83.9296 202.072 83.5463 202.225 83.1783C202.378 82.8103 202.455 82.473 202.455 82.1663V78.2103C201.351 77.781 200.201 77.459 199.005 77.2443C197.809 77.0296 196.582 76.9223 195.325 76.9223C192.933 76.9223 190.986 77.3976 189.483 78.3483C188.011 79.299 187.275 80.587 187.275 82.2123C187.275 83.2243 187.536 84.1596 188.057 85.0183C188.578 85.877 189.299 86.567 190.219 87.0883C191.17 87.6096 192.258 87.8703 193.485 87.8703C195.202 87.8703 196.782 87.5483 198.223 86.9043C199.695 86.2296 200.799 85.371 201.535 84.3283ZM231.302 89.2503H229.002V75.9103C229.002 72.8436 228.557 70.605 227.668 69.1943C226.809 67.753 225.429 67.0323 223.528 67.0323C222.179 67.0323 220.845 67.3543 219.526 67.9983C218.238 68.6423 217.103 69.5316 216.122 70.6663C215.171 71.7703 214.481 73.0276 214.052 74.4383V89.2503H211.752V65.3303H213.914V71.0343C214.558 69.8076 215.417 68.7496 216.49 67.8603C217.563 66.9403 218.759 66.2196 220.078 65.6983C221.397 65.177 222.761 64.9163 224.172 64.9163C225.491 64.9163 226.595 65.1616 227.484 65.6523C228.404 66.1123 229.14 66.787 229.692 67.6763C230.275 68.5656 230.689 69.6696 230.934 70.9883C231.179 72.307 231.302 73.8096 231.302 75.4963V89.2503ZM247.916 89.6183C246.291 89.6183 244.773 89.281 243.362 88.6063C241.982 87.9316 240.786 87.0116 239.774 85.8463C238.793 84.6503 238.011 83.3316 237.428 81.8903C236.876 80.4183 236.6 78.9003 236.6 77.3363C236.6 75.711 236.861 74.147 237.382 72.6443C237.934 71.1416 238.701 69.823 239.682 68.6883C240.694 67.523 241.875 66.603 243.224 65.9283C244.573 65.2536 246.076 64.9163 247.732 64.9163C249.817 64.9163 251.627 65.4683 253.16 66.5723C254.724 67.6456 256.043 68.9643 257.116 70.5283V65.3303H259.232V89.7103C259.232 91.857 258.711 93.6663 257.668 95.1383C256.625 96.6103 255.245 97.699 253.528 98.4043C251.811 99.1403 249.955 99.5083 247.962 99.5083C245.171 99.5083 242.948 99.0023 241.292 97.9903C239.667 96.9783 238.348 95.6443 237.336 93.9883L238.9 92.9303C239.851 94.525 241.139 95.7056 242.764 96.4723C244.389 97.239 246.122 97.6223 247.962 97.6223C249.587 97.6223 251.075 97.3156 252.424 96.7023C253.804 96.1196 254.893 95.2303 255.69 94.0343C256.518 92.869 256.932 91.4276 256.932 89.7103V84.4663C255.981 86.0303 254.678 87.2876 253.022 88.2383C251.397 89.1583 249.695 89.6183 247.916 89.6183ZM248.468 87.6403C249.48 87.6403 250.461 87.4563 251.412 87.0883C252.363 86.7203 253.237 86.2296 254.034 85.6163C254.831 84.9723 255.491 84.267 256.012 83.5003C256.533 82.7336 256.84 81.967 256.932 81.2003V73.3343C256.472 72.1076 255.767 71.019 254.816 70.0683C253.896 69.087 252.853 68.3356 251.688 67.8143C250.523 67.2623 249.327 66.9863 248.1 66.9863C246.659 66.9863 245.371 67.293 244.236 67.9063C243.101 68.5196 242.135 69.3323 241.338 70.3443C240.571 71.3256 239.973 72.445 239.544 73.7023C239.145 74.929 238.946 76.1556 238.946 77.3823C238.946 78.7623 239.191 80.0656 239.682 81.2923C240.173 82.519 240.847 83.623 241.706 84.6043C242.595 85.555 243.607 86.3063 244.742 86.8583C245.907 87.3796 247.149 87.6403 248.468 87.6403ZM276.772 89.7103C274.809 89.7103 273.046 89.3883 271.482 88.7443C269.918 88.0696 268.584 87.1496 267.48 85.9843C266.407 84.819 265.579 83.485 264.996 81.9823C264.413 80.4796 264.122 78.9003 264.122 77.2443C264.122 75.5576 264.413 73.963 264.996 72.4603C265.579 70.9576 266.407 69.6236 267.48 68.4583C268.584 67.293 269.918 66.3883 271.482 65.7443C273.046 65.0696 274.809 64.7323 276.772 64.7323C278.735 64.7323 280.483 65.0696 282.016 65.7443C283.58 66.3883 284.914 67.293 286.018 68.4583C287.122 69.6236 287.95 70.9576 288.502 72.4603C289.085 73.963 289.376 75.5576 289.376 77.2443C289.376 78.9003 289.085 80.4796 288.502 81.9823C287.95 83.485 287.122 84.819 286.018 85.9843C284.945 87.1496 283.626 88.0696 282.062 88.7443C280.498 89.3883 278.735 89.7103 276.772 89.7103ZM270.47 77.2443C270.47 78.655 270.746 79.9123 271.298 81.0163C271.85 82.0896 272.601 82.933 273.552 83.5463C274.503 84.1596 275.576 84.4663 276.772 84.4663C277.937 84.4663 278.995 84.1596 279.946 83.5463C280.897 82.9023 281.648 82.0436 282.2 80.9703C282.783 79.8663 283.074 78.609 283.074 77.1983C283.074 75.8183 282.783 74.5763 282.2 73.4723C281.648 72.3683 280.897 71.5096 279.946 70.8963C278.995 70.283 277.937 69.9763 276.772 69.9763C275.576 69.9763 274.503 70.2983 273.552 70.9423C272.601 71.5556 271.85 72.4143 271.298 73.5183C270.746 74.5916 270.47 75.8336 270.47 77.2443Z" fill="white"/>
<path d="M115.544 41.1746L117.385 34.0081H118.35L118.242 35.8553L116.274 43.2503H115.271L115.544 41.1746ZM114.167 34.0081L115.658 41.1175L115.792 43.2503H114.725L112.586 34.0081H114.167ZM120.438 41.0984L121.911 34.0081H123.498L121.358 43.2503H120.292L120.438 41.0984ZM118.724 34.0081L120.546 41.1937L120.813 43.2503H119.81L117.874 35.8553L117.772 34.0081H118.724ZM138.528 41.9871V43.2503H133.621V41.9871H138.528ZM134.072 34.0081V43.2503H132.478V34.0081H134.072ZM137.887 37.8675V39.1116H133.621V37.8675H137.887ZM138.496 34.0081V35.2776H133.621V34.0081H138.496ZM153.418 41.9871V43.2503H148.778V41.9871H153.418ZM149.222 34.0081V43.2503H147.629V34.0081H149.222ZM167.489 40.2415H169.076C169.026 40.8467 168.856 41.3862 168.569 41.8602C168.281 42.3299 167.877 42.7002 167.356 42.971C166.836 43.2418 166.203 43.3773 165.458 43.3773C164.887 43.3773 164.373 43.2757 163.916 43.0726C163.459 42.8652 163.067 42.5732 162.741 42.1966C162.416 41.8157 162.166 41.3566 161.992 40.8192C161.823 40.2817 161.738 39.6808 161.738 39.0164V38.2484C161.738 37.584 161.825 36.9831 161.999 36.4456C162.176 35.9082 162.43 35.449 162.76 35.0682C163.091 34.6831 163.486 34.389 163.947 34.1859C164.413 33.9827 164.936 33.8812 165.515 33.8812C166.252 33.8812 166.874 34.0166 167.382 34.2874C167.889 34.5582 168.283 34.9328 168.562 35.4109C168.846 35.8891 169.019 36.4372 169.083 37.055H167.496C167.453 36.6572 167.36 36.3165 167.217 36.033C167.077 35.7495 166.87 35.5337 166.594 35.3856C166.319 35.2332 165.96 35.157 165.515 35.157C165.151 35.157 164.834 35.2248 164.563 35.3602C164.292 35.4956 164.066 35.6945 163.884 35.9568C163.702 36.2192 163.564 36.5429 163.471 36.928C163.383 37.3089 163.338 37.7448 163.338 38.2357V39.0164C163.338 39.4819 163.378 39.9051 163.459 40.2859C163.543 40.6626 163.67 40.9863 163.84 41.2571C164.013 41.528 164.233 41.7374 164.5 41.8856C164.766 42.0337 165.086 42.1077 165.458 42.1077C165.911 42.1077 166.277 42.0358 166.556 41.8919C166.84 41.748 167.054 41.5386 167.197 41.2635C167.346 40.9842 167.443 40.6435 167.489 40.2415ZM185.693 38.3753V38.8831C185.693 39.5814 185.602 40.2077 185.42 40.762C185.238 41.3164 184.978 41.7882 184.64 42.1776C184.305 42.5669 183.903 42.8652 183.433 43.0726C182.964 43.2757 182.443 43.3773 181.872 43.3773C181.305 43.3773 180.787 43.2757 180.317 43.0726C179.851 42.8652 179.447 42.5669 179.104 42.1776C178.762 41.7882 178.495 41.3164 178.305 40.762C178.118 40.2077 178.025 39.5814 178.025 38.8831V38.3753C178.025 37.6771 178.118 37.0529 178.305 36.5027C178.491 35.9484 178.753 35.4765 179.092 35.0872C179.434 34.6937 179.839 34.3953 180.304 34.1922C180.774 33.9848 181.292 33.8812 181.859 33.8812C182.431 33.8812 182.951 33.9848 183.421 34.1922C183.891 34.3953 184.295 34.6937 184.633 35.0872C184.972 35.4765 185.232 35.9484 185.414 36.5027C185.6 37.0529 185.693 37.6771 185.693 38.3753ZM184.1 38.8831V38.3626C184.1 37.8463 184.049 37.3914 183.948 36.9979C183.85 36.6001 183.704 36.2679 183.51 36.0013C183.319 35.7304 183.084 35.5273 182.805 35.3919C182.526 35.2523 182.211 35.1824 181.859 35.1824C181.508 35.1824 181.195 35.2523 180.92 35.3919C180.645 35.5273 180.41 35.7304 180.215 36.0013C180.025 36.2679 179.879 36.6001 179.777 36.9979C179.676 37.3914 179.625 37.8463 179.625 38.3626V38.8831C179.625 39.3994 179.676 39.8564 179.777 40.2542C179.879 40.652 180.027 40.9884 180.222 41.2635C180.42 41.5343 180.657 41.7396 180.933 41.8792C181.208 42.0146 181.521 42.0823 181.872 42.0823C182.227 42.0823 182.543 42.0146 182.818 41.8792C183.093 41.7396 183.326 41.5343 183.516 41.2635C183.706 40.9884 183.85 40.652 183.948 40.2542C184.049 39.8564 184.1 39.3994 184.1 38.8831ZM195.734 34.0081H197.156L199.828 41.1365L202.494 34.0081H203.916L200.387 43.2503H199.257L195.734 34.0081ZM195.087 34.0081H196.439L196.673 40.178V43.2503H195.087V34.0081ZM203.212 34.0081H204.57V43.2503H202.977V40.178L203.212 34.0081ZM220.311 41.9871V43.2503H215.404V41.9871H220.311ZM215.855 34.0081V43.2503H214.262V34.0081H215.855ZM219.67 37.8675V39.1116H215.404V37.8675H219.67ZM220.279 34.0081V35.2776H215.404V34.0081H220.279ZM243.947 34.0081V43.2503H242.366V34.0081H243.947ZM246.848 34.0081V35.2776H239.491V34.0081H246.848ZM263.059 38.3753V38.8831C263.059 39.5814 262.968 40.2077 262.786 40.762C262.604 41.3164 262.343 41.7882 262.005 42.1776C261.67 42.5669 261.268 42.8652 260.799 43.0726C260.329 43.2757 259.809 43.3773 259.237 43.3773C258.67 43.3773 258.152 43.2757 257.682 43.0726C257.217 42.8652 256.812 42.5669 256.47 42.1776C256.127 41.7882 255.86 41.3164 255.67 40.762C255.484 40.2077 255.391 39.5814 255.391 38.8831V38.3753C255.391 37.6771 255.484 37.0529 255.67 36.5027C255.856 35.9484 256.118 35.4765 256.457 35.0872C256.8 34.6937 257.204 34.3953 257.669 34.1922C258.139 33.9848 258.657 33.8812 259.225 33.8812C259.796 33.8812 260.316 33.9848 260.786 34.1922C261.256 34.3953 261.66 34.6937 261.998 35.0872C262.337 35.4765 262.597 35.9484 262.779 36.5027C262.965 37.0529 263.059 37.6771 263.059 38.3753ZM261.465 38.8831V38.3626C261.465 37.8463 261.414 37.3914 261.313 36.9979C261.216 36.6001 261.07 36.2679 260.875 36.0013C260.684 35.7304 260.45 35.5273 260.17 35.3919C259.891 35.2523 259.576 35.1824 259.225 35.1824C258.873 35.1824 258.56 35.2523 258.285 35.3919C258.01 35.5273 257.775 35.7304 257.58 36.0013C257.39 36.2679 257.244 36.6001 257.142 36.9979C257.041 37.3914 256.99 37.8463 256.99 38.3626V38.8831C256.99 39.3994 257.041 39.8564 257.142 40.2542C257.244 40.652 257.392 40.9884 257.587 41.2635C257.786 41.5343 258.023 41.7396 258.298 41.8792C258.573 42.0146 258.886 42.0823 259.237 42.0823C259.593 42.0823 259.908 42.0146 260.183 41.8792C260.458 41.7396 260.691 41.5343 260.881 41.2635C261.072 40.9884 261.216 40.652 261.313 40.2542C261.414 39.8564 261.465 39.3994 261.465 38.8831Z" fill="white"/>
<path d="M50.8758 50.3642L11.2878 58.6738L0.696821 8.30963L40.2847 -1.84216e-05L50.8758 50.3642Z" fill="#F5F9FD"/>
<path d="M43.196 25.0459L8.12012 32.4084L3.56213 10.7336L38.638 3.37102L43.196 25.0459Z" fill="#DDE9F5"/>
<path d="M43.2476 31.3468L10.6094 38.1977L10.3261 36.8505L42.9643 29.9997L43.2476 31.3468Z" fill="#6C8EAB" fill-opacity="0.4"/>
<path d="M43.959 34.7287L11.3208 41.5796L11.0375 40.2325L43.6758 33.3816L43.959 34.7287Z" fill="#6C8EAB" fill-opacity="0.4"/>
<path d="M44.6705 38.1119L12.0322 44.9628L11.7489 43.6157L44.3872 36.7648L44.6705 38.1119Z" fill="#6C8EAB" fill-opacity="0.4"/>
<path d="M45.3819 41.4951L12.7437 48.346L12.4604 46.9989L45.0986 40.148L45.3819 41.4951Z" fill="#6C8EAB" fill-opacity="0.4"/>
<path d="M46.095 44.879L13.4568 51.7298L13.1735 50.3827L45.8117 43.5318L46.095 44.879Z" fill="#6C8EAB" fill-opacity="0.4"/>
<path d="M363.54 48.9992L332.712 41.7655L321.211 90.618L363.693 100.587L373.285 59.8536L363.54 48.9992Z" fill="#F5F9FD"/>
<path d="M351.953 65.6415L332.121 60.9875L332.88 57.7674L352.712 62.4214L351.953 65.6415Z" fill="#6C8EAB" fill-opacity="0.2"/>
<path d="M365.98 74.1587L330.955 65.9393L331.713 62.7192L366.738 70.9387L365.98 74.1587Z" fill="#6C8EAB" fill-opacity="0.2"/>
<path d="M364.815 79.1106L329.79 70.8912L330.548 67.6711L365.573 75.8906L364.815 79.1106Z" fill="#6C8EAB" fill-opacity="0.2"/>
<path d="M363.649 84.0623L328.625 75.8429L329.383 72.6229L364.408 80.8423L363.649 84.0623Z" fill="#6C8EAB" fill-opacity="0.2"/>
<path d="M363.541 48.9991L363.22 58.3937L373.285 59.8536L363.541 48.9991Z" fill="#DDE9F5"/>
</svg>
