<svg width="356" height="111" viewBox="0 0 356 111" fill="none" xmlns="http://www.w3.org/2000/svg">
<g opacity="0.1">
<rect width="30.9186" height="31.0888" rx="5" fill="white"/>
<path d="M15.8305 9.28758L10.6528 23.5425H8.5366L14.4985 7.90184H15.8628L15.8305 9.28758ZM20.1704 23.5425L14.9819 9.28758L14.9497 7.90184H16.3139L22.2973 23.5425H20.1704ZM19.9018 17.7524V19.4497H11.1147V17.7524H19.9018Z" fill="#233142"/>
<rect x="216.43" width="30.9186" height="31.0888" rx="5" fill="white"/>
<path d="M237.707 15.7544V21.48C237.514 21.7664 237.206 22.0887 236.783 22.4468C236.361 22.7977 235.777 23.1056 235.032 23.3706C234.295 23.6284 233.342 23.7573 232.175 23.7573C231.222 23.7573 230.345 23.5926 229.543 23.2632C228.748 22.9266 228.057 22.4396 227.47 21.8022C226.89 21.1577 226.438 20.3771 226.116 19.4604C225.801 18.5366 225.644 17.491 225.644 16.3237V15.1098C225.644 13.9425 225.78 12.9005 226.052 11.9839C226.331 11.0672 226.739 10.2902 227.276 9.65282C227.813 9.00829 228.472 8.52131 229.253 8.19188C230.034 7.85529 230.929 7.687 231.938 7.687C233.134 7.687 234.133 7.89468 234.936 8.31004C235.745 8.71825 236.375 9.284 236.826 10.0073C237.284 10.7306 237.578 11.5542 237.707 12.478H235.634C235.541 11.9123 235.354 11.3966 235.075 10.9311C234.803 10.4656 234.413 10.0932 233.904 9.81395C233.396 9.52749 232.741 9.38426 231.938 9.38426C231.215 9.38426 230.589 9.51675 230.059 9.78172C229.529 10.0467 229.092 10.4263 228.748 10.9204C228.404 11.4145 228.146 12.0125 227.975 12.7143C227.81 13.4162 227.728 14.2075 227.728 15.0884V16.3237C227.728 17.2261 227.831 18.0317 228.039 18.7407C228.254 19.4497 228.558 20.0548 228.952 20.5561C229.346 21.0503 229.815 21.4263 230.359 21.6841C230.911 21.9419 231.52 22.0708 232.186 22.0708C232.923 22.0708 233.521 22.0099 233.979 21.8882C234.438 21.7593 234.796 21.6089 235.054 21.437C235.312 21.258 235.508 21.0897 235.645 20.9321V17.4302H232.024V15.7544H237.707Z" fill="#233142"/>
<rect x="108.215" width="30.9186" height="31.0888" rx="5" fill="white"/>
<path d="M122.445 23.5425H119.179L119.201 21.8559H122.445C123.562 21.8559 124.493 21.6232 125.238 21.1577C125.983 20.685 126.541 20.0262 126.914 19.1811C127.293 18.3289 127.483 17.3335 127.483 16.1948V15.2388C127.483 14.3436 127.376 13.5487 127.161 12.854C126.946 12.1522 126.631 11.5613 126.216 11.0815C125.8 10.5945 125.292 10.2257 124.69 9.97508C124.096 9.72443 123.412 9.59911 122.638 9.59911H119.115V7.90184H122.638C123.662 7.90184 124.597 8.07372 125.442 8.41747C126.287 8.75405 127.014 9.24461 127.623 9.88914C128.239 10.5265 128.711 11.3 129.041 12.2095C129.37 13.1118 129.535 14.1287 129.535 15.2602V16.1948C129.535 17.3263 129.37 18.3468 129.041 19.2563C128.711 20.1587 128.235 20.9285 127.612 21.5659C126.996 22.2033 126.251 22.6938 125.378 23.0376C124.511 23.3742 123.534 23.5425 122.445 23.5425ZM120.286 7.90184V23.5425H118.213V7.90184H120.286Z" fill="#233142"/>
<rect x="324.646" width="30.9186" height="31.0888" rx="5" fill="white"/>
<path d="M342.356 18.977V7.90184H344.418V18.977C344.418 20.0083 344.207 20.8784 343.785 21.5874C343.362 22.2964 342.778 22.8371 342.034 23.2095C341.296 23.5747 340.447 23.7573 339.488 23.7573C338.528 23.7573 337.676 23.5926 336.931 23.2632C336.186 22.9337 335.603 22.4324 335.18 21.7593C334.758 21.0861 334.546 20.2375 334.546 19.2134H336.62C336.62 19.8722 336.741 20.4129 336.985 20.8354C337.228 21.258 337.565 21.5695 337.995 21.77C338.431 21.9705 338.929 22.0708 339.488 22.0708C340.032 22.0708 340.519 21.9562 340.949 21.727C341.386 21.4907 341.729 21.1434 341.98 20.685C342.231 20.2195 342.356 19.6502 342.356 18.977Z" fill="#233142"/>
<rect x="72.1436" width="30.9186" height="31.0888" rx="5" fill="white"/>
<path d="M91.6372 18.5688H93.6997C93.5923 19.5571 93.3094 20.4416 92.8511 21.2222C92.3927 22.0028 91.7446 22.6222 90.9067 23.0806C90.0688 23.5317 89.0233 23.7573 87.77 23.7573C86.8533 23.7573 86.019 23.5854 85.2671 23.2417C84.5223 22.8979 83.8813 22.411 83.3442 21.7807C82.8071 21.1434 82.3917 20.3807 82.0981 19.4927C81.8117 18.5975 81.6684 17.602 81.6684 16.5063V14.9487C81.6684 13.853 81.8117 12.8612 82.0981 11.9731C82.3917 11.0779 82.8107 10.3117 83.355 9.6743C83.9064 9.03693 84.5688 8.54637 85.3423 8.20262C86.1157 7.85887 86.9858 7.687 87.9526 7.687C89.1343 7.687 90.1333 7.909 90.9497 8.35301C91.7661 8.79702 92.3999 9.41291 92.8511 10.2007C93.3094 10.9813 93.5923 11.8872 93.6997 12.9184H91.6372C91.5369 12.188 91.3507 11.5613 91.0786 11.0386C90.8065 10.5086 90.4197 10.1004 89.9184 9.81395C89.4171 9.52749 88.7619 9.38426 87.9526 9.38426C87.258 9.38426 86.6457 9.51675 86.1157 9.78172C85.5929 10.0467 85.1525 10.4227 84.7944 10.9097C84.4435 11.3966 84.1785 11.9803 83.9995 12.6606C83.8205 13.341 83.7309 14.0965 83.7309 14.9272V16.5063C83.7309 17.2726 83.8097 17.9923 83.9673 18.6655C84.132 19.3387 84.3791 19.9295 84.7085 20.438C85.0379 20.9464 85.4568 21.3475 85.9653 21.6411C86.4738 21.9276 87.0753 22.0708 87.77 22.0708C88.6509 22.0708 89.3527 21.9311 89.8755 21.6518C90.3983 21.3725 90.7921 20.9715 91.0571 20.4487C91.3292 19.9259 91.5226 19.2993 91.6372 18.5688Z" fill="#233142"/>
<rect x="288.574" width="30.9186" height="31.0888" rx="5" fill="white"/>
<path d="M305.017 7.90184V23.5425H302.943V7.90184H305.017Z" fill="#233142"/>
<rect x="180.359" width="30.9186" height="31.0888" rx="5" fill="white"/>
<path d="M193.568 7.90184V23.5425H191.495V7.90184H193.568ZM200.121 14.938V16.6352H193.117V14.938H200.121ZM201.184 7.90184V9.59911H193.117V7.90184H201.184Z" fill="#233142"/>
<rect x="36.0718" width="30.9186" height="31.0888" rx="5" fill="white"/>
<path d="M52.0097 16.227H48.0459L48.0244 14.562H51.623C52.2174 14.562 52.7366 14.4617 53.1806 14.2612C53.6247 14.0607 53.9684 13.7742 54.2119 13.4018C54.4625 13.0223 54.5879 12.5711 54.5879 12.0483C54.5879 11.4754 54.4769 11.0099 54.2549 10.6518C54.04 10.2866 53.707 10.0216 53.2558 9.85692C52.8118 9.68504 52.2461 9.59911 51.5586 9.59911H48.5078V23.5425H46.4346V7.90184H51.5586C52.3607 7.90184 53.0768 7.9842 53.707 8.14891C54.3372 8.30646 54.8707 8.55711 55.3076 8.90086C55.7516 9.23745 56.0882 9.66714 56.3174 10.1899C56.5465 10.7127 56.6611 11.3393 56.6611 12.0698C56.6611 12.7143 56.4964 13.298 56.167 13.8208C55.8375 14.3364 55.3792 14.7589 54.792 15.0884C54.2119 15.4178 53.5316 15.6291 52.751 15.7222L52.0097 16.227ZM51.9131 23.5425H47.2295L48.4004 21.8559H51.9131C52.5719 21.8559 53.1305 21.7414 53.5888 21.5122C54.0543 21.283 54.4088 20.9608 54.6523 20.5454C54.8958 20.1229 55.0176 19.6251 55.0176 19.0522C55.0176 18.4722 54.9137 17.9709 54.706 17.5483C54.4984 17.1258 54.1725 16.8 53.7285 16.5708C53.2845 16.3416 52.7116 16.227 52.0097 16.227H49.0556L49.0771 14.562H53.1162L53.5566 15.1636C54.3086 15.228 54.9459 15.4429 55.4687 15.8081C55.9915 16.1662 56.389 16.6245 56.6611 17.1831C56.9404 17.7417 57.0801 18.3576 57.0801 19.0307C57.0801 20.0047 56.8652 20.8283 56.4355 21.5014C56.013 22.1675 55.415 22.6759 54.6416 23.0268C53.8681 23.3706 52.9586 23.5425 51.9131 23.5425Z" fill="#233142"/>
<rect x="252.502" width="30.9186" height="31.0888" rx="5" fill="white"/>
<path d="M272.082 14.6264V16.313H263.617V14.6264H272.082ZM263.939 7.90184V23.5425H261.866V7.90184H263.939ZM273.886 7.90184V23.5425H271.824V7.90184H273.886Z" fill="#233142"/>
<rect x="144.287" width="30.9186" height="31.0888" rx="5" fill="white"/>
<path d="M165.188 21.8559V23.5425H156.905V21.8559H165.188ZM157.324 7.90184V23.5425H155.251V7.90184H157.324ZM164.092 14.6264V16.313H156.905V14.6264H164.092ZM165.08 7.90184V9.59911H156.905V7.90184H165.08Z" fill="#233142"/>
<rect x="18.0359" y="39.7246" width="30.9186" height="31.0888" rx="5" fill="white"/>
<path d="M30.4182 47.6264V63.2671H28.345V47.6264H30.4182ZM39.8606 47.6264L33.3616 54.9204L29.7092 58.7124L29.3655 56.4995L32.1155 53.4702L37.3684 47.6264H39.8606ZM37.8625 63.2671L32.0725 55.6401L33.3078 53.9966L40.3332 63.2671H37.8625Z" fill="#233142"/>
<rect x="234.466" y="39.7246" width="30.9186" height="31.0888" rx="5" fill="white"/>
<path d="M252.134 61.4731L256.108 64.6206L254.712 65.9097L250.802 62.8052L252.134 61.4731ZM256.055 54.9526V55.9409C256.055 57.1154 255.908 58.1681 255.614 59.0991C255.321 60.0301 254.898 60.8215 254.347 61.4731C253.795 62.1248 253.133 62.6226 252.359 62.9663C251.593 63.3101 250.734 63.4819 249.781 63.4819C248.857 63.4819 248.009 63.3101 247.235 62.9663C246.469 62.6226 245.803 62.1248 245.237 61.4731C244.679 60.8215 244.245 60.0301 243.937 59.0991C243.63 58.1681 243.476 57.1154 243.476 55.9409V54.9526C243.476 53.7782 243.626 52.729 243.927 51.8052C244.235 50.8742 244.668 50.0828 245.227 49.4312C245.785 48.7723 246.448 48.271 247.214 47.9272C247.987 47.5835 248.836 47.4116 249.76 47.4116C250.712 47.4116 251.575 47.5835 252.349 47.9272C253.122 48.271 253.784 48.7723 254.336 49.4312C254.887 50.0828 255.31 50.8742 255.603 51.8052C255.904 52.729 256.055 53.7782 256.055 54.9526ZM254.003 55.9409V54.9312C254.003 54.0002 253.906 53.1766 253.713 52.4604C253.527 51.7443 253.251 51.1427 252.886 50.6558C252.52 50.1688 252.076 49.8 251.554 49.5493C251.031 49.2987 250.433 49.1733 249.76 49.1733C249.122 49.1733 248.542 49.2987 248.02 49.5493C247.504 49.8 247.06 50.1688 246.687 50.6558C246.315 51.1427 246.029 51.7443 245.828 52.4604C245.628 53.1766 245.527 54.0002 245.527 54.9312V55.9409C245.527 56.8791 245.628 57.7098 245.828 58.4331C246.029 59.1493 246.315 59.7544 246.687 60.2485C247.067 60.7355 247.518 61.1043 248.041 61.355C248.564 61.6056 249.144 61.731 249.781 61.731C250.454 61.731 251.052 61.6056 251.575 61.355C252.098 61.1043 252.538 60.7355 252.896 60.2485C253.262 59.7544 253.537 59.1493 253.724 58.4331C253.91 57.7098 254.003 56.8791 254.003 55.9409Z" fill="#233142"/>
<rect x="126.251" y="39.7246" width="30.9186" height="31.0888" rx="5" fill="white"/>
<path d="M147.646 47.6264V63.2671H145.562L137.688 51.2036V63.2671H135.615V47.6264H137.688L145.594 59.7222V47.6264H147.646Z" fill="#233142"/>
<rect x="90.1792" y="39.7246" width="30.9186" height="31.0888" rx="5" fill="white"/>
<path d="M98.4472 47.6264H100.456L105.58 60.3774L110.693 47.6264H112.713L106.353 63.2671H104.785L98.4472 47.6264ZM97.792 47.6264H99.5644L99.8545 57.1655V63.2671H97.792V47.6264ZM111.585 47.6264H113.357V63.2671H111.295V57.1655L111.585 47.6264Z" fill="#233142"/>
<rect x="306.61" y="39.7246" width="30.9186" height="31.0888" rx="5" fill="white"/>
<path d="M325.631 59.314C325.631 58.9487 325.573 58.6265 325.459 58.3472C325.351 58.0607 325.158 57.8029 324.879 57.5737C324.607 57.3446 324.227 57.1261 323.74 56.9185C323.26 56.7108 322.651 56.4995 321.914 56.2847C321.14 56.0555 320.442 55.8013 319.819 55.522C319.196 55.2355 318.662 54.9097 318.218 54.5444C317.774 54.1792 317.434 53.7603 317.198 53.2876C316.962 52.8149 316.843 52.2743 316.843 51.6655C316.843 51.0568 316.969 50.4946 317.219 49.979C317.47 49.4634 317.828 49.0158 318.294 48.6362C318.766 48.2495 319.329 47.9487 319.98 47.7339C320.632 47.519 321.359 47.4116 322.161 47.4116C323.335 47.4116 324.331 47.6372 325.147 48.0884C325.971 48.5324 326.597 49.116 327.027 49.8394C327.457 50.5555 327.672 51.3218 327.672 52.1382H325.609C325.609 51.5509 325.484 51.0317 325.233 50.5806C324.982 50.1222 324.603 49.7642 324.094 49.5063C323.586 49.2414 322.941 49.1089 322.161 49.1089C321.423 49.1089 320.815 49.2199 320.335 49.4419C319.855 49.6639 319.497 49.9647 319.26 50.3442C319.031 50.7238 318.917 51.1571 318.917 51.644C318.917 51.9735 318.985 52.2743 319.121 52.5464C319.264 52.8114 319.482 53.0584 319.776 53.2876C320.077 53.5168 320.456 53.728 320.915 53.9214C321.38 54.1147 321.935 54.3009 322.58 54.48C323.468 54.7306 324.234 55.0099 324.879 55.3179C325.523 55.6258 326.053 55.9731 326.468 56.3599C326.891 56.7394 327.203 57.1727 327.403 57.6597C327.611 58.1395 327.715 58.6838 327.715 59.2925C327.715 59.9299 327.586 60.5063 327.328 61.022C327.07 61.5376 326.701 61.978 326.221 62.3433C325.742 62.7085 325.165 62.9914 324.492 63.1919C323.826 63.3853 323.081 63.4819 322.258 63.4819C321.534 63.4819 320.822 63.3817 320.12 63.1812C319.425 62.9806 318.791 62.6799 318.218 62.2788C317.653 61.8778 317.198 61.3836 316.854 60.7964C316.518 60.202 316.349 59.5145 316.349 58.7339H318.412C318.412 59.271 318.516 59.7329 318.723 60.1196C318.931 60.4992 319.214 60.8143 319.572 61.0649C319.937 61.3156 320.349 61.5018 320.807 61.6235C321.273 61.7381 321.756 61.7954 322.258 61.7954C322.981 61.7954 323.593 61.6951 324.094 61.4946C324.596 61.2941 324.975 61.0076 325.233 60.6353C325.498 60.2629 325.631 59.8224 325.631 59.314Z" fill="#233142"/>
<rect x="198.395" y="39.7246" width="30.9186" height="31.0888" rx="5" fill="white"/>
<path d="M214.44 57.1333H210.261V55.4468H214.44C215.249 55.4468 215.904 55.3179 216.406 55.0601C216.907 54.8022 217.272 54.4442 217.501 53.9858C217.738 53.5275 217.856 53.0047 217.856 52.4175C217.856 51.8804 217.738 51.3755 217.501 50.9028C217.272 50.4302 216.907 50.0506 216.406 49.7642C215.904 49.4705 215.249 49.3237 214.44 49.3237H210.745V63.2671H208.671V47.6265H214.44C215.622 47.6265 216.621 47.8306 217.437 48.2388C218.253 48.647 218.873 49.2127 219.295 49.936C219.718 50.6522 219.929 51.4722 219.929 52.396C219.929 53.3986 219.718 54.2544 219.295 54.9634C218.873 55.6724 218.253 56.2131 217.437 56.5854C216.621 56.9507 215.622 57.1333 214.44 57.1333Z" fill="#233142"/>
<rect x="54.1077" y="39.7246" width="30.9186" height="31.0888" rx="5" fill="white"/>
<path d="M74.8796 61.5806V63.2671H67.0593V61.5806H74.8796ZM67.4675 47.6264V63.2671H65.3943V47.6264H67.4675Z" fill="#233142"/>
<rect x="270.538" y="39.7246" width="30.9186" height="31.0888" rx="5" fill="white"/>
<path d="M280.976 47.6265H286.154C287.328 47.6265 288.32 47.8055 289.129 48.1636C289.946 48.5216 290.565 49.0516 290.988 49.7534C291.417 50.4481 291.632 51.3039 291.632 52.3208C291.632 53.0369 291.485 53.6922 291.192 54.2866C290.905 54.8739 290.49 55.3752 289.946 55.7905C289.409 56.1987 288.764 56.5031 288.012 56.7036L287.432 56.9292H282.566L282.544 55.2427H286.218C286.963 55.2427 287.583 55.1138 288.077 54.856C288.571 54.591 288.943 54.2365 289.194 53.7925C289.444 53.3485 289.57 52.8579 289.57 52.3208C289.57 51.7192 289.452 51.1929 289.215 50.7417C288.979 50.2905 288.607 49.9432 288.098 49.6997C287.597 49.4491 286.949 49.3237 286.154 49.3237H283.049V63.2671H280.976V47.6265ZM290.118 63.2671L286.315 56.1772L288.474 56.1665L292.331 63.1382V63.2671H290.118Z" fill="#233142"/>
<rect x="162.323" y="39.7246" width="30.9186" height="31.0888" rx="5" fill="white"/>
<path d="M184.008 54.9526V55.9409C184.008 57.1154 183.861 58.1681 183.567 59.0991C183.274 60.0301 182.851 60.8214 182.3 61.4731C181.748 62.1248 181.086 62.6225 180.312 62.9663C179.546 63.31 178.687 63.4819 177.734 63.4819C176.811 63.4819 175.962 63.31 175.188 62.9663C174.422 62.6225 173.756 62.1248 173.19 61.4731C172.632 60.8214 172.199 60.0301 171.891 59.0991C171.583 58.1681 171.429 57.1154 171.429 55.9409V54.9526C171.429 53.7781 171.579 52.729 171.88 51.8052C172.188 50.8742 172.621 50.0828 173.18 49.4311C173.738 48.7723 174.401 48.271 175.167 47.9272C175.94 47.5835 176.789 47.4116 177.713 47.4116C178.665 47.4116 179.525 47.5835 180.291 47.9272C181.064 48.271 181.727 48.7723 182.278 49.4311C182.837 50.0828 183.263 50.8742 183.557 51.8052C183.857 52.729 184.008 53.7781 184.008 54.9526ZM181.956 55.9409V54.9311C181.956 54.0001 181.859 53.1766 181.666 52.4604C181.48 51.7443 181.204 51.1427 180.839 50.6557C180.474 50.1688 180.026 49.8 179.496 49.5493C178.973 49.2987 178.379 49.1733 177.713 49.1733C177.068 49.1733 176.485 49.2987 175.962 49.5493C175.446 49.8 175.002 50.1688 174.63 50.6557C174.265 51.1427 173.982 51.7443 173.781 52.4604C173.581 53.1766 173.48 54.0001 173.48 54.9311V55.9409C173.48 56.8791 173.581 57.7098 173.781 58.4331C173.982 59.1492 174.268 59.7544 174.641 60.2485C175.02 60.7355 175.468 61.1043 175.983 61.355C176.506 61.6056 177.09 61.7309 177.734 61.7309C178.408 61.7309 179.006 61.6056 179.528 61.355C180.051 61.1043 180.492 60.7355 180.85 60.2485C181.215 59.7544 181.491 59.1492 181.677 58.4331C181.863 57.7098 181.956 56.8791 181.956 55.9409Z" fill="#233142"/>
<rect x="54.1077" y="79.4492" width="30.9186" height="31.0888" rx="5" fill="white"/>
<path d="M70.5398 87.3511V102.992H68.4988V87.3511H70.5398ZM75.5671 87.3511V89.0483H63.4822V87.3511H75.5671Z" fill="#233142"/>
<rect x="270.538" y="79.4492" width="30.9186" height="31.0888" rx="5" fill="white"/>
<path d="M291.654 101.305V102.992H281.062V101.305H291.654ZM291.31 88.855L281.556 102.992H280.278V101.445L290.021 87.3511H291.31V88.855ZM290.429 87.3511V89.0483H280.417V87.3511H290.429Z" fill="#233142"/>
<rect x="162.323" y="79.4492" width="30.9186" height="31.0888" rx="5" fill="white"/>
<path d="M173.889 98.2651L176.993 87.3511H178.497L177.627 91.5942L174.286 102.992H172.793L173.889 98.2651ZM170.677 87.3511L173.147 98.0503L173.889 102.992H172.406L168.614 87.3511H170.677ZM182.515 98.0395L184.932 87.3511H187.005L183.224 102.992H181.741L182.515 98.0395ZM178.723 87.3511L181.741 98.2651L182.837 102.992H181.344L178.121 91.5942L177.24 87.3511H178.723Z" fill="#233142"/>
<rect x="126.251" y="79.4492" width="30.9186" height="31.0888" rx="5" fill="white"/>
<path d="M141.512 100.618L146.121 87.3511H148.366L142.576 102.992H140.975L141.512 100.618ZM137.205 87.3511L141.77 100.618L142.339 102.992H140.739L134.959 87.3511H137.205Z" fill="#233142"/>
<rect x="234.466" y="79.4492" width="30.9186" height="31.0888" rx="5" fill="white"/>
<path d="M245.796 87.3511L249.856 95.2036L253.928 87.3511H256.28L250.888 97.1479V102.992H248.814V97.1479L243.422 87.3511H245.796Z" fill="#233142"/>
<rect x="90.1792" y="79.4492" width="30.9186" height="31.0888" rx="5" fill="white"/>
<path d="M109.211 87.3511H111.273V97.9321C111.273 99.1066 111.012 100.084 110.489 100.865C109.966 101.645 109.272 102.233 108.405 102.626C107.546 103.013 106.611 103.207 105.602 103.207C104.542 103.207 103.582 103.013 102.723 102.626C101.87 102.233 101.194 101.645 100.692 100.865C100.198 100.084 99.9512 99.1066 99.9512 97.9321V87.3511H102.003V97.9321C102.003 98.7485 102.153 99.4217 102.454 99.9516C102.755 100.482 103.174 100.875 103.711 101.133C104.255 101.391 104.885 101.52 105.602 101.52C106.325 101.52 106.955 101.391 107.492 101.133C108.036 100.875 108.459 100.482 108.76 99.9516C109.061 99.4217 109.211 98.7485 109.211 97.9321V87.3511Z" fill="#233142"/>
<rect x="198.395" y="79.4492" width="30.9186" height="31.0888" rx="5" fill="white"/>
<path d="M210.057 87.3511L213.817 93.3452L217.577 87.3511H219.994L215.052 95.0962L220.112 102.992H217.673L213.817 96.8794L209.96 102.992H207.522L212.582 95.0962L207.64 87.3511H210.057Z" fill="#233142"/>
</g>
</svg>
