<svg width="428" height="508" viewBox="0 0 428 508" fill="none" xmlns="http://www.w3.org/2000/svg">
<circle opacity="0.3" cx="214.5" cy="164.5" r="343.5" fill="white"/>
<circle opacity="0.3" cx="214.5" cy="164.5" r="274.486" fill="white"/>
<circle opacity="0.3" cx="214.5" cy="164.5" r="177.24" fill="white"/>
<circle opacity="0.89" cx="214.5" cy="164.5" r="123.911" fill="white"/>
<path d="M139.674 189.582C139.674 191.33 139.214 192.833 138.294 194.09C137.405 195.347 136.194 196.313 134.66 196.988C133.127 197.663 131.44 198 129.6 198H114.006V165.34H130.842C132.376 165.34 133.694 165.754 134.798 166.582C135.933 167.379 136.792 168.422 137.374 169.71C137.988 170.967 138.294 172.286 138.294 173.666C138.294 175.261 137.88 176.763 137.052 178.174C136.255 179.554 135.105 180.581 133.602 181.256C135.473 181.808 136.945 182.82 138.018 184.292C139.122 185.733 139.674 187.497 139.674 189.582ZM134.384 188.616C134.384 187.696 134.185 186.868 133.786 186.132C133.418 185.365 132.897 184.752 132.222 184.292C131.578 183.801 130.812 183.556 129.922 183.556H119.158V193.538H129.6C130.52 193.538 131.333 193.323 132.038 192.894C132.774 192.434 133.342 191.836 133.74 191.1C134.17 190.333 134.384 189.505 134.384 188.616ZM119.158 169.802V179.416H128.634C129.493 179.416 130.26 179.217 130.934 178.818C131.609 178.389 132.146 177.821 132.544 177.116C132.943 176.38 133.142 175.552 133.142 174.632C133.142 173.681 132.958 172.853 132.59 172.148C132.222 171.412 131.716 170.845 131.072 170.446C130.459 170.017 129.738 169.802 128.91 169.802H119.158ZM144.817 198V174.034H147.945V198H144.817ZM144.817 169.02V164.42H147.945V169.02H144.817ZM164.449 198.322C162.823 198.322 161.321 197.985 159.941 197.31C158.561 196.635 157.365 195.731 156.353 194.596C155.371 193.431 154.605 192.112 154.053 190.64C153.501 189.168 153.225 187.65 153.225 186.086C153.225 184.399 153.485 182.82 154.007 181.348C154.559 179.845 155.325 178.511 156.307 177.346C157.319 176.181 158.499 175.276 159.849 174.632C161.198 173.957 162.701 173.62 164.357 173.62C166.411 173.62 168.19 174.141 169.693 175.184C171.226 176.227 172.514 177.515 173.557 179.048V174.034H176.363V198.092C176.363 200.3 175.826 202.155 174.753 203.658C173.71 205.191 172.284 206.341 170.475 207.108C168.696 207.875 166.749 208.258 164.633 208.258C161.903 208.258 159.695 207.767 158.009 206.786C156.322 205.805 154.942 204.486 153.869 202.83L155.801 201.312C156.751 202.815 158.009 203.934 159.573 204.67C161.167 205.406 162.854 205.774 164.633 205.774C166.197 205.774 167.623 205.483 168.911 204.9C170.229 204.348 171.272 203.505 172.039 202.37C172.836 201.235 173.235 199.809 173.235 198.092V193.354C172.315 194.857 171.057 196.068 169.463 196.988C167.868 197.877 166.197 198.322 164.449 198.322ZM165.323 195.7C166.273 195.7 167.178 195.531 168.037 195.194C168.926 194.857 169.739 194.412 170.475 193.86C171.211 193.277 171.824 192.633 172.315 191.928C172.805 191.223 173.112 190.502 173.235 189.766V182.36C172.775 181.195 172.115 180.167 171.257 179.278C170.398 178.358 169.417 177.653 168.313 177.162C167.239 176.641 166.12 176.38 164.955 176.38C163.605 176.38 162.394 176.671 161.321 177.254C160.278 177.806 159.389 178.557 158.653 179.508C157.947 180.428 157.395 181.471 156.997 182.636C156.598 183.801 156.399 184.967 156.399 186.132C156.399 187.42 156.629 188.647 157.089 189.812C157.549 190.947 158.177 191.974 158.975 192.894C159.803 193.783 160.753 194.473 161.827 194.964C162.931 195.455 164.096 195.7 165.323 195.7ZM208.478 189.582C208.478 191.207 208.064 192.664 207.236 193.952C206.408 195.209 205.289 196.206 203.878 196.942C202.498 197.647 200.98 198 199.324 198H183.914V165.34H199.646C201.18 165.34 202.498 165.754 203.602 166.582C204.737 167.379 205.596 168.422 206.178 169.71C206.792 170.967 207.098 172.286 207.098 173.666C207.098 175.291 206.684 176.794 205.856 178.174C205.028 179.554 203.878 180.581 202.406 181.256C204.277 181.808 205.749 182.835 206.822 184.338C207.926 185.841 208.478 187.589 208.478 189.582ZM205.258 189.03C205.258 187.926 205.013 186.914 204.522 185.994C204.032 185.043 203.357 184.277 202.498 183.694C201.67 183.111 200.72 182.82 199.646 182.82H187.134V195.194H199.324C200.428 195.194 201.425 194.903 202.314 194.32C203.204 193.737 203.909 192.986 204.43 192.066C204.982 191.115 205.258 190.103 205.258 189.03ZM187.134 168.146V180.198H198.358C199.432 180.198 200.382 179.922 201.21 179.37C202.038 178.787 202.698 178.036 203.188 177.116C203.679 176.196 203.924 175.215 203.924 174.172C203.924 173.068 203.694 172.071 203.234 171.182C202.774 170.262 202.146 169.526 201.348 168.974C200.551 168.422 199.646 168.146 198.634 168.146H187.134ZM211.975 191.1C211.975 189.597 212.404 188.309 213.263 187.236C214.122 186.132 215.302 185.289 216.805 184.706C218.338 184.093 220.102 183.786 222.095 183.786C223.26 183.786 224.472 183.878 225.729 184.062C226.986 184.246 228.106 184.522 229.087 184.89V182.866C229.087 180.842 228.489 179.232 227.293 178.036C226.097 176.84 224.441 176.242 222.325 176.242C221.037 176.242 219.764 176.487 218.507 176.978C217.28 177.438 215.992 178.128 214.643 179.048L213.447 176.84C215.011 175.767 216.544 174.969 218.047 174.448C219.55 173.896 221.083 173.62 222.647 173.62C225.591 173.62 227.922 174.463 229.639 176.15C231.356 177.837 232.215 180.167 232.215 183.142V194.228C232.215 194.657 232.307 194.979 232.491 195.194C232.675 195.378 232.966 195.485 233.365 195.516V198C233.028 198.031 232.736 198.061 232.491 198.092C232.246 198.123 232.062 198.123 231.939 198.092C231.172 198.061 230.59 197.816 230.191 197.356C229.792 196.896 229.578 196.405 229.547 195.884L229.501 194.136C228.428 195.516 227.032 196.589 225.315 197.356C223.598 198.092 221.85 198.46 220.071 198.46C218.538 198.46 217.142 198.138 215.885 197.494C214.658 196.819 213.692 195.93 212.987 194.826C212.312 193.691 211.975 192.449 211.975 191.1ZM228.029 192.94C228.366 192.511 228.627 192.097 228.811 191.698C228.995 191.299 229.087 190.947 229.087 190.64V187.144C228.044 186.745 226.956 186.439 225.821 186.224C224.717 186.009 223.598 185.902 222.463 185.902C220.224 185.902 218.415 186.347 217.035 187.236C215.655 188.125 214.965 189.337 214.965 190.87C214.965 191.759 215.195 192.603 215.655 193.4C216.115 194.167 216.79 194.811 217.679 195.332C218.568 195.823 219.611 196.068 220.807 196.068C222.31 196.068 223.705 195.777 224.993 195.194C226.312 194.611 227.324 193.86 228.029 192.94ZM259.121 198H255.993V184.614C255.993 181.793 255.579 179.738 254.751 178.45C253.923 177.131 252.62 176.472 250.841 176.472C249.615 176.472 248.403 176.779 247.207 177.392C246.011 177.975 244.953 178.787 244.033 179.83C243.144 180.842 242.5 182.007 242.101 183.326V198H238.973V174.034H241.825V179.462C242.469 178.297 243.313 177.285 244.355 176.426C245.398 175.537 246.579 174.847 247.897 174.356C249.216 173.865 250.581 173.62 251.991 173.62C253.31 173.62 254.429 173.865 255.349 174.356C256.269 174.847 257.005 175.552 257.557 176.472C258.109 177.361 258.508 178.45 258.753 179.738C258.999 180.995 259.121 182.406 259.121 183.97V198ZM275.406 198.322C273.78 198.322 272.278 197.985 270.898 197.31C269.518 196.635 268.322 195.731 267.31 194.596C266.328 193.431 265.562 192.112 265.01 190.64C264.458 189.168 264.182 187.65 264.182 186.086C264.182 184.399 264.442 182.82 264.964 181.348C265.516 179.845 266.282 178.511 267.264 177.346C268.276 176.181 269.456 175.276 270.806 174.632C272.155 173.957 273.658 173.62 275.314 173.62C277.368 173.62 279.147 174.141 280.65 175.184C282.183 176.227 283.471 177.515 284.514 179.048V174.034H287.32V198.092C287.32 200.3 286.783 202.155 285.71 203.658C284.667 205.191 283.241 206.341 281.432 207.108C279.653 207.875 277.706 208.258 275.59 208.258C272.86 208.258 270.652 207.767 268.966 206.786C267.279 205.805 265.899 204.486 264.826 202.83L266.758 201.312C267.708 202.815 268.966 203.934 270.53 204.67C272.124 205.406 273.811 205.774 275.59 205.774C277.154 205.774 278.58 205.483 279.868 204.9C281.186 204.348 282.229 203.505 282.996 202.37C283.793 201.235 284.192 199.809 284.192 198.092V193.354C283.272 194.857 282.014 196.068 280.42 196.988C278.825 197.877 277.154 198.322 275.406 198.322ZM276.28 195.7C277.23 195.7 278.135 195.531 278.994 195.194C279.883 194.857 280.696 194.412 281.432 193.86C282.168 193.277 282.781 192.633 283.272 191.928C283.762 191.223 284.069 190.502 284.192 189.766V182.36C283.732 181.195 283.072 180.167 282.214 179.278C281.355 178.358 280.374 177.653 279.27 177.162C278.196 176.641 277.077 176.38 275.912 176.38C274.562 176.38 273.351 176.671 272.278 177.254C271.235 177.806 270.346 178.557 269.61 179.508C268.904 180.428 268.352 181.471 267.954 182.636C267.555 183.801 267.356 184.967 267.356 186.132C267.356 187.42 267.586 188.647 268.046 189.812C268.506 190.947 269.134 191.974 269.932 192.894C270.76 193.783 271.71 194.473 272.784 194.964C273.888 195.455 275.053 195.7 276.28 195.7ZM304.715 198.46C302.753 198.46 300.989 198.138 299.425 197.494C297.861 196.819 296.527 195.899 295.423 194.734C294.35 193.569 293.522 192.235 292.939 190.732C292.357 189.229 292.065 187.65 292.065 185.994C292.065 184.307 292.357 182.713 292.939 181.21C293.522 179.707 294.35 178.373 295.423 177.208C296.527 176.043 297.861 175.138 299.425 174.494C300.989 173.819 302.753 173.482 304.715 173.482C306.678 173.482 308.426 173.819 309.959 174.494C311.523 175.138 312.857 176.043 313.961 177.208C315.065 178.373 315.893 179.707 316.445 181.21C317.028 182.713 317.319 184.307 317.319 185.994C317.319 187.65 317.028 189.229 316.445 190.732C315.893 192.235 315.065 193.569 313.961 194.734C312.888 195.899 311.569 196.819 310.005 197.494C308.441 198.138 306.678 198.46 304.715 198.46ZM298.413 185.994C298.413 187.405 298.689 188.662 299.241 189.766C299.793 190.839 300.545 191.683 301.495 192.296C302.446 192.909 303.519 193.216 304.715 193.216C305.881 193.216 306.939 192.909 307.889 192.296C308.84 191.652 309.591 190.793 310.143 189.72C310.726 188.616 311.017 187.359 311.017 185.948C311.017 184.568 310.726 183.326 310.143 182.222C309.591 181.118 308.84 180.259 307.889 179.646C306.939 179.033 305.881 178.726 304.715 178.726C303.519 178.726 302.446 179.048 301.495 179.692C300.545 180.305 299.793 181.164 299.241 182.268C298.689 183.341 298.413 184.583 298.413 185.994Z" fill="black"/>
<path d="M141.544 140.924L143.385 133.758H144.35L144.242 135.605L142.274 143H141.271L141.544 140.924ZM140.167 133.758L141.658 140.867L141.792 143H140.725L138.586 133.758H140.167ZM146.438 140.848L147.911 133.758H149.498L147.358 143H146.292L146.438 140.848ZM144.724 133.758L146.546 140.943L146.813 143H145.81L143.874 135.605L143.772 133.758H144.724ZM164.528 141.737V143H159.621V141.737H164.528ZM160.072 133.758V143H158.478V133.758H160.072ZM163.887 137.617V138.861H159.621V137.617H163.887ZM164.496 133.758V135.027H159.621V133.758H164.496ZM179.418 141.737V143H174.778V141.737H179.418ZM175.222 133.758V143H173.629V133.758H175.222ZM193.489 139.991H195.076C195.026 140.596 194.856 141.136 194.569 141.61C194.281 142.08 193.877 142.45 193.356 142.721C192.836 142.992 192.203 143.127 191.458 143.127C190.887 143.127 190.373 143.025 189.916 142.822C189.459 142.615 189.067 142.323 188.741 141.946C188.416 141.565 188.166 141.106 187.992 140.569C187.823 140.031 187.738 139.431 187.738 138.766V137.998C187.738 137.334 187.825 136.733 187.999 136.195C188.176 135.658 188.43 135.199 188.76 134.818C189.091 134.433 189.486 134.139 189.947 133.936C190.413 133.732 190.936 133.631 191.515 133.631C192.252 133.631 192.874 133.766 193.382 134.037C193.889 134.308 194.283 134.682 194.562 135.161C194.846 135.639 195.019 136.187 195.083 136.805H193.496C193.453 136.407 193.36 136.066 193.217 135.783C193.077 135.499 192.87 135.283 192.594 135.135C192.319 134.983 191.96 134.907 191.515 134.907C191.151 134.907 190.834 134.974 190.563 135.11C190.292 135.245 190.066 135.444 189.884 135.707C189.702 135.969 189.564 136.293 189.471 136.678C189.383 137.059 189.338 137.494 189.338 137.985V138.766C189.338 139.232 189.378 139.655 189.459 140.036C189.543 140.412 189.67 140.736 189.84 141.007C190.013 141.278 190.233 141.487 190.5 141.635C190.766 141.783 191.086 141.857 191.458 141.857C191.911 141.857 192.277 141.785 192.556 141.642C192.84 141.498 193.054 141.288 193.197 141.013C193.346 140.734 193.443 140.393 193.489 139.991ZM211.693 138.125V138.633C211.693 139.331 211.602 139.957 211.42 140.512C211.238 141.066 210.978 141.538 210.64 141.927C210.305 142.317 209.903 142.615 209.433 142.822C208.964 143.025 208.443 143.127 207.872 143.127C207.305 143.127 206.787 143.025 206.317 142.822C205.851 142.615 205.447 142.317 205.104 141.927C204.762 141.538 204.495 141.066 204.305 140.512C204.118 139.957 204.025 139.331 204.025 138.633V138.125C204.025 137.427 204.118 136.803 204.305 136.252C204.491 135.698 204.753 135.226 205.092 134.837C205.434 134.443 205.839 134.145 206.304 133.942C206.774 133.735 207.292 133.631 207.859 133.631C208.431 133.631 208.951 133.735 209.421 133.942C209.891 134.145 210.295 134.443 210.633 134.837C210.972 135.226 211.232 135.698 211.414 136.252C211.6 136.803 211.693 137.427 211.693 138.125ZM210.1 138.633V138.112C210.1 137.596 210.049 137.141 209.948 136.748C209.85 136.35 209.704 136.018 209.51 135.751C209.319 135.48 209.084 135.277 208.805 135.142C208.526 135.002 208.211 134.932 207.859 134.932C207.508 134.932 207.195 135.002 206.92 135.142C206.645 135.277 206.41 135.48 206.215 135.751C206.025 136.018 205.879 136.35 205.777 136.748C205.676 137.141 205.625 137.596 205.625 138.112V138.633C205.625 139.149 205.676 139.606 205.777 140.004C205.879 140.402 206.027 140.738 206.222 141.013C206.42 141.284 206.657 141.489 206.933 141.629C207.208 141.764 207.521 141.832 207.872 141.832C208.227 141.832 208.543 141.764 208.818 141.629C209.093 141.489 209.326 141.284 209.516 141.013C209.706 140.738 209.85 140.402 209.948 140.004C210.049 139.606 210.1 139.149 210.1 138.633ZM221.734 133.758H223.156L225.828 140.886L228.494 133.758H229.916L226.387 143H225.257L221.734 133.758ZM221.087 133.758H222.439L222.673 139.928V143H221.087V133.758ZM229.212 133.758H230.57V143H228.977V139.928L229.212 133.758ZM246.311 141.737V143H241.404V141.737H246.311ZM241.855 133.758V143H240.262V133.758H241.855ZM245.67 137.617V138.861H241.404V137.617H245.67ZM246.279 133.758V135.027H241.404V133.758H246.279ZM269.947 133.758V143H268.366V133.758H269.947ZM272.848 133.758V135.027H265.491V133.758H272.848ZM289.059 138.125V138.633C289.059 139.331 288.968 139.957 288.786 140.512C288.604 141.066 288.343 141.538 288.005 141.927C287.67 142.317 287.268 142.615 286.799 142.822C286.329 143.025 285.809 143.127 285.237 143.127C284.67 143.127 284.152 143.025 283.682 142.822C283.217 142.615 282.812 142.317 282.47 141.927C282.127 141.538 281.86 141.066 281.67 140.512C281.484 139.957 281.391 139.331 281.391 138.633V138.125C281.391 137.427 281.484 136.803 281.67 136.252C281.856 135.698 282.118 135.226 282.457 134.837C282.8 134.443 283.204 134.145 283.669 133.942C284.139 133.735 284.657 133.631 285.225 133.631C285.796 133.631 286.316 133.735 286.786 133.942C287.256 134.145 287.66 134.443 287.998 134.837C288.337 135.226 288.597 135.698 288.779 136.252C288.965 136.803 289.059 137.427 289.059 138.125ZM287.465 138.633V138.112C287.465 137.596 287.414 137.141 287.313 136.748C287.216 136.35 287.07 136.018 286.875 135.751C286.684 135.48 286.45 135.277 286.17 135.142C285.891 135.002 285.576 134.932 285.225 134.932C284.873 134.932 284.56 135.002 284.285 135.142C284.01 135.277 283.775 135.48 283.58 135.751C283.39 136.018 283.244 136.35 283.142 136.748C283.041 137.141 282.99 137.596 282.99 138.112V138.633C282.99 139.149 283.041 139.606 283.142 140.004C283.244 140.402 283.392 140.738 283.587 141.013C283.786 141.284 284.023 141.489 284.298 141.629C284.573 141.764 284.886 141.832 285.237 141.832C285.593 141.832 285.908 141.764 286.183 141.629C286.458 141.489 286.691 141.284 286.881 141.013C287.072 140.738 287.216 140.402 287.313 140.004C287.414 139.606 287.465 139.149 287.465 138.633Z" fill="#F95959"/>
</svg>
