<svg width="424" height="251" viewBox="0 0 424 251" fill="none" xmlns="http://www.w3.org/2000/svg">
<path d="M423.416 248.141H20.6908C20.536 248.141 20.3876 248.034 20.2781 247.843C20.1686 247.652 20.1071 247.394 20.1071 247.124C20.1071 246.854 20.1686 246.595 20.2781 246.405C20.3876 246.214 20.536 246.107 20.6908 246.107H423.416C423.571 246.107 423.72 246.214 423.829 246.405C423.939 246.595 424 246.854 424 247.124C424 247.394 423.939 247.652 423.829 247.843C423.72 248.034 423.571 248.141 423.416 248.141Z" fill="#CCCCCC"/>
<path d="M378.253 133H81.747C80.488 133 79.2806 133.45 78.3904 134.251C77.5001 135.052 77 136.139 77 137.271C77 138.404 77.5001 139.491 78.3904 140.292C79.2806 141.093 80.488 141.543 81.747 141.543H90.1456V243.729C90.1456 244.861 90.6457 245.948 91.536 246.749C92.4262 247.55 93.6336 248 94.8926 248C96.1516 248 97.359 247.55 98.2492 246.749C99.1395 245.948 99.6396 244.861 99.6396 243.729L99.7118 141.543H359.63V243.729C359.63 244.861 360.13 245.948 361.02 246.749C361.911 247.55 363.118 248 364.377 248C365.636 248 366.844 247.55 367.734 246.749C368.624 245.948 369.124 244.861 369.124 243.729V143.795L370.505 141.543H378.253C379.512 141.543 380.719 141.093 381.61 140.292C382.5 139.491 383 138.404 383 137.271C383 136.139 382.5 135.052 381.61 134.251C380.719 133.45 379.512 133 378.253 133Z" fill="#CCCCCC"/>
<path d="M201.018 196.238V180.419C201.018 179.72 200.74 179.049 200.244 178.555C199.749 178.061 199.077 177.783 198.377 177.783H138.289C137.589 177.783 136.917 178.061 136.422 178.555C135.926 179.049 135.648 179.72 135.648 180.419V196.238H201.018Z" fill="#CCCCCC"/>
<path d="M201.018 202.17H135.648V222.602H201.018V202.17Z" fill="#CCCCCC"/>
<path d="M135.648 228.534V244.352C135.648 245.051 135.926 245.722 136.422 246.216C136.917 246.711 137.589 246.989 138.289 246.989H198.377C199.077 246.989 199.749 246.711 200.244 246.216C200.74 245.722 201.018 245.051 201.018 244.352V228.534H135.648Z" fill="#CCCCCC"/>
<path d="M168.003 189.647C169.097 189.647 169.984 188.761 169.984 187.669C169.984 186.577 169.097 185.692 168.003 185.692C166.909 185.692 166.022 186.577 166.022 187.669C166.022 188.761 166.909 189.647 168.003 189.647Z" fill="white"/>
<path d="M168.003 216.011C169.097 216.011 169.984 215.126 169.984 214.034C169.984 212.941 169.097 212.056 168.003 212.056C166.909 212.056 166.022 212.941 166.022 214.034C166.022 215.126 166.909 216.011 168.003 216.011Z" fill="white"/>
<path d="M168.109 241.817C169.203 241.817 170.09 240.931 170.09 239.839C170.09 238.747 169.203 237.862 168.109 237.862C167.015 237.862 166.128 238.747 166.128 239.839C166.128 240.931 167.015 241.817 168.109 241.817Z" fill="white"/>
<path d="M193.607 159.747V177.889H148.071C146.851 177.931 145.635 177.728 144.495 177.291C143.355 176.854 142.315 176.193 141.437 175.347C140.559 174.5 139.861 173.486 139.384 172.364C138.907 171.242 138.661 170.036 138.661 168.818C138.661 167.599 138.907 166.393 139.384 165.272C139.861 164.15 140.559 163.136 141.437 162.289C142.315 161.442 143.355 160.781 144.495 160.344C145.635 159.908 146.851 159.704 148.071 159.747H193.607Z" fill="#F2F2F2"/>
<path d="M194.725 177.749C194.725 177.934 194.651 178.112 194.52 178.243C194.389 178.374 194.211 178.447 194.026 178.447H147.26C146.001 178.448 144.755 178.202 143.592 177.722C142.429 177.242 141.373 176.538 140.483 175.65C139.592 174.762 138.886 173.708 138.404 172.548C137.923 171.387 137.675 170.144 137.675 168.888C137.675 167.631 137.923 166.388 138.404 165.227C138.886 164.067 139.592 163.013 140.483 162.125C141.373 161.237 142.429 160.533 143.592 160.053C144.755 159.573 146.001 159.327 147.26 159.328H194.026C194.211 159.328 194.389 159.401 194.52 159.532C194.651 159.663 194.725 159.841 194.725 160.026C194.725 160.211 194.651 160.388 194.52 160.519C194.389 160.65 194.211 160.724 194.026 160.724H147.26C145.092 160.725 143.013 161.586 141.481 163.117C139.949 164.648 139.088 166.724 139.088 168.888C139.088 171.051 139.949 173.127 141.481 174.658C143.013 176.189 145.092 177.05 147.26 177.052H194.026C194.211 177.052 194.389 177.125 194.52 177.256C194.651 177.387 194.725 177.564 194.725 177.749Z" fill="#3F3D56"/>
<path d="M193.607 163.933H144.673C144.655 163.933 144.636 163.93 144.619 163.923C144.602 163.916 144.587 163.906 144.574 163.893C144.561 163.88 144.55 163.864 144.543 163.847C144.536 163.83 144.532 163.812 144.532 163.794C144.532 163.775 144.536 163.757 144.543 163.74C144.55 163.723 144.561 163.708 144.574 163.695C144.587 163.682 144.602 163.671 144.619 163.665C144.636 163.658 144.655 163.654 144.673 163.654H193.607C193.644 163.654 193.679 163.669 193.705 163.695C193.731 163.722 193.746 163.757 193.746 163.794C193.746 163.831 193.731 163.866 193.705 163.892C193.679 163.918 193.644 163.933 193.607 163.933Z" fill="#CCCCCC"/>
<path d="M193.607 167.283H144.673C144.655 167.283 144.636 167.279 144.619 167.272C144.602 167.265 144.587 167.255 144.574 167.242C144.561 167.229 144.55 167.214 144.543 167.197C144.536 167.18 144.532 167.162 144.532 167.143C144.532 167.125 144.536 167.106 144.543 167.089C144.55 167.072 144.561 167.057 144.574 167.044C144.587 167.031 144.602 167.021 144.619 167.014C144.636 167.007 144.655 167.003 144.673 167.004H193.607C193.644 167.004 193.679 167.019 193.705 167.045C193.731 167.071 193.746 167.106 193.746 167.143C193.746 167.18 193.731 167.215 193.705 167.241C193.679 167.268 193.644 167.282 193.607 167.283Z" fill="#CCCCCC"/>
<path d="M193.607 170.632H144.673C144.655 170.632 144.636 170.629 144.619 170.622C144.602 170.615 144.587 170.604 144.574 170.591C144.561 170.578 144.55 170.563 144.543 170.546C144.536 170.529 144.532 170.511 144.532 170.492C144.532 170.474 144.536 170.456 144.543 170.439C144.55 170.422 144.561 170.406 144.574 170.393C144.587 170.38 144.602 170.37 144.619 170.363C144.636 170.356 144.655 170.353 144.673 170.353H193.607C193.644 170.353 193.679 170.368 193.705 170.394C193.731 170.42 193.746 170.456 193.746 170.492C193.746 170.529 193.731 170.565 193.705 170.591C193.679 170.617 193.644 170.632 193.607 170.632Z" fill="#CCCCCC"/>
<path d="M193.607 173.981H144.673C144.655 173.981 144.636 173.978 144.619 173.971C144.602 173.964 144.587 173.954 144.574 173.941C144.561 173.928 144.55 173.912 144.543 173.895C144.536 173.878 144.532 173.86 144.532 173.842C144.532 173.823 144.536 173.805 144.543 173.788C144.55 173.771 144.561 173.756 144.574 173.743C144.587 173.73 144.602 173.72 144.619 173.713C144.636 173.706 144.655 173.702 144.673 173.702H193.607C193.644 173.702 193.679 173.717 193.705 173.743C193.731 173.77 193.746 173.805 193.746 173.842C193.746 173.879 193.731 173.914 193.705 173.94C193.679 173.966 193.644 173.981 193.607 173.981Z" fill="#CCCCCC"/>
<path d="M303.187 128.001H288.515C288.376 128.001 288.239 128.032 288.114 128.092L284.411 129.896C284.289 129.946 284.185 130.03 284.112 130.138C284.039 130.245 284 130.371 284 130.5C284 130.629 284.039 130.755 284.112 130.862C284.185 130.97 284.289 131.054 284.411 131.104L288.114 132.908C288.239 132.968 288.376 132.999 288.515 132.999H303.187C303.39 133.01 303.588 132.944 303.74 132.813C303.892 132.683 303.986 132.5 304 132.304V128.696C303.986 128.5 303.892 128.317 303.74 128.187C303.588 128.056 303.39 127.99 303.187 128.001Z" fill="#3F3D56"/>
<path d="M304 128.696V132.304C303.985 132.5 303.885 132.683 303.722 132.813C303.559 132.944 303.346 133.01 303.13 132.999H300V128.001H303.13C303.346 127.99 303.559 128.056 303.722 128.187C303.885 128.317 303.985 128.5 304 128.696Z" fill="#E04545"/>
<path d="M300.739 87.8811C301.679 87.4763 302.693 87.2743 303.717 87.2883C304.74 87.3022 305.749 87.5319 306.677 87.9622C307.606 88.3924 308.433 89.0136 309.104 89.7851C309.775 90.5565 310.275 91.4608 310.571 92.4386C310.664 92.7486 310.734 93.0646 310.783 93.3844L339.795 107.745L346.509 103.304L354.863 112.904L344.611 121.215C343.378 122.207 341.858 122.775 340.276 122.836C338.694 122.897 337.134 122.447 335.828 121.553L306.393 101.234C306.174 101.327 305.95 101.408 305.723 101.478C304.743 101.774 303.712 101.86 302.696 101.73C301.681 101.6 300.705 101.257 299.831 100.725C298.958 100.192 298.207 99.481 297.628 98.6385C297.049 97.7959 296.655 96.8407 296.471 95.8355C296.417 95.5438 296.381 95.2489 296.364 94.9527C296.282 93.469 296.658 91.996 297.44 90.7318C298.222 89.4676 299.373 88.4727 300.739 87.8811Z" fill="#FFB8B8"/>
<path d="M361.166 176.299H329.465C329.465 177.209 296.794 177.947 296.794 177.947C296.281 178.332 295.813 178.774 295.401 179.265C294.16 180.742 293.481 182.61 293.485 184.538V185.856C293.486 188.041 294.356 190.136 295.904 191.681C297.451 193.226 299.55 194.094 301.739 194.095H361.166C363.355 194.093 365.453 193.224 367.001 191.68C368.548 190.135 369.418 188.04 369.42 185.856V184.538C369.417 182.354 368.547 180.26 366.999 178.715C365.452 177.171 363.354 176.302 361.166 176.299Z" fill="#3F3D56"/>
<path d="M326.683 249.132H335.267V193.767H326.683V249.132Z" fill="#3F3D56"/>
<path d="M302.252 248.831C302.252 249.757 315.259 249.189 331.305 249.189C347.351 249.189 360.358 249.757 360.358 248.831C360.358 247.905 347.351 240.564 331.305 240.564C315.259 240.564 302.252 247.905 302.252 248.831Z" fill="#3F3D56"/>
<path d="M310.001 242.342L301.906 242.341L298.055 221.384L310.002 221.384L310.001 242.342Z" fill="#FFB8B8"/>
<path d="M312.065 250.174L285.963 250.173V249.844C285.963 248.512 286.226 247.193 286.737 245.963C287.247 244.733 287.996 243.615 288.939 242.673C289.882 241.731 291.002 240.984 292.235 240.475C293.468 239.965 294.789 239.703 296.123 239.703H296.124L312.066 239.703L312.065 250.174Z" fill="#2F2E41"/>
<path d="M297.893 229.346L281.755 193.222C280.407 190.177 280.258 186.738 281.337 183.588C282.417 180.439 284.645 177.811 287.578 176.227L322.583 157.491L338.556 156.134L353.291 154.798L353.397 154.977C353.533 155.206 356.701 160.668 354.559 166.658C352.935 171.201 348.71 174.749 342.001 177.205C326.342 182.936 308.254 187.834 301.203 189.673C300.892 189.753 300.601 189.897 300.349 190.097C300.097 190.297 299.891 190.548 299.743 190.833C299.595 191.115 299.507 191.425 299.485 191.742C299.463 192.06 299.507 192.378 299.614 192.678L314.607 226.302C314.763 226.728 314.82 227.185 314.772 227.637C314.724 228.088 314.572 228.523 314.329 228.907C314.086 229.291 313.758 229.614 313.37 229.851C312.982 230.089 312.545 230.234 312.092 230.276L300.889 231.09C300.793 231.099 300.699 231.104 300.604 231.104C300.031 231.103 299.469 230.937 298.988 230.625C298.507 230.313 298.127 229.869 297.893 229.346Z" fill="#2F2E41"/>
<path d="M313.963 242.342L305.868 242.341L302.016 221.384L313.964 221.384L313.963 242.342Z" fill="#FFB8B8"/>
<path d="M316.027 250.174L289.925 250.173V249.844C289.925 248.512 290.188 247.193 290.698 245.963C291.209 244.733 291.957 243.615 292.901 242.673C293.844 241.731 294.964 240.984 296.197 240.475C297.43 239.965 298.751 239.703 300.085 239.703H300.086L316.028 239.703L316.027 250.174Z" fill="#2F2E41"/>
<path d="M302.515 231.323L286.377 195.199C285.03 192.155 284.881 188.715 285.96 185.566C287.039 182.416 289.267 179.788 292.2 178.205L327.205 159.468L343.178 158.112L357.913 156.775L358.019 156.954C358.155 157.184 361.323 162.646 359.181 168.635C357.557 173.178 353.332 176.726 346.623 179.182C330.965 184.913 312.876 189.811 305.826 191.651C305.514 191.73 305.223 191.875 304.971 192.075C304.72 192.275 304.513 192.525 304.366 192.811C304.218 193.093 304.13 193.402 304.107 193.719C304.085 194.037 304.129 194.356 304.236 194.655L319.229 228.279C319.386 228.706 319.442 229.162 319.394 229.614C319.346 230.066 319.194 230.5 318.951 230.884C318.708 231.268 318.38 231.591 317.992 231.829C317.604 232.066 317.167 232.211 316.714 232.253L305.511 233.067C305.416 233.076 305.321 233.081 305.227 233.081C304.653 233.081 304.092 232.915 303.61 232.603C303.129 232.291 302.749 231.846 302.515 231.323Z" fill="#2F2E41"/>
<path d="M294.472 120.969C287.69 111.965 282.329 101.978 278.574 91.3543C278.357 90.7189 278.372 90.027 278.618 89.4019C278.864 88.7767 279.324 88.2589 279.916 87.9406L303.123 75.5286C303.498 75.3263 303.915 75.2121 304.341 75.1949C304.767 75.1776 305.192 75.2577 305.583 75.4289C305.98 75.6015 306.334 75.8624 306.615 76.1918C306.897 76.5212 307.1 76.9104 307.208 77.3298C309.909 87.5667 314.986 97.0252 322.029 104.94C322.319 105.262 322.531 105.646 322.65 106.063C322.769 106.479 322.791 106.917 322.714 107.344C322.641 107.763 322.472 108.16 322.222 108.505C321.971 108.85 321.645 109.133 321.269 109.333L298.062 121.745C297.468 122.061 296.782 122.156 296.124 122.014C295.467 121.872 294.881 121.502 294.472 120.969Z" fill="#CCCCCC"/>
<path d="M296.055 119.781C296.18 119.937 296.355 120.044 296.551 120.084C296.746 120.124 296.95 120.095 297.126 120.002L320.333 107.59C320.445 107.531 320.543 107.447 320.618 107.345C320.693 107.242 320.743 107.124 320.764 106.998C320.788 106.866 320.781 106.731 320.744 106.602C320.707 106.473 320.64 106.354 320.549 106.255C313.299 98.107 308.072 88.3698 305.292 77.8313C305.259 77.701 305.197 77.58 305.111 77.4777C305.024 77.3754 304.914 77.2945 304.791 77.2414C304.675 77.1895 304.548 77.1652 304.421 77.1704C304.294 77.1757 304.169 77.2103 304.058 77.2716L280.852 89.6835C280.676 89.7783 280.539 89.9314 280.464 90.1164C280.389 90.3014 280.382 90.5066 280.443 90.6966C284.13 101.13 289.395 110.938 296.055 119.781Z" fill="white"/>
<path d="M371.567 117.658L353.392 124.552L348.955 112.249C348.366 110.615 348.374 108.826 348.979 107.198C349.583 105.57 350.745 104.207 352.258 103.351C353.789 102.485 355.58 102.194 357.307 102.531C359.034 102.867 360.583 103.809 361.676 105.186L371.567 117.658Z" fill="#E04545"/>
<path d="M325.339 166.405C324.957 166.135 324.636 165.787 324.399 165.384C324.162 164.98 324.013 164.531 323.964 164.066C321.636 142.375 323.257 125.401 328.92 112.172C329.917 109.89 331.42 107.864 333.314 106.245C335.209 104.626 337.447 103.457 339.859 102.826L354.55 102.086L354.626 102.122C357.942 103.743 360.645 106.387 362.337 109.663C364.028 112.938 364.617 116.67 364.015 120.306C359.29 132.739 355.334 145.683 358.351 156.126C358.478 156.562 358.514 157.02 358.46 157.471C358.405 157.922 358.259 158.358 358.031 158.751C357.811 159.132 357.514 159.463 357.161 159.725C356.807 159.986 356.403 160.173 355.974 160.273L327.992 166.918C327.538 167.025 327.067 167.035 326.61 166.947C326.153 166.858 325.72 166.674 325.339 166.405Z" fill="#E04545"/>
<path d="M349.647 96.6085C358.604 96.6085 365.865 89.3608 365.865 80.4202C365.865 71.4797 358.604 64.232 349.647 64.232C340.691 64.232 333.43 71.4797 333.43 80.4202C333.43 89.3608 340.691 96.6085 349.647 96.6085Z" fill="#FFB8B8"/>
<path d="M304.646 93.2418L292.007 98.8109C291.526 99.0221 290.981 99.0343 290.491 98.8449C290.002 98.6555 289.607 98.2799 289.395 97.8005L289.082 97.0936C288.87 96.6138 288.858 96.0698 289.048 95.581C289.238 95.0922 289.614 94.6985 290.094 94.4862L302.733 88.9171C303.214 88.7059 303.759 88.6937 304.249 88.8831C304.739 89.0726 305.133 89.4481 305.346 89.9275L305.658 90.6344C305.87 91.1142 305.882 91.6582 305.692 92.147C305.502 92.6359 305.126 93.0296 304.646 93.2418Z" fill="#CCCCCC"/>
<path d="M309.268 101.81L296.629 107.379C296.148 107.59 295.603 107.603 295.113 107.413C294.624 107.224 294.229 106.848 294.017 106.369L293.704 105.662C293.493 105.182 293.48 104.638 293.67 104.149C293.86 103.66 294.236 103.267 294.716 103.055L307.356 97.4854C307.836 97.2742 308.381 97.262 308.871 97.4514C309.361 97.6409 309.755 98.0164 309.968 98.4958L310.28 99.2027C310.492 99.6825 310.504 100.227 310.314 100.715C310.125 101.204 309.748 101.598 309.268 101.81Z" fill="#CCCCCC"/>
<path d="M319.015 135.277L290.837 113.088C290.613 113.167 290.384 113.234 290.153 113.29C289.159 113.522 288.126 113.543 287.123 113.35C286.12 113.158 285.169 112.758 284.331 112.175C283.487 111.591 282.778 110.835 282.252 109.956C281.725 109.077 281.392 108.095 281.276 107.078C281.087 105.451 281.454 103.808 282.318 102.415C283.182 101.023 284.492 99.9627 286.036 99.4069C286.999 99.062 288.025 98.9241 289.045 99.0023C290.066 99.0805 291.058 99.3731 291.958 99.8608C292.857 100.348 293.643 101.02 294.264 101.832C294.885 102.644 295.327 103.578 295.562 104.573C295.634 104.888 295.685 105.208 295.713 105.53L323.763 121.683L330.744 117.671L338.477 127.776L327.638 135.487C326.37 136.383 324.845 136.846 323.292 136.808C321.739 136.77 320.239 136.233 319.015 135.277Z" fill="#FFB8B8"/>
<path d="M341.915 130.923L325.838 120.01L333.393 109.328C334.397 107.91 335.87 106.891 337.553 106.452C339.236 106.013 341.02 106.182 342.591 106.929C344.179 107.685 345.444 108.983 346.158 110.588C346.872 112.194 346.987 114.001 346.483 115.684L341.915 130.923Z" fill="#E04545"/>
<path d="M343.701 78.0092C339.533 80.8568 334.06 83.784 329.803 80.7515C327.007 78.7603 326.127 75.073 327.26 71.8372C329.299 66.0183 334.9 63.4565 340.255 61.4929C347.218 58.9401 354.799 56.9093 361.987 58.7375C369.174 60.5656 375.527 67.5121 374.229 74.8017C373.186 80.6639 367.646 85.5418 368.432 91.4438C369.224 97.3837 375.916 100.51 381.824 101.572C387.732 102.634 394.344 102.975 398.59 107.211C404.006 112.615 402.654 122.273 397.557 127.979C392.46 133.684 384.769 136.27 377.316 138.028C367.442 140.358 356.762 141.582 347.383 137.716C338.005 133.85 330.707 123.444 333.424 113.685C334.571 109.564 337.274 106.08 339.887 102.689C342.5 99.2973 345.145 95.7509 346.142 91.5901C346.972 88.1227 346.357 84.097 344.054 81.4961C343.635 81.0408 343.371 80.4647 343.301 79.8506C343.23 79.2364 343.356 78.6157 343.661 78.0777L343.701 78.0092Z" fill="#2F2E41"/>
<path d="M62.5153 155.331C58.3363 156.798 53.8494 157.165 49.4869 156.398C45.1244 155.631 41.0334 153.755 37.6079 150.952C28.884 143.643 26.1488 131.601 23.9232 120.452C21.729 109.459 19.5348 98.4661 17.3405 87.4732L31.1221 96.9455C41.033 103.757 51.1672 110.787 58.0295 120.654C64.8918 130.521 67.8871 143.99 62.3735 154.666" fill="#E6E6E6"/>
<path d="M61.3372 195.259C62.7321 185.117 64.1664 174.845 63.188 164.594C62.319 155.49 59.5366 146.599 53.8719 139.308C50.8651 135.446 47.2063 132.136 43.0602 129.529C41.979 128.848 40.9839 130.558 42.0604 131.236C49.2344 135.762 54.7833 142.445 57.9069 150.321C61.3569 159.081 61.9109 168.629 61.3164 177.933C60.9569 183.56 60.1949 189.15 59.4271 194.733C59.3665 194.986 59.4043 195.252 59.5327 195.477C59.6611 195.703 59.8706 195.872 60.1188 195.949C60.3721 196.018 60.642 195.983 60.8701 195.854C61.0982 195.725 61.266 195.511 61.3372 195.259H61.3372Z" fill="#F2F2F2"/>
<path d="M47.902 177.312C46.1097 180.032 43.6461 182.244 40.7485 183.737C37.8509 185.23 34.6169 185.952 31.3583 185.836C22.9836 185.439 16.0017 179.604 9.71676 174.065L-8.87292 157.682L3.43037 157.094C12.2782 156.671 21.3542 156.277 29.7814 159.001C38.2087 161.724 45.9807 168.279 47.5217 176.986" fill="#E6E6E6"/>
<path d="M65.2793 201.089C58.5655 189.231 50.7781 176.052 36.8634 171.84C32.9944 170.673 28.9375 170.255 24.9112 170.608C23.6422 170.717 23.9591 172.67 25.2258 172.561C31.9747 172.001 38.7107 173.78 44.2996 177.598C49.6777 181.252 53.8651 186.332 57.4093 191.719C59.5802 195.019 61.5248 198.459 63.4698 201.894C64.0914 202.992 65.9081 202.2 65.2793 201.089Z" fill="#F2F2F2"/>
<path d="M76.0367 213.57C75.8105 210.954 74.8694 208.45 73.3159 206.33C71.7625 204.211 69.6562 202.558 67.2265 201.55V194.695H55.7076V201.766C53.3974 202.823 51.4093 204.472 49.9459 206.546C48.4824 208.619 47.5961 211.043 47.3771 213.57L44.6685 244.999H78.7453L76.0367 213.57Z" fill="#F2F2F2"/>
<path d="M188.202 110.117C190.347 127.398 188.833 126.515 192.743 128.659C196.653 130.804 199.429 133.2 194.509 133.2C189.59 133.2 168.021 133.2 168.021 133.2H168.007C168.007 133.2 146.437 133.2 141.518 133.2C136.599 133.2 139.374 130.804 143.284 128.659C147.194 126.515 145.681 127.398 147.825 110.117H188.202Z" fill="url(#paint0_linear_260_1059)"/>
<path d="M254.284 107.226C254.284 109.436 252.07 111.243 249.365 111.243H88.9193C86.2137 111.243 84 109.436 84 107.226V4.0172C84 1.80735 86.2137 0 88.9193 0H249.365C252.07 0 254.284 1.80735 254.284 4.0172V107.226Z" fill="#4C4C4C"/>
<path d="M247.237 6.22314H91.0421V105.523H247.237V6.22314Z" fill="white"/>
<path d="M168.764 109.203C169.495 109.203 170.088 108.609 170.088 107.878C170.088 107.146 169.495 106.553 168.764 106.553C168.032 106.553 167.439 107.146 167.439 107.878C167.439 108.609 168.032 109.203 168.764 109.203Z" fill="url(#paint1_linear_260_1059)"/>
<path d="M169.931 107.878C169.931 108.522 169.408 109.045 168.764 109.045C168.119 109.045 167.597 108.523 167.597 107.878C167.597 107.234 168.119 106.711 168.764 106.711C169.408 106.711 169.931 107.234 169.931 107.878Z" fill="url(#paint2_linear_260_1059)"/>
<defs>
<linearGradient id="paint0_linear_260_1059" x1="168.014" y1="109.865" x2="168.014" y2="132.572" gradientUnits="userSpaceOnUse">
<stop/>
<stop offset="0.305846" stop-color="#292929"/>
<stop offset="0.5697" stop-color="#4D4D4D"/>
<stop offset="0.6292" stop-color="#474747"/>
<stop offset="0.7101" stop-color="#353535"/>
<stop offset="0.8" stop-color="#1A1A1A"/>
<stop offset="0.9091"/>
<stop offset="1"/>
</linearGradient>
<linearGradient id="paint1_linear_260_1059" x1="167.439" y1="107.878" x2="170.088" y2="107.878" gradientUnits="userSpaceOnUse">
<stop stop-color="#4D4D4D"/>
<stop offset="1"/>
</linearGradient>
<linearGradient id="paint2_linear_260_1059" x1="167.597" y1="107.878" x2="169.931" y2="107.878" gradientUnits="userSpaceOnUse">
<stop/>
<stop offset="1" stop-color="#4D4D4D"/>
</linearGradient>
</defs>
</svg>
