<svg width="428" height="638" viewBox="0 0 428 638" fill="none" xmlns="http://www.w3.org/2000/svg">
<circle opacity="0.3" cx="214.5" cy="294.5" r="343.5" fill="white"/>
<circle opacity="0.3" cx="214.5" cy="294.5" r="274.486" fill="white"/>
<circle opacity="0.3" cx="214.5" cy="294.5" r="177.24" fill="white"/>
<circle opacity="0.89" cx="214.5" cy="294.5" r="123.911" fill="white"/>
<path d="M137.278 381.864C144.354 366.484 172.136 368.679 188.675 373.9C212.244 381.341 219.914 380.999 230.607 382.196C241.3 383.393 249.312 401.004 236.549 424.684C228.394 439.816 214.524 442.915 209.286 453.553C200.198 472.003 194.091 471.325 198.45 505.934C202.878 541.089 153.772 554.224 128.777 550.867C103.782 547.511 79.0701 517.707 79.8418 495.226C80.5506 474.578 95.6405 459.467 109.02 446.125C122.4 432.782 129.222 399.377 137.278 381.864Z" fill="#233142"/>
<path d="M198.641 575.336C183.742 560.062 168.3 525.065 168.3 525.065L186.506 522.428C186.506 522.428 205.265 556.71 205.557 557.268C205.849 557.826 198.641 575.336 198.641 575.336Z" fill="#FFC5A6"/>
<path d="M191.086 566.113C191.969 567.347 192.861 568.539 193.757 569.683L201.129 569.025L202.543 551.749C200.264 547.58 197.037 541.677 194.069 536.254L191.086 566.113Z" fill="#F0A17D"/>
<path d="M201.892 495.029L212.081 494.294C213.459 498.205 219.52 553.554 218.605 562.042C217.581 571.543 215.449 581.449 206.545 581.442C197.641 581.435 193.585 568.531 194.169 561.167C194.611 555.597 204.196 528.517 201.892 495.029Z" fill="#FFC5A6"/>
<path d="M202.295 503.372C198.853 497.05 191.925 491.208 190.527 489.345C189.13 487.483 188.051 477.21 188.051 477.21L199.324 465.482L200.838 450.059C203.22 452.938 204.029 459.13 205.498 463.358C206.547 464.638 207.712 466.676 208.586 467.927C209.46 468.596 210.031 469.56 210.217 470.43C210.916 473.689 213.305 503.198 213.305 503.198C213.305 503.198 208.999 507.018 202.295 503.372Z" fill="#F0A17D"/>
<path d="M207.13 507.244C206.314 505.09 204.683 495.865 203.867 493.537C203.051 491.209 205.149 480.151 205.382 478.347C205.615 476.543 204.391 472.119 204.391 472.119C204.391 472.119 207.129 469.558 207.129 469.325C206.08 467.842 205.149 465.834 205.149 465.834C206.169 465.281 210.334 468.424 210.742 469.355C211.15 470.286 213.684 505.062 213.684 505.062L207.13 507.244Z" fill="#FFC5A6"/>
<path d="M198.047 576.232C202.654 574.124 213.735 569.055 217.911 567.139C218.103 566.024 218.267 564.888 218.408 563.749L195.182 569.837C195.836 572.112 196.788 574.344 198.047 576.232Z" fill="#F0A17D"/>
<path d="M161.342 481.664C174.1 490.044 189.829 517.981 190.702 520.95C185.109 534.22 158.021 546.792 158.021 546.792L161.342 481.664Z" fill="#FF7E67"/>
<path d="M157.85 590.094H92.4907C111.781 551.94 108.036 493.724 135.109 479.762C135.109 479.762 152.902 476.008 160.628 483.404C168.353 490.799 182.564 537.218 181.058 541.986C179.553 546.754 170.357 560.441 166.268 566.544C165.12 567.787 158.307 575.548 157.85 590.094Z" fill="#F95959"/>
<path d="M161.223 556.569C158.948 556.569 149.282 560.992 134.719 558.781L135.899 590.094H94.1648C97.6339 583.175 101.596 574.311 103.959 565.881C108.853 548.42 112.956 517.38 119.396 504.536C119.396 504.536 143.165 535.964 144.364 537.866C145.564 539.768 162.478 546.184 180.099 541.902C177.389 546.874 168.972 559.711 168.972 559.711C168.972 559.711 163.497 556.569 161.223 556.569Z" fill="#E04545"/>
<path d="M153.71 441.562C150.215 468.567 134.718 480.091 134.718 480.091C146.661 491.965 163.846 516.176 168.274 518.504C169.44 519.378 163.497 492.488 162.216 484.748C162.449 466.822 171.77 459.954 171.77 459.954L153.71 441.562Z" fill="#FFC5A6"/>
<path d="M147.651 447.15C162.797 474.388 172.584 482.304 172.584 482.304L187.031 454.134L148.117 413.858L147.651 447.15Z" fill="#F0A17D"/>
<path d="M205.499 463.359C205.005 461.936 204.585 460.29 204.155 458.625C203.948 459.247 203.752 459.78 203.752 459.78L204.859 463.84L206.158 464.236C205.935 463.922 205.714 463.622 205.499 463.359Z" fill="#FFC5A6"/>
<path d="M208.032 425.527C207.917 420.889 202.998 401.948 191.985 399.735C173.11 395.943 158.242 400.234 154.448 419.091C151.749 432.508 154.246 438.405 155.405 447.107C160.724 464.177 176.44 477.876 182.837 479.161C190.33 480.665 202.14 462.922 203.166 459.782C206.109 450.779 204.215 448.303 205.563 439.393C206.377 434.027 208.109 428.584 208.032 425.527Z" fill="#FFC5A6"/>
<path d="M203.562 467.214C203.562 467.214 204.8 467.091 204.392 466.45C203.984 465.809 197.838 463.096 195.479 461.932C193.12 460.769 194.788 466.232 198.079 467.454C201.369 468.676 202.499 467.839 202.499 467.839C204.13 467.17 205.412 466.995 205.412 466.995L203.562 467.214Z" fill="#F0A17D"/>
<path d="M204.989 466.465C200.613 468.677 194.991 467.527 193.884 467.76C192.777 467.993 193.171 471.856 199.171 472.147C203.247 472.345 205.542 469.958 205.542 469.958L204.989 466.465Z" fill="#F0A17D"/>
<path d="M227.448 544.995C207.161 549.812 174.844 558.426 165.396 560.285L148.097 511.612L127.124 523.491L146.836 576.126C149.516 584.158 157.129 584.972 162.448 584.158C174.296 581.739 228.788 559.033 228.788 559.033C228.218 551.951 227.448 544.995 227.448 544.995Z" fill="#FFC5A6"/>
<path d="M157.672 538.552L153.964 528.122L153.558 527.461L131.152 531.447L132.144 536.897L139.709 557.097L157.672 538.552Z" fill="#F0A17D"/>
<path d="M123.3 554.823L161.748 533.87C155.632 515.712 152.194 506.981 148.233 497.902C144.272 488.823 139.087 480.355 131.892 479.656C121.158 478.613 108.794 504.712 123.3 554.823Z" fill="#FF7E67"/>
<path d="M201.793 395.531C199.645 418.609 166.619 431.404 138.621 426.137C132.364 410.276 166.1 384.504 177.927 382.427C189.754 380.35 201.793 395.531 201.793 395.531Z" fill="#233142"/>
<path d="M157.604 428.69C156.702 421.866 151.496 419.001 148.46 421.084C144.727 423.645 143.589 429.635 144.915 433.922C146.24 438.209 151.258 444.416 154.023 444.317C158.363 444.163 157.784 434.321 157.604 428.69Z" fill="#FFC5A6"/>
<path d="M163.346 424.472C159.6 434.525 160.505 444.057 160.874 452.413C161.244 460.769 149.137 468.221 147.897 475.72C146.655 483.218 148.265 484.522 148.265 484.522C140.063 477.443 144.145 465.799 149.009 460.004C153.933 454.135 156.919 449.036 157.049 439.534C157.178 430.032 157.15 423.08 157.15 423.08L163.346 424.472Z" fill="#233142"/>
<path d="M205.15 465.833C200.722 468.044 194.955 467.404 193.848 467.637C192.742 467.87 196.12 472.177 200.198 472.002C204.276 471.827 207.13 469.324 207.13 469.324L205.15 465.833Z" fill="#FFC5A6"/>
<path d="M195.129 481.838C196.004 483.701 199.673 490.627 199.149 491.151C198.624 491.675 193.731 490.51 192.799 489.23C191.867 487.95 190.819 483.469 191.052 483.178C191.285 482.885 195.129 481.838 195.129 481.838Z" fill="#FFC5A6"/>
<path d="M207.888 466.938C207.888 466.938 206.839 464.435 206.432 463.795C206.024 463.154 197.927 461.729 195.568 460.564C193.208 459.399 194.548 464.842 197.84 466.065C201.132 467.286 202.588 466.472 202.588 466.472C205.213 465.304 205.638 465.566 205.638 465.566L207.888 466.938Z" fill="#FFC5A6"/>
<path d="M165.396 560.285C161.915 562.58 158.636 566.942 158.636 566.942C161.283 561.378 164.638 558.152 164.638 558.152L165.396 560.285Z" fill="#F0A17D"/>
<path d="M125.747 527.556C122.953 511.855 123.481 484.907 131.325 480.572C121.089 482.383 111.801 504.396 125.514 551.769L130.732 548.926C129.367 544.267 127.384 536.751 125.747 527.556Z" fill="#F0674F"/>
<path d="M144.389 380.043C137.573 384.408 135.913 395.582 135.913 395.582C157.497 398.464 161.604 420.114 161.604 420.114C182.051 419.153 191.664 402.13 191.664 402.13C159.157 395.146 146.049 384.146 144.389 380.043Z" fill="#455D7A"/>
<path d="M155.486 438.972C155.486 438.972 154.089 436.92 153.957 435.698C153.826 434.476 155.137 430.416 155.137 430.416C154.525 425.746 150.113 422.755 147.556 425.047C149.173 424.589 151.685 425.419 152.734 426.75C153.783 428.081 154.351 430.176 154.351 430.438C153.739 431.792 153.324 434.978 153.324 434.978C151.314 435.393 150.855 435.305 150.855 435.305C152.297 434.214 153.345 436.309 153.345 436.309C154.001 437.858 155.486 438.972 155.486 438.972Z" fill="#F0A17D"/>
<path d="M152.909 426.619C153.521 428.321 149.865 427.492 148.991 430.678C148.117 433.865 152.341 438.841 153.171 438.274C154.001 437.707 154.089 437.052 154.089 437.052L153.477 434.783L154.569 430.286C154.569 430.285 153.607 427.405 152.909 426.619Z" fill="#F0A17D"/>
<path d="M400.824 581.364H129.228V590.094H400.824V581.364Z" fill="#DDE9F5"/>
<path d="M182.852 439.83C184.3 439.83 185.474 438.657 185.474 437.211C185.474 435.764 184.3 434.592 182.852 434.592C181.404 434.592 180.231 435.764 180.231 437.211C180.231 438.657 181.404 439.83 182.852 439.83Z" fill="#233142"/>
<path d="M204.225 439.363C204.523 437.948 203.744 436.585 202.484 436.321C201.225 436.057 199.963 436.99 199.664 438.406C199.367 439.821 200.146 441.183 201.406 441.448C202.666 441.712 203.928 440.779 204.225 439.363Z" fill="#233142"/>
<path d="M108.573 411.815L56.8401 422.674L42.9999 356.859L94.7327 346L108.573 411.815Z" fill="#F5F9FD"/>
<path d="M98.5371 378.729L52.7007 388.351L46.7444 360.026L92.5808 350.405L98.5371 378.729Z" fill="#DDE9F5"/>
<path d="M98.6046 386.963L55.9536 395.916L55.5834 394.156L98.2344 385.203L98.6046 386.963Z" fill="#6C8EAB" fill-opacity="0.4"/>
<path d="M99.5341 391.383L56.8831 400.335L56.5129 398.575L99.1639 389.622L99.5341 391.383Z" fill="#6C8EAB" fill-opacity="0.4"/>
<path d="M100.464 395.804L57.8127 404.757L57.4426 402.996L100.094 394.044L100.464 395.804Z" fill="#6C8EAB" fill-opacity="0.4"/>
<path d="M101.393 400.225L58.7424 409.178L58.3722 407.417L101.023 398.465L101.393 400.225Z" fill="#6C8EAB" fill-opacity="0.4"/>
<path d="M102.326 404.647L59.6746 413.6L59.3044 411.839L101.955 402.887L102.326 404.647Z" fill="#6C8EAB" fill-opacity="0.4"/>
<path d="M191.896 421.272C192.595 423.017 191.765 423.811 191.066 424.044C190.366 424.276 183.813 423.04 178.235 425.382C175.041 426.723 178.243 422.811 183.362 421.89C188.13 421.031 191.656 420.9 191.896 421.272Z" fill="#233142"/>
<path d="M202.149 422.5C202.149 423.432 201.887 424.537 202.703 424.828C203.519 425.12 207.305 425.731 208.528 427.186C209.257 426.022 209.257 426.022 209.257 426.022C206.46 422.384 202.149 421.977 202.149 422.5Z" fill="#233142"/>
<path d="M197.052 450.278C193.818 452.198 189.493 450.67 187.002 449.317C193.382 454.119 194.125 454.73 197.052 450.278Z" fill="#F08D6C"/>
<path d="M193.398 459.278C182.715 459.108 172.933 450.583 172.933 450.583C172.933 450.583 175.195 454.298 183.535 457.917C191.877 461.535 193.398 459.278 193.398 459.278Z" fill="#F08D6C"/>
<path d="M137.398 403.265C135.837 409.101 133.675 414.798 130.923 420.225C128.147 425.638 124.747 430.76 120.794 435.42C116.875 440.114 112.394 444.295 107.827 448.281C103.249 452.26 98.5164 455.998 94.1963 460.099C89.8471 464.155 85.9199 468.624 82.9986 473.728C82.2549 474.994 81.5718 476.295 80.9563 477.629C80.3362 478.955 79.8035 480.303 79.364 481.692C78.4897 484.465 77.9826 487.353 77.8393 490.273C77.5805 496.124 78.8103 502.035 80.9832 507.574C82.0486 510.359 83.3717 513.05 84.8533 515.66C85.5923 516.966 86.3827 518.246 87.2173 519.497C88.0461 520.752 88.9134 521.988 89.8623 523.162C87.7594 520.989 85.8919 518.585 84.1946 516.067C82.4997 513.545 81.0006 510.883 79.7207 508.107C78.4559 505.324 77.4324 502.418 76.7144 499.42C76.0068 496.421 75.6361 493.323 75.6687 490.212C75.6932 487.101 76.1478 483.98 77.0373 480.982C77.4756 479.485 78.0223 478.009 78.6494 476.587C79.2672 475.167 79.9585 473.779 80.7139 472.427C83.7435 467.003 87.8573 462.276 92.3032 458.09C96.7819 453.917 101.54 450.167 106.134 446.301C110.754 442.462 115.167 438.428 119.178 434.012C123.171 429.584 126.732 424.759 129.742 419.58C132.779 414.413 135.262 408.914 137.398 403.265Z" fill="#233142"/>
<path d="M313.856 525.006L338.39 514.324C339.798 513.712 340.442 512.074 339.829 510.668L331.719 492.077C331.106 490.67 329.467 490.027 328.059 490.639L303.524 501.321C302.116 501.934 301.472 503.571 302.086 504.978L310.195 523.569C310.81 524.976 312.449 525.619 313.856 525.006Z" fill="white"/>
<path d="M322.697 519.742L321.399 527.622L315.376 522.539L322.697 519.742Z" fill="white"/>
<path d="M326.888 505.266C326.493 504.773 326.572 504.055 327.065 503.66C327.558 503.265 328.278 503.346 328.673 503.837C329.068 504.33 328.989 505.048 328.496 505.443C328.003 505.838 327.283 505.759 326.888 505.266Z" fill="#233142"/>
<path d="M320.029 508.742C319.634 508.25 319.713 507.531 320.206 507.136C320.7 506.742 321.419 506.822 321.814 507.313C322.209 507.806 322.13 508.525 321.637 508.919C321.144 509.314 320.424 509.235 320.029 508.742Z" fill="#233142"/>
<path d="M312.999 511.929C312.604 511.436 312.683 510.718 313.176 510.323C313.669 509.928 314.389 510.007 314.784 510.5C315.179 510.992 315.1 511.711 314.606 512.106C314.113 512.501 313.393 512.421 312.999 511.929Z" fill="#233142"/>
<path d="M385.04 172.837L347.485 153L316 212.5L367.752 239.838L394.008 190.227L385.04 172.837Z" fill="#F5F9FD"/>
<path d="M364.362 190.507L340.203 177.745L342.278 173.823L366.437 186.585L364.362 190.507Z" fill="#6C8EAB" fill-opacity="0.2"/>
<path d="M379.678 206.315L337.011 183.776L339.086 179.854L381.754 202.393L379.678 206.315Z" fill="#6C8EAB" fill-opacity="0.2"/>
<path d="M376.488 212.346L333.82 189.807L335.896 185.886L378.563 208.425L376.488 212.346Z" fill="#6C8EAB" fill-opacity="0.2"/>
<path d="M373.297 218.377L330.629 195.838L332.705 191.917L375.372 214.456L373.297 218.377Z" fill="#6C8EAB" fill-opacity="0.2"/>
<path d="M385.04 172.837L381.44 184.92L394.008 190.227L385.04 172.837Z" fill="#DDE9F5"/>
<path d="M143.181 208.81C138.572 201.954 140.098 192.835 140.721 183.619C141.6 178.92 141.362 174.01 139.927 169.317C139.3 166.91 138.324 164.581 136.843 162.379C136.743 162.228 136.635 162.112 136.53 161.971C136.393 161.757 136.263 161.538 136.12 161.326C126.846 147.525 108.134 143.848 94.3272 153.109C80.5203 162.37 76.845 181.067 86.1188 194.865C86.3241 195.171 86.5409 195.467 86.7553 195.763C86.7895 195.816 86.8101 195.864 86.8443 195.916C88.147 197.854 89.6892 199.458 91.3933 200.828C95.5135 204.402 100.466 206.725 105.679 207.684C114.209 210.444 122.885 212.544 127.46 219.352L127.916 220.617L136.001 218.524L136.749 219.639L137.963 218.016L139.927 217.508L139.179 216.393L144.178 209.71L143.181 208.81Z" fill="#F5F9FD"/>
<path d="M122.995 170.08C122.279 169.723 121.542 169.775 120.86 170.231C120.346 170.575 120.016 171.136 119.872 171.899C119.466 174.056 120.595 178.047 122.968 183.289C122.096 183.708 121.124 183.683 120.241 183.485C120.401 180.982 119.516 178.3 118.291 176.583C116.838 174.548 115.001 173.873 113.495 174.824C112.651 175.334 112.286 176.107 112.327 177.064C112.414 179.186 114.803 182.06 117.766 183.61C118.243 183.859 118.711 184.062 119.167 184.221C118.943 185.468 118.38 186.605 117.349 187.43C115.802 188.643 113.995 188.29 112.745 187.761C112.487 187.651 112.229 187.526 111.976 187.387C111.987 183.699 110.984 179.496 109.293 178.475C108.679 178.104 107.988 178.138 107.347 178.566C106.437 179.177 106.017 180.137 106.133 181.342C106.35 183.599 108.435 186.361 110.965 187.952C110.952 188.347 110.927 188.736 110.886 189.115C110.792 189.972 110.635 190.701 110.42 191.273C105.787 186.017 101.785 182.341 100.309 183.282C99.6885 183.695 98.7509 184.718 99.8505 187.004C101.4 190.225 106.61 194.653 109.626 193.628C109.984 193.507 110.297 193.29 110.58 192.98C116.596 200.003 124.179 209.934 129.901 218.1L130.722 217.526C130.556 217.289 119.922 202.218 111.152 192.108C111.508 191.376 111.755 190.407 111.882 189.22C111.908 188.983 111.928 188.739 111.944 188.49C112.081 188.556 112.22 188.618 112.357 188.677C114.481 189.575 116.479 189.416 117.978 188.208C119.187 187.241 119.854 185.919 120.121 184.483C121.332 184.739 122.445 184.645 123.387 184.198C126.787 191.481 132.433 200.994 139.608 211.308L140.432 210.738C133.305 200.493 127.622 190.902 124.236 183.66C125.664 182.489 126.394 180.289 126.255 177.531C126.107 174.637 124.916 171.04 122.995 170.08ZM109.302 192.684C107.021 193.459 102.257 189.703 100.752 186.573C100.355 185.751 100.049 184.663 100.822 184.144C100.832 184.139 100.838 184.132 100.845 184.128C101.792 183.524 105.346 186.945 109.916 192.217C109.731 192.452 109.526 192.609 109.302 192.684ZM110.965 186.747C108.937 185.29 107.299 183.04 107.128 181.247C107.048 180.417 107.311 179.795 107.904 179.396C108.314 179.12 108.586 179.216 108.773 179.33C109.939 180.032 110.867 183.426 110.965 186.747ZM118.232 182.726C115.644 181.374 113.4 178.762 113.327 177.023C113.304 176.447 113.518 176.011 113.984 175.699C113.997 175.69 114.013 175.678 114.029 175.669C115.549 174.71 117.05 176.572 117.472 177.165C118.549 178.676 119.352 181.012 119.272 183.193C118.879 183.045 118.521 182.876 118.232 182.726ZM125.254 177.584C125.37 179.881 124.843 181.703 123.798 182.715C121.567 177.782 120.488 174.044 120.857 172.086C120.951 171.596 121.14 171.252 121.421 171.063C121.802 170.808 122.16 170.78 122.55 170.976C123.889 171.646 125.103 174.612 125.254 177.584Z" fill="#6C8EAB"/>
<path d="M145.804 222.411L139.044 226.944C138.214 227.5 137.078 227.277 136.521 226.45L136.307 226.128C135.75 225.299 135.974 224.163 136.802 223.607L143.561 219.074C144.392 218.518 145.528 218.741 146.085 219.568L146.299 219.89C146.858 220.719 146.634 221.852 145.804 222.411Z" fill="#EAF4FE"/>
<path d="M147.365 219.106L135.392 227.136C134.219 227.922 132.616 227.607 131.829 226.436L126.8 218.955C126.606 218.668 126.684 218.274 126.974 218.08L142.163 207.892C142.451 207.698 142.845 207.775 143.039 208.065L148.067 215.545C148.852 216.717 148.537 218.319 147.365 219.106Z" fill="#CADAE8"/>
<path d="M145.996 213.442L130.663 223.728C130.414 223.894 130.074 223.828 129.907 223.58L129.803 223.423C129.636 223.174 129.702 222.835 129.951 222.668L145.284 212.382C145.533 212.215 145.873 212.281 146.039 212.53L146.144 212.687C146.311 212.936 146.244 213.275 145.996 213.442Z" fill="#EAF4FE"/>
<path d="M144.114 210.64L128.781 220.927C128.532 221.093 128.192 221.027 128.025 220.779L127.92 220.621C127.754 220.373 127.82 220.033 128.069 219.867L143.402 209.581C143.651 209.414 143.99 209.48 144.157 209.729L144.262 209.886C144.428 210.134 144.362 210.474 144.114 210.64Z" fill="#EAF4FE"/>
<path d="M147.848 216.197L132.515 226.484C132.266 226.65 131.927 226.584 131.76 226.336L131.655 226.178C131.489 225.93 131.555 225.59 131.803 225.424L147.136 215.14C147.385 214.973 147.725 215.039 147.892 215.288L147.997 215.445C148.163 215.691 148.097 216.031 147.848 216.197Z" fill="#EAF4FE"/>
<path d="M277.404 472.333L274.282 470.914C256.934 475.084 255.375 481.148 255.491 484.587C253.73 480.481 218.318 475.046 218.318 475.046C217.178 479.89 214.591 492.062 214.591 492.062L264.028 492.189L277.404 472.333Z" fill="#DDE9F5"/>
<path d="M254.807 485.502L215.972 478.072L203.093 526.076L237.352 533.236L254.807 485.502Z" fill="#455D7A"/>
<path d="M279 471.303L258.136 484.77L241.11 532.846L261.238 524.241L279 471.303Z" fill="#455D7A"/>
<path d="M258.828 484.588L254.807 485.502L237.353 533.236L242.255 532.665L258.828 484.588Z" fill="#233142"/>
<path d="M220.628 548.722C228.315 536.358 230.821 526.293 231.573 524.754C232.325 523.214 233.377 521.752 236.01 521.462C238.448 521.195 240.789 521.005 241.938 521.074C242.859 521.152 247.268 522.353 248.979 524.457C249.556 525.166 248.877 526.996 248.418 527.82C247.584 529.32 246.94 529.378 246.517 529.67C247.55 531.594 247.219 534.65 247.219 534.65C248.426 535.641 249.252 537.838 249.35 538.708C249.423 539.362 249.193 539.789 249.193 539.789C250.399 540.764 251.077 543.56 251.077 543.56C251.058 544.992 246.813 550.485 246.012 550.982C245.212 551.48 242.217 550.675 241.875 550.437C240.664 552.711 230.438 558.549 228.315 559.209C223.753 560.63 221.686 560.798 220.628 548.722Z" fill="#FFC5A6"/>
<path d="M241.874 550.437C241.895 550.33 245.959 544.458 245.959 544.458L248.227 544.954C248.227 544.954 246.55 545.033 246.516 545.111C246.482 545.19 242.624 550.754 242.624 550.754L241.874 550.437Z" fill="#F0A17D"/>
<path d="M241.432 532.632L247.217 534.651C247.217 534.651 247.249 534.362 247.262 533.909L241.432 532.632Z" fill="#F0A17D"/>
<path d="M249.192 539.79L243.389 537.735L249.358 539.121C249.414 539.411 249.192 539.79 249.192 539.79Z" fill="#F0A17D"/>
<path d="M246.517 529.671C243.726 528.356 240.022 526.963 240.022 526.963L243.321 526.38C242.796 526.88 242.237 527.015 242.237 527.015C244.957 528.147 247.663 528.887 247.663 528.887C247.434 529.296 246.517 529.671 246.517 529.671Z" fill="#F0A17D"/>
<path d="M303.627 437.041L329.212 458.836C344.059 444.23 342.386 430.838 335.951 425.113C329.514 419.389 310.181 423.061 303.627 437.041Z" fill="#455D7A"/>
<path d="M331.985 424.297L337.665 430.582C340.9 429.511 340.495 427.408 340.154 426.062C339.812 424.717 337.208 421.88 335.26 421.43C333.313 420.981 331.321 422.75 331.985 424.297Z" fill="#455D7A"/>
<path d="M388.765 572.491H386.69V454.025L343.544 421.167L344.802 419.518L388.765 452.997V572.491Z" fill="#455D7A"/>
<path d="M381.607 575.838H379.532V457.368L339.809 426.87L341.074 425.227L381.607 456.347V575.838Z" fill="#455D7A"/>
<path d="M348.902 575.761H393.588C394.182 575.761 394.663 576.242 394.663 576.835V580.289C394.663 580.882 394.182 581.363 393.588 581.363H348.902C348.309 581.363 347.828 580.882 347.828 580.289V576.835C347.828 576.242 348.309 575.761 348.902 575.761Z" fill="#455D7A"/>
<path d="M375.599 570.512H392.164C392.531 570.512 392.828 570.809 392.828 571.176V575.45C392.828 575.817 392.531 576.114 392.164 576.114H375.599C375.232 576.114 374.935 575.817 374.935 575.45V571.176C374.935 570.809 375.232 570.512 375.599 570.512Z" fill="#455D7A"/>
<path d="M282.071 568.567H351.66C352.785 568.567 353.698 569.479 353.698 570.603V579.327C353.698 580.451 352.785 581.363 351.66 581.363H282.071C280.946 581.363 280.033 580.451 280.033 579.327V570.603C280.033 569.479 280.946 568.567 282.071 568.567Z" fill="#F95959"/>
<path d="M287.289 581.271H304.14V568.66H287.289V581.271Z" fill="#E04545"/>
<path d="M314.251 567.179C314.965 567.179 315.544 566.6 315.544 565.887V558.543C315.544 557.83 314.964 557.252 314.251 557.252H275.575V557.213C275.575 556.468 276.18 555.863 276.926 555.863H347.889C348.636 555.863 349.24 556.468 349.24 557.213V567.309C349.24 568.055 348.636 568.659 347.889 568.659H276.925C276.179 568.659 275.574 568.055 275.574 567.309V567.179H314.251Z" fill="#455D7A"/>
<path d="M319.233 557.253H277.76V567.18H319.233C319.948 567.18 320.526 566.601 320.526 565.888V558.544C320.526 557.83 319.948 557.253 319.233 557.253Z" fill="#F5F9FD"/>
<path d="M353.02 543.068V544.502H308.095V554.43H353.02V555.864H280.65C279.549 555.864 278.657 554.974 278.657 553.874V545.059C278.657 543.96 279.549 543.069 280.65 543.069H353.02V543.068Z" fill="#E04545"/>
<path d="M305.092 544.502H351.6V554.43H305.092C304.337 554.43 303.725 553.818 303.725 553.064V545.87C303.723 545.114 304.337 544.502 305.092 544.502Z" fill="#F5F9FD"/>
<path d="M338.091 568.66H342.288V555.864H338.091V568.66Z" fill="#233142"/>
<path d="M388.846 460.835C391.969 457.715 391.969 452.658 388.846 449.538C385.724 446.418 380.662 446.418 377.539 449.538C374.417 452.658 374.417 457.715 377.539 460.835C380.662 463.954 385.724 463.954 388.846 460.835Z" fill="#455D7A"/>
<path d="M386.266 456.445C386.966 454.757 386.164 452.821 384.474 452.122C382.784 451.423 380.847 452.224 380.147 453.913C379.447 455.601 380.249 457.537 381.939 458.236C383.629 458.935 385.566 458.133 386.266 456.445Z" fill="#DDE9F5"/>
<path d="M342.039 429.458C346.277 428.218 348.707 423.781 347.466 419.547C346.225 415.313 341.784 412.886 337.546 414.126C333.308 415.365 330.878 419.803 332.119 424.037C333.36 428.27 337.801 430.698 342.039 429.458Z" fill="#455D7A"/>
<path d="M343.107 421.807C343.107 419.98 341.624 418.499 339.795 418.499C337.966 418.499 336.483 419.98 336.483 421.807C336.483 423.635 337.966 425.116 339.795 425.116C341.624 425.116 343.107 423.635 343.107 421.807Z" fill="#DDE9F5"/>
<path d="M320.108 462.542L316.375 473.725L318.343 474.38L322.076 463.198L320.108 462.542Z" fill="#455D7A"/>
<path d="M310.35 457.279L304.03 466.636L305.75 467.795L312.07 458.439L310.35 457.279Z" fill="#455D7A"/>
<path d="M302.074 449.775L291.948 456.775L293.129 458.479L303.254 451.48L302.074 449.775Z" fill="#455D7A"/>
<path d="M298.711 441.224L286.147 442.214L286.311 444.281L298.875 443.291L298.711 441.224Z" fill="#455D7A"/>
<path d="M139.674 311.582C139.674 313.33 139.214 314.833 138.294 316.09C137.405 317.347 136.194 318.313 134.66 318.988C133.127 319.663 131.44 320 129.6 320H114.006V287.34H130.842C132.376 287.34 133.694 287.754 134.798 288.582C135.933 289.379 136.792 290.422 137.374 291.71C137.988 292.967 138.294 294.286 138.294 295.666C138.294 297.261 137.88 298.763 137.052 300.174C136.255 301.554 135.105 302.581 133.602 303.256C135.473 303.808 136.945 304.82 138.018 306.292C139.122 307.733 139.674 309.497 139.674 311.582ZM134.384 310.616C134.384 309.696 134.185 308.868 133.786 308.132C133.418 307.365 132.897 306.752 132.222 306.292C131.578 305.801 130.812 305.556 129.922 305.556H119.158V315.538H129.6C130.52 315.538 131.333 315.323 132.038 314.894C132.774 314.434 133.342 313.836 133.74 313.1C134.17 312.333 134.384 311.505 134.384 310.616ZM119.158 291.802V301.416H128.634C129.493 301.416 130.26 301.217 130.934 300.818C131.609 300.389 132.146 299.821 132.544 299.116C132.943 298.38 133.142 297.552 133.142 296.632C133.142 295.681 132.958 294.853 132.59 294.148C132.222 293.412 131.716 292.845 131.072 292.446C130.459 292.017 129.738 291.802 128.91 291.802H119.158ZM144.817 320V296.034H147.945V320H144.817ZM144.817 291.02V286.42H147.945V291.02H144.817ZM164.449 320.322C162.823 320.322 161.321 319.985 159.941 319.31C158.561 318.635 157.365 317.731 156.353 316.596C155.371 315.431 154.605 314.112 154.053 312.64C153.501 311.168 153.225 309.65 153.225 308.086C153.225 306.399 153.485 304.82 154.007 303.348C154.559 301.845 155.325 300.511 156.307 299.346C157.319 298.181 158.499 297.276 159.849 296.632C161.198 295.957 162.701 295.62 164.357 295.62C166.411 295.62 168.19 296.141 169.693 297.184C171.226 298.227 172.514 299.515 173.557 301.048V296.034H176.363V320.092C176.363 322.3 175.826 324.155 174.753 325.658C173.71 327.191 172.284 328.341 170.475 329.108C168.696 329.875 166.749 330.258 164.633 330.258C161.903 330.258 159.695 329.767 158.009 328.786C156.322 327.805 154.942 326.486 153.869 324.83L155.801 323.312C156.751 324.815 158.009 325.934 159.573 326.67C161.167 327.406 162.854 327.774 164.633 327.774C166.197 327.774 167.623 327.483 168.911 326.9C170.229 326.348 171.272 325.505 172.039 324.37C172.836 323.235 173.235 321.809 173.235 320.092V315.354C172.315 316.857 171.057 318.068 169.463 318.988C167.868 319.877 166.197 320.322 164.449 320.322ZM165.323 317.7C166.273 317.7 167.178 317.531 168.037 317.194C168.926 316.857 169.739 316.412 170.475 315.86C171.211 315.277 171.824 314.633 172.315 313.928C172.805 313.223 173.112 312.502 173.235 311.766V304.36C172.775 303.195 172.115 302.167 171.257 301.278C170.398 300.358 169.417 299.653 168.313 299.162C167.239 298.641 166.12 298.38 164.955 298.38C163.605 298.38 162.394 298.671 161.321 299.254C160.278 299.806 159.389 300.557 158.653 301.508C157.947 302.428 157.395 303.471 156.997 304.636C156.598 305.801 156.399 306.967 156.399 308.132C156.399 309.42 156.629 310.647 157.089 311.812C157.549 312.947 158.177 313.974 158.975 314.894C159.803 315.783 160.753 316.473 161.827 316.964C162.931 317.455 164.096 317.7 165.323 317.7ZM208.478 311.582C208.478 313.207 208.064 314.664 207.236 315.952C206.408 317.209 205.289 318.206 203.878 318.942C202.498 319.647 200.98 320 199.324 320H183.914V287.34H199.646C201.18 287.34 202.498 287.754 203.602 288.582C204.737 289.379 205.596 290.422 206.178 291.71C206.792 292.967 207.098 294.286 207.098 295.666C207.098 297.291 206.684 298.794 205.856 300.174C205.028 301.554 203.878 302.581 202.406 303.256C204.277 303.808 205.749 304.835 206.822 306.338C207.926 307.841 208.478 309.589 208.478 311.582ZM205.258 311.03C205.258 309.926 205.013 308.914 204.522 307.994C204.032 307.043 203.357 306.277 202.498 305.694C201.67 305.111 200.72 304.82 199.646 304.82H187.134V317.194H199.324C200.428 317.194 201.425 316.903 202.314 316.32C203.204 315.737 203.909 314.986 204.43 314.066C204.982 313.115 205.258 312.103 205.258 311.03ZM187.134 290.146V302.198H198.358C199.432 302.198 200.382 301.922 201.21 301.37C202.038 300.787 202.698 300.036 203.188 299.116C203.679 298.196 203.924 297.215 203.924 296.172C203.924 295.068 203.694 294.071 203.234 293.182C202.774 292.262 202.146 291.526 201.348 290.974C200.551 290.422 199.646 290.146 198.634 290.146H187.134ZM211.975 313.1C211.975 311.597 212.404 310.309 213.263 309.236C214.122 308.132 215.302 307.289 216.805 306.706C218.338 306.093 220.102 305.786 222.095 305.786C223.26 305.786 224.472 305.878 225.729 306.062C226.986 306.246 228.106 306.522 229.087 306.89V304.866C229.087 302.842 228.489 301.232 227.293 300.036C226.097 298.84 224.441 298.242 222.325 298.242C221.037 298.242 219.764 298.487 218.507 298.978C217.28 299.438 215.992 300.128 214.643 301.048L213.447 298.84C215.011 297.767 216.544 296.969 218.047 296.448C219.55 295.896 221.083 295.62 222.647 295.62C225.591 295.62 227.922 296.463 229.639 298.15C231.356 299.837 232.215 302.167 232.215 305.142V316.228C232.215 316.657 232.307 316.979 232.491 317.194C232.675 317.378 232.966 317.485 233.365 317.516V320C233.028 320.031 232.736 320.061 232.491 320.092C232.246 320.123 232.062 320.123 231.939 320.092C231.172 320.061 230.59 319.816 230.191 319.356C229.792 318.896 229.578 318.405 229.547 317.884L229.501 316.136C228.428 317.516 227.032 318.589 225.315 319.356C223.598 320.092 221.85 320.46 220.071 320.46C218.538 320.46 217.142 320.138 215.885 319.494C214.658 318.819 213.692 317.93 212.987 316.826C212.312 315.691 211.975 314.449 211.975 313.1ZM228.029 314.94C228.366 314.511 228.627 314.097 228.811 313.698C228.995 313.299 229.087 312.947 229.087 312.64V309.144C228.044 308.745 226.956 308.439 225.821 308.224C224.717 308.009 223.598 307.902 222.463 307.902C220.224 307.902 218.415 308.347 217.035 309.236C215.655 310.125 214.965 311.337 214.965 312.87C214.965 313.759 215.195 314.603 215.655 315.4C216.115 316.167 216.79 316.811 217.679 317.332C218.568 317.823 219.611 318.068 220.807 318.068C222.31 318.068 223.705 317.777 224.993 317.194C226.312 316.611 227.324 315.86 228.029 314.94ZM259.121 320H255.993V306.614C255.993 303.793 255.579 301.738 254.751 300.45C253.923 299.131 252.62 298.472 250.841 298.472C249.615 298.472 248.403 298.779 247.207 299.392C246.011 299.975 244.953 300.787 244.033 301.83C243.144 302.842 242.5 304.007 242.101 305.326V320H238.973V296.034H241.825V301.462C242.469 300.297 243.313 299.285 244.355 298.426C245.398 297.537 246.579 296.847 247.897 296.356C249.216 295.865 250.581 295.62 251.991 295.62C253.31 295.62 254.429 295.865 255.349 296.356C256.269 296.847 257.005 297.552 257.557 298.472C258.109 299.361 258.508 300.45 258.753 301.738C258.999 302.995 259.121 304.406 259.121 305.97V320ZM275.406 320.322C273.78 320.322 272.278 319.985 270.898 319.31C269.518 318.635 268.322 317.731 267.31 316.596C266.328 315.431 265.562 314.112 265.01 312.64C264.458 311.168 264.182 309.65 264.182 308.086C264.182 306.399 264.442 304.82 264.964 303.348C265.516 301.845 266.282 300.511 267.264 299.346C268.276 298.181 269.456 297.276 270.806 296.632C272.155 295.957 273.658 295.62 275.314 295.62C277.368 295.62 279.147 296.141 280.65 297.184C282.183 298.227 283.471 299.515 284.514 301.048V296.034H287.32V320.092C287.32 322.3 286.783 324.155 285.71 325.658C284.667 327.191 283.241 328.341 281.432 329.108C279.653 329.875 277.706 330.258 275.59 330.258C272.86 330.258 270.652 329.767 268.966 328.786C267.279 327.805 265.899 326.486 264.826 324.83L266.758 323.312C267.708 324.815 268.966 325.934 270.53 326.67C272.124 327.406 273.811 327.774 275.59 327.774C277.154 327.774 278.58 327.483 279.868 326.9C281.186 326.348 282.229 325.505 282.996 324.37C283.793 323.235 284.192 321.809 284.192 320.092V315.354C283.272 316.857 282.014 318.068 280.42 318.988C278.825 319.877 277.154 320.322 275.406 320.322ZM276.28 317.7C277.23 317.7 278.135 317.531 278.994 317.194C279.883 316.857 280.696 316.412 281.432 315.86C282.168 315.277 282.781 314.633 283.272 313.928C283.762 313.223 284.069 312.502 284.192 311.766V304.36C283.732 303.195 283.072 302.167 282.214 301.278C281.355 300.358 280.374 299.653 279.27 299.162C278.196 298.641 277.077 298.38 275.912 298.38C274.562 298.38 273.351 298.671 272.278 299.254C271.235 299.806 270.346 300.557 269.61 301.508C268.904 302.428 268.352 303.471 267.954 304.636C267.555 305.801 267.356 306.967 267.356 308.132C267.356 309.42 267.586 310.647 268.046 311.812C268.506 312.947 269.134 313.974 269.932 314.894C270.76 315.783 271.71 316.473 272.784 316.964C273.888 317.455 275.053 317.7 276.28 317.7ZM304.715 320.46C302.753 320.46 300.989 320.138 299.425 319.494C297.861 318.819 296.527 317.899 295.423 316.734C294.35 315.569 293.522 314.235 292.939 312.732C292.357 311.229 292.065 309.65 292.065 307.994C292.065 306.307 292.357 304.713 292.939 303.21C293.522 301.707 294.35 300.373 295.423 299.208C296.527 298.043 297.861 297.138 299.425 296.494C300.989 295.819 302.753 295.482 304.715 295.482C306.678 295.482 308.426 295.819 309.959 296.494C311.523 297.138 312.857 298.043 313.961 299.208C315.065 300.373 315.893 301.707 316.445 303.21C317.028 304.713 317.319 306.307 317.319 307.994C317.319 309.65 317.028 311.229 316.445 312.732C315.893 314.235 315.065 315.569 313.961 316.734C312.888 317.899 311.569 318.819 310.005 319.494C308.441 320.138 306.678 320.46 304.715 320.46ZM298.413 307.994C298.413 309.405 298.689 310.662 299.241 311.766C299.793 312.839 300.545 313.683 301.495 314.296C302.446 314.909 303.519 315.216 304.715 315.216C305.881 315.216 306.939 314.909 307.889 314.296C308.84 313.652 309.591 312.793 310.143 311.72C310.726 310.616 311.017 309.359 311.017 307.948C311.017 306.568 310.726 305.326 310.143 304.222C309.591 303.118 308.84 302.259 307.889 301.646C306.939 301.033 305.881 300.726 304.715 300.726C303.519 300.726 302.446 301.048 301.495 301.692C300.545 302.305 299.793 303.164 299.241 304.268C298.689 305.341 298.413 306.583 298.413 307.994Z" fill="black"/>
<path d="M141.544 262.924L143.385 255.758H144.35L144.242 257.605L142.274 265H141.271L141.544 262.924ZM140.167 255.758L141.658 262.867L141.792 265H140.725L138.586 255.758H140.167ZM146.438 262.848L147.911 255.758H149.498L147.358 265H146.292L146.438 262.848ZM144.724 255.758L146.546 262.943L146.813 265H145.81L143.874 257.605L143.772 255.758H144.724ZM164.528 263.737V265H159.621V263.737H164.528ZM160.072 255.758V265H158.478V255.758H160.072ZM163.887 259.617V260.861H159.621V259.617H163.887ZM164.496 255.758V257.027H159.621V255.758H164.496ZM179.418 263.737V265H174.778V263.737H179.418ZM175.222 255.758V265H173.629V255.758H175.222ZM193.489 261.991H195.076C195.026 262.596 194.856 263.136 194.569 263.61C194.281 264.08 193.877 264.45 193.356 264.721C192.836 264.992 192.203 265.127 191.458 265.127C190.887 265.127 190.373 265.025 189.916 264.822C189.459 264.615 189.067 264.323 188.741 263.946C188.416 263.565 188.166 263.106 187.992 262.569C187.823 262.031 187.738 261.431 187.738 260.766V259.998C187.738 259.334 187.825 258.733 187.999 258.195C188.176 257.658 188.43 257.199 188.76 256.818C189.091 256.433 189.486 256.139 189.947 255.936C190.413 255.732 190.936 255.631 191.515 255.631C192.252 255.631 192.874 255.766 193.382 256.037C193.889 256.308 194.283 256.682 194.562 257.161C194.846 257.639 195.019 258.187 195.083 258.805H193.496C193.453 258.407 193.36 258.066 193.217 257.783C193.077 257.499 192.87 257.283 192.594 257.135C192.319 256.983 191.96 256.907 191.515 256.907C191.151 256.907 190.834 256.974 190.563 257.11C190.292 257.245 190.066 257.444 189.884 257.707C189.702 257.969 189.564 258.293 189.471 258.678C189.383 259.059 189.338 259.494 189.338 259.985V260.766C189.338 261.232 189.378 261.655 189.459 262.036C189.543 262.412 189.67 262.736 189.84 263.007C190.013 263.278 190.233 263.487 190.5 263.635C190.766 263.783 191.086 263.857 191.458 263.857C191.911 263.857 192.277 263.785 192.556 263.642C192.84 263.498 193.054 263.288 193.197 263.013C193.346 262.734 193.443 262.393 193.489 261.991ZM211.693 260.125V260.633C211.693 261.331 211.602 261.957 211.42 262.512C211.238 263.066 210.978 263.538 210.64 263.927C210.305 264.317 209.903 264.615 209.433 264.822C208.964 265.025 208.443 265.127 207.872 265.127C207.305 265.127 206.787 265.025 206.317 264.822C205.851 264.615 205.447 264.317 205.104 263.927C204.762 263.538 204.495 263.066 204.305 262.512C204.118 261.957 204.025 261.331 204.025 260.633V260.125C204.025 259.427 204.118 258.803 204.305 258.252C204.491 257.698 204.753 257.226 205.092 256.837C205.434 256.443 205.839 256.145 206.304 255.942C206.774 255.735 207.292 255.631 207.859 255.631C208.431 255.631 208.951 255.735 209.421 255.942C209.891 256.145 210.295 256.443 210.633 256.837C210.972 257.226 211.232 257.698 211.414 258.252C211.6 258.803 211.693 259.427 211.693 260.125ZM210.1 260.633V260.112C210.1 259.596 210.049 259.141 209.948 258.748C209.85 258.35 209.704 258.018 209.51 257.751C209.319 257.48 209.084 257.277 208.805 257.142C208.526 257.002 208.211 256.932 207.859 256.932C207.508 256.932 207.195 257.002 206.92 257.142C206.645 257.277 206.41 257.48 206.215 257.751C206.025 258.018 205.879 258.35 205.777 258.748C205.676 259.141 205.625 259.596 205.625 260.112V260.633C205.625 261.149 205.676 261.606 205.777 262.004C205.879 262.402 206.027 262.738 206.222 263.013C206.42 263.284 206.657 263.489 206.933 263.629C207.208 263.764 207.521 263.832 207.872 263.832C208.227 263.832 208.543 263.764 208.818 263.629C209.093 263.489 209.326 263.284 209.516 263.013C209.706 262.738 209.85 262.402 209.948 262.004C210.049 261.606 210.1 261.149 210.1 260.633ZM221.734 255.758H223.156L225.828 262.886L228.494 255.758H229.916L226.387 265H225.257L221.734 255.758ZM221.087 255.758H222.439L222.673 261.928V265H221.087V255.758ZM229.212 255.758H230.57V265H228.977V261.928L229.212 255.758ZM246.311 263.737V265H241.404V263.737H246.311ZM241.855 255.758V265H240.262V255.758H241.855ZM245.67 259.617V260.861H241.404V259.617H245.67ZM246.279 255.758V257.027H241.404V255.758H246.279ZM269.947 255.758V265H268.366V255.758H269.947ZM272.848 255.758V257.027H265.491V255.758H272.848ZM289.059 260.125V260.633C289.059 261.331 288.968 261.957 288.786 262.512C288.604 263.066 288.343 263.538 288.005 263.927C287.67 264.317 287.268 264.615 286.799 264.822C286.329 265.025 285.809 265.127 285.237 265.127C284.67 265.127 284.152 265.025 283.682 264.822C283.217 264.615 282.812 264.317 282.47 263.927C282.127 263.538 281.86 263.066 281.67 262.512C281.484 261.957 281.391 261.331 281.391 260.633V260.125C281.391 259.427 281.484 258.803 281.67 258.252C281.856 257.698 282.118 257.226 282.457 256.837C282.8 256.443 283.204 256.145 283.669 255.942C284.139 255.735 284.657 255.631 285.225 255.631C285.796 255.631 286.316 255.735 286.786 255.942C287.256 256.145 287.66 256.443 287.998 256.837C288.337 257.226 288.597 257.698 288.779 258.252C288.965 258.803 289.059 259.427 289.059 260.125ZM287.465 260.633V260.112C287.465 259.596 287.414 259.141 287.313 258.748C287.216 258.35 287.07 258.018 286.875 257.751C286.684 257.48 286.45 257.277 286.17 257.142C285.891 257.002 285.576 256.932 285.225 256.932C284.873 256.932 284.56 257.002 284.285 257.142C284.01 257.277 283.775 257.48 283.58 257.751C283.39 258.018 283.244 258.35 283.142 258.748C283.041 259.141 282.99 259.596 282.99 260.112V260.633C282.99 261.149 283.041 261.606 283.142 262.004C283.244 262.402 283.392 262.738 283.587 263.013C283.786 263.284 284.023 263.489 284.298 263.629C284.573 263.764 284.886 263.832 285.237 263.832C285.593 263.832 285.908 263.764 286.183 263.629C286.458 263.489 286.691 263.284 286.881 263.013C287.072 262.738 287.216 262.402 287.313 262.004C287.414 261.606 287.465 261.149 287.465 260.633Z" fill="black"/>
<rect x="69" y="590" width="290" height="31" rx="10" fill="white"/>
<path d="M151.462 609H151.074H150.964V609.11V609.688C150.964 610.533 150.637 611.18 149.983 611.629C149.333 612.079 148.357 612.303 147.053 612.303H146.35C144.939 612.303 143.887 611.979 143.193 611.329C142.505 610.68 142.161 609.698 142.161 608.385V605.997L143.223 606.004V608.377C143.223 609.31 143.486 610.013 144.014 610.487C144.541 610.965 145.32 611.205 146.35 611.205H147.053C147.297 611.205 147.522 611.197 147.727 611.183C147.932 611.168 148.149 611.141 148.379 611.102C148.608 611.063 148.809 611.004 148.979 610.926C149.155 610.853 149.316 610.76 149.463 610.648C149.609 610.536 149.722 610.394 149.8 610.223C149.878 610.052 149.917 609.857 149.917 609.637V609.11V609H149.807H147.954C147.764 609 147.617 608.812 147.515 608.436C147.441 608.163 147.424 607.984 147.463 607.901H151.462C151.521 607.901 151.567 607.948 151.602 608.041C151.636 608.128 151.653 608.248 151.653 608.399V608.48C151.653 608.636 151.636 608.763 151.602 608.861C151.567 608.954 151.521 609 151.462 609ZM164.521 609H164.382C163.85 609 163.408 608.919 163.057 608.758C162.705 608.597 162.419 608.355 162.2 608.033L162.104 607.879L162.017 608.041C161.89 608.27 161.755 608.453 161.614 608.59C161.477 608.727 161.311 608.829 161.116 608.897C160.925 608.966 160.691 609 160.413 609C159.958 609 159.583 608.922 159.285 608.766C158.992 608.604 158.745 608.355 158.545 608.019L158.442 607.857L158.354 608.026C157.988 608.675 157.349 609 156.436 609C156.021 609 155.662 608.922 155.359 608.766C155.061 608.604 154.805 608.355 154.59 608.019L154.495 607.879L154.407 608.019C154.187 608.346 153.892 608.592 153.521 608.758C153.154 608.919 152.678 609 152.092 609H151.404C151.277 609 151.213 608.827 151.213 608.48V608.399C151.213 608.297 151.221 608.209 151.235 608.136C151.25 608.062 151.272 608.006 151.301 607.967C151.331 607.923 151.365 607.901 151.404 607.901H152.1C152.69 607.901 153.145 607.772 153.462 607.513C153.784 607.254 153.945 606.874 153.945 606.371V604.576H154.978L154.985 606.385C154.99 606.878 155.117 607.254 155.366 607.513C155.615 607.772 155.981 607.901 156.465 607.901C156.924 607.901 157.275 607.772 157.52 607.513C157.769 607.25 157.893 606.871 157.893 606.378L157.9 604.576H158.926L158.933 606.363C158.938 606.7 158.994 606.983 159.102 607.213C159.214 607.438 159.377 607.608 159.592 607.726C159.807 607.838 160.073 607.894 160.391 607.894C160.781 607.894 161.074 607.765 161.27 607.506C161.465 607.242 161.562 606.866 161.562 606.378V604.576H162.573L162.581 606.356C162.585 606.864 162.734 607.25 163.027 607.513C163.325 607.772 163.757 607.901 164.324 607.901H164.521C164.648 607.901 164.712 608.067 164.712 608.399V608.48C164.712 608.827 164.648 609 164.521 609ZM166.807 611.424L167.751 610.472L168.704 611.424L167.751 612.376L166.807 611.424ZM164.229 611.424L165.181 610.472L166.125 611.424L165.181 612.376L164.229 611.424ZM170.945 609H170.806C170.288 609 169.873 608.924 169.561 608.773C169.253 608.622 168.997 608.382 168.792 608.055L168.704 607.923L168.608 608.048C168.364 608.375 168.054 608.617 167.678 608.773C167.307 608.924 166.824 609 166.228 609H164.47C164.343 609 164.28 608.827 164.28 608.48V608.399C164.28 608.297 164.287 608.209 164.302 608.136C164.316 608.062 164.338 608.006 164.368 607.967C164.397 607.923 164.431 607.901 164.47 607.901H166.265C167.515 607.901 168.14 607.389 168.14 606.363V604.583H169.172V606.363C169.172 606.876 169.299 607.262 169.553 607.521C169.812 607.774 170.227 607.901 170.798 607.901H170.952C171.011 607.901 171.057 607.948 171.091 608.041C171.125 608.128 171.143 608.248 171.143 608.399V608.48C171.143 608.636 171.125 608.763 171.091 608.861C171.057 608.954 171.008 609 170.945 609ZM175.933 609H175.75C175.325 609 174.963 608.924 174.666 608.773C174.368 608.617 174.104 608.387 173.875 608.084L173.787 607.967L173.699 608.084C173.479 608.392 173.193 608.622 172.842 608.773C172.495 608.924 172.124 609 171.729 609H170.894C170.767 609 170.703 608.827 170.703 608.48V608.399C170.703 608.297 170.71 608.209 170.725 608.136C170.74 608.062 170.762 608.006 170.791 607.967C170.82 607.923 170.854 607.901 170.894 607.901H171.714C172.231 607.901 172.627 607.777 172.9 607.528C173.174 607.274 173.311 606.905 173.311 606.422V599.449H174.307V606.422C174.307 606.915 174.426 607.286 174.666 607.535C174.91 607.779 175.295 607.901 175.823 607.901H175.933C175.991 607.901 176.038 607.948 176.072 608.041C176.106 608.128 176.123 608.248 176.123 608.399V608.48C176.123 608.636 176.106 608.763 176.072 608.861C176.038 608.954 175.991 609 175.933 609ZM182.004 598.233L177.529 599.728V598.944L182.004 597.45V598.233ZM184.026 609H183.931C182.979 609 182.153 608.524 181.455 607.572L181.44 607.557L181.316 607.367L181.25 607.579C180.933 608.526 179.983 609 178.401 609H175.874C175.747 609 175.684 608.827 175.684 608.48V608.399C175.684 608.297 175.691 608.209 175.706 608.136C175.72 608.062 175.742 608.006 175.771 607.967C175.801 607.923 175.835 607.901 175.874 607.901H178.416C179.709 607.901 180.356 607.538 180.356 606.81C180.356 606.507 180.073 606.036 179.507 605.396L177.207 602.723C176.953 602.425 176.826 602.118 176.826 601.8C176.831 601.268 177.097 600.917 177.625 600.746L182.048 599.303V600.379L177.947 601.72L177.793 601.771L177.903 601.896L182.085 606.729C182.759 607.511 183.352 607.901 183.865 607.901H184.033C184.092 607.901 184.138 607.948 184.172 608.041C184.207 608.128 184.224 608.248 184.224 608.399V608.48C184.224 608.636 184.207 608.763 184.172 608.861C184.138 608.954 184.089 609 184.026 609ZM183.975 607.901H185.454C185.991 607.901 186.389 607.787 186.648 607.557C186.912 607.323 187.043 606.93 187.043 606.378V604.334H188.098V606.385C188.098 607.269 187.881 607.926 187.446 608.355C187.012 608.785 186.345 609 185.447 609H183.975C183.848 609 183.784 608.827 183.784 608.48V608.399C183.784 608.297 183.792 608.209 183.806 608.136C183.821 608.062 183.843 608.006 183.872 607.967C183.901 607.923 183.936 607.901 183.975 607.901ZM186.135 601.485L187.109 600.511L188.083 601.485L187.109 602.459L186.135 601.485ZM190.178 599.449H191.174V608.993H190.178V599.449ZM200.652 604.195L201.626 603.221L202.6 604.195L201.626 605.169L200.652 604.195ZM206.123 604.598V608.729C206.064 611.102 204.653 612.289 201.89 612.289H201.516C200.095 612.289 199.033 611.964 198.33 611.314C197.632 610.67 197.283 609.688 197.283 608.37V605.982H198.337V608.363C198.337 609.3 198.606 610.006 199.143 610.479C199.685 610.958 200.476 611.197 201.516 611.197H201.89C202.93 611.197 203.716 610.992 204.248 610.582C204.785 610.177 205.054 609.571 205.054 608.766V604.598H206.123ZM210.789 609H210.459C209.692 609 209.121 608.785 208.745 608.355C208.369 607.921 208.181 607.257 208.181 606.363V599.457H209.177V606.371C209.177 606.864 209.287 607.242 209.507 607.506C209.731 607.77 210.056 607.901 210.481 607.901H210.789C210.852 607.901 210.898 607.948 210.928 608.041C210.962 608.128 210.979 608.248 210.979 608.399V608.48C210.979 608.827 210.916 609 210.789 609ZM210.723 607.901H212.202C212.739 607.901 213.137 607.787 213.396 607.557C213.66 607.323 213.792 606.93 213.792 606.378V604.334H214.846V606.385C214.846 607.269 214.629 607.926 214.194 608.355C213.76 608.785 213.093 609 212.195 609H210.723C210.596 609 210.532 608.827 210.532 608.48V608.399C210.532 608.297 210.54 608.209 210.554 608.136C210.569 608.062 210.591 608.006 210.62 607.967C210.649 607.923 210.684 607.901 210.723 607.901ZM211.389 611.424L212.363 610.45L213.337 611.424L212.363 612.398L211.389 611.424ZM218.157 601.595L219.131 600.621L220.105 601.595L219.131 602.569L218.157 601.595ZM215.894 611.373C216.865 611.373 217.612 611.134 218.135 610.655C218.657 610.177 218.918 609.488 218.918 608.59V604.789L219.973 604.781V608.59C219.973 609.815 219.629 610.758 218.94 611.417C218.252 612.081 217.241 612.418 215.908 612.428L215.491 612.435V611.373H215.894ZM237.097 599.947L237.983 599.068L238.862 599.947L237.983 600.841L237.097 599.947ZM238.35 601.756L239.236 600.863L240.129 601.756L239.236 602.635L238.35 601.756ZM235.83 601.756L236.724 600.863L237.61 601.756L236.724 602.635L235.83 601.756ZM234.775 606.202C234.775 606.573 234.832 606.886 234.944 607.14C235.061 607.394 235.232 607.584 235.457 607.711C235.681 607.838 235.955 607.901 236.277 607.901C236.731 607.901 237.08 607.77 237.324 607.506C237.568 607.242 237.69 606.866 237.69 606.378L237.698 604.576H238.723L238.73 606.363C238.735 606.861 238.86 607.242 239.104 607.506C239.348 607.765 239.702 607.894 240.166 607.894C240.557 607.894 240.85 607.765 241.045 607.506C241.245 607.247 241.345 606.876 241.345 606.393V604.342H242.407V606.451C242.407 607.276 242.217 607.909 241.836 608.348C241.455 608.783 240.913 609 240.21 609C239.756 609 239.38 608.922 239.082 608.766C238.789 608.604 238.542 608.355 238.342 608.019L238.24 607.857L238.152 608.026C237.786 608.675 237.146 609 236.233 609C235.618 608.995 235.168 608.802 234.885 608.421L234.688 608.158V608.487V608.729C234.688 609.925 234.343 610.816 233.655 611.402C232.971 611.993 231.934 612.289 230.542 612.289H230.168C228.748 612.289 227.686 611.964 226.982 611.314C226.284 610.67 225.935 609.688 225.935 608.37V605.982H226.99V608.363C226.99 609.3 227.258 610.006 227.795 610.479C228.337 610.958 229.128 611.197 230.168 611.197H230.542C231.582 611.197 232.368 610.992 232.9 610.582C233.438 610.177 233.706 609.571 233.706 608.766V604.598H234.775V606.202ZM244.832 601.595L245.806 600.621L246.78 601.595L245.806 602.569L244.832 601.595ZM242.568 611.373C243.54 611.373 244.287 611.134 244.81 610.655C245.332 610.177 245.593 609.488 245.593 608.59V604.789L246.648 604.781V608.59C246.648 609.815 246.304 610.758 245.615 611.417C244.927 612.081 243.916 612.418 242.583 612.428L242.166 612.435V611.373H242.568ZM254.404 609H253.379H253.269V609.11C253.269 610.15 252.917 610.96 252.214 611.542C251.516 612.127 250.493 612.42 249.146 612.42H248.713V611.351H249.102C250.103 611.351 250.874 611.161 251.416 610.78C251.963 610.399 252.239 609.847 252.244 609.125V609.11V609H252.134H250.947C250.122 609 249.509 608.805 249.109 608.414C248.708 608.023 248.508 607.428 248.508 606.627C248.508 606.227 248.56 605.863 248.662 605.536C248.765 605.204 248.914 604.918 249.109 604.679C249.309 604.435 249.563 604.247 249.871 604.115C250.183 603.978 250.54 603.91 250.94 603.91C251.677 603.91 252.249 604.144 252.654 604.613C253.064 605.082 253.269 605.731 253.269 606.561V607.792V607.901H253.379H254.404C254.468 607.901 254.517 607.948 254.551 608.041C254.585 608.128 254.602 608.248 254.602 608.399V608.48C254.602 608.641 254.585 608.768 254.551 608.861C254.517 608.954 254.468 609 254.404 609ZM249.512 606.598C249.512 607.022 249.634 607.347 249.878 607.572C250.122 607.792 250.476 607.901 250.94 607.901H252.141H252.251V607.792V606.554C252.251 606.041 252.131 605.646 251.892 605.367C251.653 605.089 251.326 604.95 250.911 604.95C250.457 604.95 250.11 605.099 249.871 605.396C249.631 605.689 249.512 606.09 249.512 606.598ZM254.346 607.901H255.071C255.779 607.901 256.147 607.672 256.177 607.213C256.191 606.983 256.199 606.7 256.199 606.363C256.199 604.552 256.965 603.646 258.499 603.646C259.299 603.646 259.893 603.866 260.278 604.305C260.664 604.745 260.857 605.436 260.857 606.378C260.857 607.276 260.657 607.955 260.256 608.414C259.861 608.873 259.275 609.103 258.499 609.103C258.088 609.103 257.751 609.049 257.488 608.941C257.229 608.834 256.98 608.661 256.741 608.421L256.653 608.341L256.58 608.429C256.409 608.629 256.204 608.775 255.964 608.868C255.73 608.956 255.437 609 255.085 609H254.346C254.219 609 254.155 608.827 254.155 608.48V608.399C254.155 608.297 254.163 608.209 254.177 608.136C254.192 608.062 254.214 608.006 254.243 607.967C254.272 607.923 254.307 607.901 254.346 607.901ZM257.539 607.608C257.764 607.901 258.088 608.048 258.513 608.048C258.938 608.048 259.263 607.901 259.487 607.608C259.712 607.315 259.824 606.896 259.824 606.349C259.824 605.27 259.385 604.73 258.506 604.73C258.076 604.73 257.751 604.869 257.532 605.147C257.312 605.421 257.202 605.821 257.202 606.349C257.202 606.896 257.314 607.315 257.539 607.608ZM263.274 600.855H264.27V608.971H263.274V600.855ZM263.032 598.299H265.801L265.815 599.237H263.105C262.578 599.237 262.178 599.535 261.904 600.13L261.208 599.662C261.36 599.256 261.592 598.929 261.904 598.68C262.217 598.426 262.593 598.299 263.032 598.299ZM281.343 609H281.072C280.725 609 280.432 608.968 280.193 608.905C279.958 608.836 279.775 608.751 279.644 608.648C279.517 608.541 279.387 608.397 279.255 608.216V608.553V608.729C279.255 609.93 278.916 610.824 278.237 611.41C277.559 611.996 276.519 612.289 275.117 612.289H274.744C273.323 612.289 272.261 611.964 271.558 611.314C270.859 610.67 270.51 609.688 270.51 608.37V605.982H271.565V608.363C271.565 609.3 271.833 610.006 272.371 610.479C272.913 610.958 273.704 611.197 274.744 611.197H275.117C276.157 611.197 276.943 610.992 277.476 610.582C278.013 610.177 278.281 609.571 278.281 608.766V604.598H279.351V606.202C279.351 606.783 279.5 607.213 279.797 607.491C280.1 607.765 280.547 607.901 281.138 607.901H281.343C281.401 607.901 281.448 607.948 281.482 608.041C281.516 608.128 281.533 608.248 281.533 608.399V608.48C281.533 608.636 281.516 608.763 281.482 608.861C281.448 608.954 281.401 609 281.343 609ZM273.835 604.481L274.875 603.434L275.916 604.481L274.875 605.521L273.835 604.481ZM283.628 611.424L284.573 610.472L285.525 611.424L284.573 612.376L283.628 611.424ZM281.05 611.424L282.002 610.472L282.947 611.424L282.002 612.376L281.05 611.424ZM281.292 607.901H283.357C283.894 607.901 284.292 607.787 284.551 607.557C284.814 607.323 284.946 606.93 284.946 606.378V604.334H286.001V606.385C286.001 607.269 285.784 607.926 285.349 608.355C284.915 608.785 284.253 609 283.364 609H281.292C281.165 609 281.101 608.827 281.101 608.48V608.399C281.101 608.297 281.108 608.209 281.123 608.136C281.138 608.062 281.16 608.006 281.189 607.967C281.218 607.923 281.252 607.901 281.292 607.901ZM295.698 609H295.53C295.276 609 295.049 608.976 294.849 608.927C294.653 608.873 294.475 608.79 294.314 608.678C294.158 608.561 294.026 608.448 293.918 608.341C293.811 608.229 293.684 608.077 293.538 607.887C293.357 608.243 293.079 608.519 292.703 608.714C292.332 608.905 291.941 609 291.531 609H288.132V607.901H291.406C291.963 607.901 292.383 607.716 292.666 607.345C292.949 606.969 293.091 606.424 293.091 605.711V599.442H294.087V605.719C294.087 606.466 294.189 607.018 294.395 607.374C294.604 607.726 294.988 607.901 295.544 607.901H295.698C295.742 607.901 295.776 607.923 295.801 607.967C295.83 608.006 295.852 608.065 295.867 608.143C295.886 608.216 295.896 608.302 295.896 608.399V608.48C295.896 608.583 295.886 608.673 295.867 608.751C295.852 608.829 295.83 608.89 295.801 608.934C295.771 608.978 295.737 609 295.698 609ZM288.14 599.808H289.136V606.942H288.14V599.808ZM295.654 607.901H297.134C297.671 607.901 298.069 607.787 298.328 607.557C298.591 607.323 298.723 606.93 298.723 606.378V604.334H299.778V606.385C299.778 607.269 299.561 607.926 299.126 608.355C298.691 608.785 298.025 609 297.126 609H295.654C295.527 609 295.464 608.827 295.464 608.48V608.399C295.464 608.297 295.471 608.209 295.486 608.136C295.5 608.062 295.522 608.006 295.552 607.967C295.581 607.923 295.615 607.901 295.654 607.901ZM297.815 601.485L298.789 600.511L299.763 601.485L298.789 602.459L297.815 601.485ZM302.224 600.855H303.22V608.971H302.224V600.855ZM301.982 598.299H304.751L304.766 599.237H302.056C301.528 599.237 301.128 599.535 300.854 600.13L300.159 599.662C300.31 599.256 300.542 598.929 300.854 598.68C301.167 598.426 301.543 598.299 301.982 598.299ZM318.762 609H318.374H318.264V609.11V609.688C318.264 610.533 317.937 611.18 317.283 611.629C316.633 612.079 315.657 612.303 314.353 612.303H313.65C312.239 612.303 311.187 611.979 310.493 611.329C309.805 610.68 309.46 609.698 309.46 608.385V605.997L310.522 606.004V608.377C310.522 609.31 310.786 610.013 311.313 610.487C311.841 610.965 312.62 611.205 313.65 611.205H314.353C314.597 611.205 314.822 611.197 315.027 611.183C315.232 611.168 315.449 611.141 315.679 611.102C315.908 611.063 316.108 611.004 316.279 610.926C316.455 610.853 316.616 610.76 316.763 610.648C316.909 610.536 317.021 610.394 317.1 610.223C317.178 610.052 317.217 609.857 317.217 609.637V609.11V609H317.107H315.254C315.063 609 314.917 608.812 314.814 608.436C314.741 608.163 314.724 607.984 314.763 607.901H318.762C318.821 607.901 318.867 607.948 318.901 608.041C318.936 608.128 318.953 608.248 318.953 608.399V608.48C318.953 608.636 318.936 608.763 318.901 608.861C318.867 608.954 318.821 609 318.762 609ZM318.711 607.901H319.436C320.144 607.901 320.513 607.672 320.542 607.213C320.557 606.983 320.564 606.7 320.564 606.363C320.564 604.552 321.331 603.646 322.864 603.646C323.665 603.646 324.258 603.866 324.644 604.305C325.029 604.745 325.222 605.436 325.222 606.378C325.222 607.276 325.022 607.955 324.622 608.414C324.226 608.873 323.64 609.103 322.864 609.103C322.454 609.103 322.117 609.049 321.853 608.941C321.594 608.834 321.345 608.661 321.106 608.421L321.018 608.341L320.945 608.429C320.774 608.629 320.569 608.775 320.33 608.868C320.095 608.956 319.802 609 319.451 609H318.711C318.584 609 318.521 608.827 318.521 608.48V608.399C318.521 608.297 318.528 608.209 318.542 608.136C318.557 608.062 318.579 608.006 318.608 607.967C318.638 607.923 318.672 607.901 318.711 607.901ZM321.904 607.608C322.129 607.901 322.454 608.048 322.878 608.048C323.303 608.048 323.628 607.901 323.853 607.608C324.077 607.315 324.189 606.896 324.189 606.349C324.189 605.27 323.75 604.73 322.871 604.73C322.441 604.73 322.117 604.869 321.897 605.147C321.677 605.421 321.567 605.821 321.567 606.349C321.567 606.896 321.68 607.315 321.904 607.608ZM329.463 609H326.907V607.901H329.47C330.833 607.901 331.514 607.572 331.514 606.913C331.514 606.522 331.267 606.043 330.774 605.477L328.789 603.185L329.529 602.357L331.631 604.811C331.938 605.172 332.173 605.538 332.334 605.909C332.495 606.275 332.576 606.625 332.576 606.957C332.576 607.562 332.314 608.055 331.792 608.436C331.274 608.812 330.498 609 329.463 609ZM337.234 609H336.904C336.138 609 335.566 608.785 335.19 608.355C334.814 607.921 334.626 607.257 334.626 606.363V599.457H335.623V606.371C335.623 606.864 335.732 607.242 335.952 607.506C336.177 607.77 336.501 607.901 336.926 607.901H337.234C337.297 607.901 337.344 607.948 337.373 608.041C337.407 608.128 337.424 608.248 337.424 608.399V608.48C337.424 608.827 337.361 609 337.234 609ZM337.168 607.901H339.709C341.003 607.901 341.65 607.538 341.65 606.81C341.65 606.507 341.367 606.036 340.801 605.396L338.501 602.723C338.247 602.425 338.12 602.118 338.12 601.8C338.125 601.268 338.391 600.917 338.918 600.746L343.342 599.303V600.379L339.241 601.72L339.087 601.771L339.197 601.896L341.453 604.51C341.873 604.999 342.175 605.423 342.361 605.785C342.551 606.141 342.646 606.483 342.646 606.81C342.646 607.523 342.402 608.067 341.914 608.443C341.426 608.814 340.686 609 339.695 609H337.168C337.041 609 336.978 608.827 336.978 608.48V608.399C336.978 608.297 336.985 608.209 337 608.136C337.014 608.062 337.036 608.006 337.065 607.967C337.095 607.923 337.129 607.901 337.168 607.901ZM346.389 600.855H347.385V608.971H346.389V600.855ZM346.147 598.299H348.916L348.931 599.237H346.221C345.693 599.237 345.293 599.535 345.02 600.13L344.324 599.662C344.475 599.256 344.707 598.929 345.02 598.68C345.332 598.426 345.708 598.299 346.147 598.299Z" fill="black"/>
<path d="M86.7524 609H86.0054C85.937 610.074 85.5073 610.912 84.7163 611.512C83.9302 612.118 82.8535 612.42 81.4863 612.42H80.9443H80.6514V612.127V610.838V610.545H80.9443H81.4424C83.1123 610.545 84.0181 610.03 84.1597 609H83.2881C82.3701 609 81.667 608.763 81.1787 608.29C80.6904 607.811 80.4463 607.123 80.4463 606.224C80.4463 605.785 80.5049 605.379 80.6221 605.008C80.7441 604.632 80.9199 604.303 81.1494 604.02C81.3838 603.731 81.6816 603.507 82.043 603.346C82.4092 603.185 82.8218 603.104 83.2808 603.104C84.1353 603.104 84.8042 603.382 85.2876 603.939C85.771 604.496 86.0127 605.235 86.0127 606.158V607.096H86.7524C86.8062 607.096 86.8501 607.198 86.8843 607.403C86.9185 607.608 86.9355 607.806 86.9355 607.997V608.077C86.9355 608.277 86.9185 608.482 86.8843 608.692C86.855 608.897 86.811 609 86.7524 609ZM82.2554 606.195C82.2554 606.517 82.3311 606.749 82.4824 606.891C82.6387 607.027 82.9048 607.096 83.2808 607.096H84.189V606.151C84.189 605.35 83.8765 604.95 83.2515 604.95C82.5874 604.95 82.2554 605.365 82.2554 606.195ZM92.9487 597.757L88.3418 599.295V598.358L92.9487 596.812V597.757ZM94.853 609H94.7432C93.7861 609 92.9487 608.59 92.231 607.77C91.7329 608.59 90.7271 609 89.2134 609H86.6719C86.6133 609 86.5693 608.897 86.54 608.692C86.5059 608.482 86.4888 608.277 86.4888 608.077V607.997C86.4888 607.806 86.5059 607.608 86.54 607.403C86.5742 607.198 86.6182 607.096 86.6719 607.096H89.228C90.2534 607.096 90.7661 606.866 90.7661 606.407C90.7661 606.368 90.7417 606.302 90.6929 606.209C90.6489 606.112 90.5684 605.978 90.4512 605.807C90.334 605.636 90.1899 605.453 90.019 605.257L87.7192 602.584C87.397 602.213 87.2358 601.817 87.2358 601.397C87.2407 601.046 87.3359 600.748 87.5215 600.504C87.7119 600.255 87.9756 600.074 88.3125 599.962L92.9707 598.438V598.841V600.152V600.365L89.3086 601.559L93.1978 606.063C93.354 606.239 93.5054 606.395 93.6519 606.532C93.7983 606.668 93.9326 606.778 94.0547 606.861C94.1768 606.939 94.2891 606.998 94.3916 607.037C94.499 607.076 94.5942 607.096 94.6772 607.096H94.853C94.9067 607.096 94.9507 607.198 94.9849 607.403C95.019 607.608 95.0361 607.806 95.0361 607.997V608.077C95.0361 608.277 95.019 608.482 94.9849 608.692C94.9556 608.897 94.9116 609 94.853 609ZM100.756 609H100.61C99.6724 609 98.9644 608.724 98.4858 608.172C97.9292 608.724 97.1113 609 96.0322 609H94.7798C94.7212 609 94.6772 608.897 94.6479 608.692C94.6138 608.482 94.5967 608.277 94.5967 608.077V607.997C94.5967 607.806 94.6138 607.608 94.6479 607.403C94.6821 607.198 94.7261 607.096 94.7798 607.096H96.0688C96.6255 607.096 97.0088 607.008 97.2188 606.832C97.4336 606.656 97.541 606.366 97.541 605.96V604.071V603.778H97.834H99.0864H99.3794V604.071V605.96C99.3794 606.385 99.4624 606.681 99.6284 606.847C99.7993 607.013 100.124 607.096 100.603 607.096H100.756C100.81 607.096 100.854 607.198 100.888 607.403C100.922 607.608 100.939 607.806 100.939 607.997V608.077C100.939 608.277 100.922 608.482 100.888 608.692C100.859 608.897 100.815 609 100.756 609ZM96.8086 601.192L98.0684 599.933L99.3281 601.192L98.0684 602.452L96.8086 601.192ZM100.698 607.096H102.185C102.644 607.096 102.956 607.022 103.122 606.876C103.288 606.729 103.371 606.429 103.371 605.975V603.822V603.529H103.664H104.938H105.231V603.822V605.982C105.231 606.959 104.97 607.706 104.448 608.224C103.925 608.741 103.168 609 102.177 609H100.698C100.639 609 100.595 608.897 100.566 608.692C100.532 608.482 100.515 608.277 100.515 608.077V607.997C100.515 607.806 100.532 607.608 100.566 607.403C100.6 607.198 100.644 607.096 100.698 607.096ZM101.086 611.424L102.346 610.165L103.605 611.424L102.346 612.684L101.086 611.424ZM122.722 597.757L118.115 599.295V598.358L122.722 596.812V597.757ZM124.648 609H124.538C124.216 609 123.906 608.954 123.608 608.861C123.315 608.763 123.037 608.624 122.773 608.443C122.509 608.263 122.26 608.038 122.026 607.77C121.767 608.189 121.384 608.5 120.876 608.7C120.373 608.9 119.75 609 119.008 609H113.698C112.575 609 111.718 608.7 111.127 608.099C110.537 607.494 110.241 606.617 110.241 605.47V603.998V603.705H110.534H111.816H112.109V603.998V605.462C112.109 606.034 112.236 606.449 112.49 606.708C112.744 606.966 113.154 607.096 113.72 607.096H119.023C120.048 607.096 120.561 606.866 120.561 606.407C120.561 606.339 120.498 606.2 120.371 605.99C120.244 605.78 120.058 605.536 119.814 605.257L117.514 602.584C117.192 602.213 117.031 601.817 117.031 601.397C117.036 601.046 117.131 600.748 117.316 600.504C117.507 600.255 117.771 600.074 118.107 599.962L122.766 598.438V598.841V600.152V600.365L119.104 601.559L122.993 606.063C123.295 606.41 123.574 606.668 123.828 606.839C124.082 607.01 124.296 607.096 124.472 607.096H124.648C124.702 607.096 124.746 607.198 124.78 607.403C124.814 607.608 124.831 607.806 124.831 607.997V608.077C124.831 608.277 124.814 608.482 124.78 608.692C124.75 608.897 124.707 609 124.648 609ZM126.662 611.424L127.893 610.187L129.13 611.424C129.101 611.454 129.072 611.485 129.042 611.52C128.979 611.583 128.808 611.751 128.53 612.025C128.251 612.303 128.039 612.516 127.893 612.662L126.662 611.424ZM124.011 611.424L125.249 610.187L126.479 611.424L125.249 612.662L124.011 611.424ZM131.064 609H130.91C129.963 609 129.255 608.727 128.786 608.18C128.239 608.727 127.421 609 126.333 609H124.567C124.509 609 124.465 608.897 124.436 608.692C124.401 608.482 124.384 608.277 124.384 608.077V607.997C124.384 607.806 124.401 607.608 124.436 607.403C124.47 607.198 124.514 607.096 124.567 607.096H126.369C126.926 607.096 127.309 607.008 127.519 606.832C127.734 606.656 127.841 606.366 127.841 605.96V604.071V603.778H128.134H129.387H129.68V604.071V605.96C129.68 606.385 129.763 606.681 129.929 606.847C130.1 607.013 130.424 607.096 130.903 607.096H131.064C131.118 607.096 131.162 607.198 131.196 607.403C131.23 607.608 131.247 607.806 131.247 607.997V608.077C131.247 608.277 131.23 608.482 131.196 608.692C131.167 608.897 131.123 609 131.064 609ZM130.991 607.096H132.478C132.937 607.096 133.249 607.022 133.415 606.876C133.581 606.729 133.664 606.429 133.664 605.975V603.822V603.529H133.957H135.231H135.524V603.822V605.982C135.524 606.959 135.263 607.706 134.741 608.224C134.218 608.741 133.461 609 132.47 609H130.991C130.932 609 130.888 608.897 130.859 608.692C130.825 608.482 130.808 608.277 130.808 608.077V607.997C130.808 607.806 130.825 607.608 130.859 607.403C130.893 607.198 130.937 607.096 130.991 607.096ZM131.379 611.424L132.639 610.165L133.898 611.424L132.639 612.684L131.379 611.424Z" fill="black"/>
</svg>
